<svg xmlns="http://www.w3.org/2000/svg" style="display: none;"><symbol id="instagram" viewBox="0 0 512 512"><title>instagram</title><g> <g> <path d="M373.659,0H138.341C62.06,0,0,62.06,0,138.341v235.318C0,449.94,62.06,512,138.341,512h235.318 C449.94,512,512,449.94,512,373.659V138.341C512,62.06,449.94,0,373.659,0z M470.636,373.659 c0,53.473-43.503,96.977-96.977,96.977H138.341c-53.473,0-96.977-43.503-96.977-96.977V138.341 c0-53.473,43.503-96.977,96.977-96.977h235.318c53.473,0,96.977,43.503,96.977,96.977V373.659z"/> </g> </g><g> <g> <path d="M370.586,238.141c-3.64-24.547-14.839-46.795-32.386-64.342c-17.547-17.546-39.795-28.746-64.341-32.385 c-11.176-1.657-22.507-1.657-33.682,0c-30.336,4.499-57.103,20.541-75.372,45.172c-18.269,24.631-25.854,54.903-21.355,85.237 c4.499,30.335,20.541,57.102,45.172,75.372c19.996,14.831,43.706,22.619,68.153,22.619c5.667,0,11.375-0.418,17.083-1.265 c30.336-4.499,57.103-20.541,75.372-45.172C367.5,298.747,375.085,268.476,370.586,238.141z M267.791,327.632 c-19.405,2.882-38.77-1.973-54.527-13.66c-15.757-11.687-26.019-28.811-28.896-48.216c-2.878-19.405,1.973-38.77,13.66-54.527 c11.688-15.757,28.811-26.019,48.217-28.897c3.574-0.53,7.173-0.795,10.772-0.795s7.199,0.265,10.773,0.796 c32.231,4.779,57.098,29.645,61.878,61.877C335.608,284.268,307.851,321.692,267.791,327.632z"/> </g> </g><g> <g> <path d="M400.049,111.951c-3.852-3.851-9.183-6.058-14.625-6.058c-5.442,0-10.773,2.206-14.625,6.058 c-3.851,3.852-6.058,9.174-6.058,14.625c0,5.451,2.207,10.773,6.058,14.625c3.852,3.851,9.183,6.058,14.625,6.058 c5.442,0,10.773-2.206,14.625-6.058c3.851-3.852,6.058-9.183,6.058-14.625C406.107,121.133,403.9,115.802,400.049,111.951z"/> </g> </g></symbol><symbol id="instagram-logo" viewBox="0 0 169.063 169.063"><title>instagram-logo</title><path d="M122.406,0H46.654C20.929,0,0,20.93,0,46.655v75.752c0,25.726,20.929,46.655,46.654,46.655h75.752 c25.727,0,46.656-20.93,46.656-46.655V46.655C169.063,20.93,148.133,0,122.406,0z M154.063,122.407 c0,17.455-14.201,31.655-31.656,31.655H46.654C29.2,154.063,15,139.862,15,122.407V46.655C15,29.201,29.2,15,46.654,15h75.752 c17.455,0,31.656,14.201,31.656,31.655V122.407z"/><path d="M84.531,40.97c-24.021,0-43.563,19.542-43.563,43.563c0,24.02,19.542,43.561,43.563,43.561s43.563-19.541,43.563-43.561 C128.094,60.512,108.552,40.97,84.531,40.97z M84.531,113.093c-15.749,0-28.563-12.812-28.563-28.561 c0-15.75,12.813-28.563,28.563-28.563s28.563,12.813,28.563,28.563C113.094,100.281,100.28,113.093,84.531,113.093z"/><path d="M129.921,28.251c-2.89,0-5.729,1.17-7.77,3.22c-2.051,2.04-3.23,4.88-3.23,7.78c0,2.891,1.18,5.73,3.23,7.78 c2.04,2.04,4.88,3.22,7.77,3.22c2.9,0,5.73-1.18,7.78-3.22c2.05-2.05,3.22-4.89,3.22-7.78c0-2.9-1.17-5.74-3.22-7.78 C135.661,29.421,132.821,28.251,129.921,28.251z"/></symbol><symbol id="tripadvisor-logotype" viewBox="0 0 98.566 98.566"><title>tripadvisor-logotype</title><path d="M60.401,20.996c2.751,0.389,5.445,1.08,8.107,1.898c4.647,1.431,9.032,3.419,13.156,5.998 c0.287,0.178,0.67,0.291,1.008,0.291c4.844,0.02,9.686,0.013,14.526,0.017c0.39,0,0.778,0.041,1.167,0.063 c0,0.095,0.014,0.135-0.002,0.157c-0.226,0.348-0.455,0.691-0.682,1.038c-1.643,2.52-3.047,5.156-3.876,8.07 c-0.09,0.313-0.109,0.575,0.103,0.882c4.312,6.192,5.688,12.99,3.886,20.318c-1.58,6.427-5.264,11.438-10.862,14.986 c-4.001,2.537-8.421,3.745-13.143,3.771c-1.984,0.012-3.958-0.255-5.896-0.757c-4.722-1.225-8.77-3.579-12.106-7.144 c-0.44-0.468-0.854-0.957-1.323-1.486c-1.764,2.629-3.5,5.215-5.278,7.869c-1.771-2.646-3.483-5.207-5.191-7.758 c-0.118,0.062-0.152,0.069-0.175,0.091c-0.039,0.032-0.072,0.071-0.103,0.108c-4.035,4.765-9.111,7.686-15.295,8.663 c-3.44,0.545-6.847,0.349-10.188-0.572c-4.735-1.301-8.759-3.799-12.01-7.485c-3.177-3.604-5.153-7.788-5.895-12.545 c-0.849-4.44,0.185-8.721,0.443-9.76c0.748-3.02,2.052-5.793,3.842-8.343c0.126-0.181,0.17-0.501,0.11-0.717 c-0.73-2.677-1.988-5.112-3.461-7.444c-0.374-0.593-0.822-1.142-1.236-1.711c0-0.065,0-0.132,0-0.198 c0.083,0.01,0.165,0.026,0.246,0.026c4.956,0.002,9.911,0.004,14.867-0.006c0.216,0,0.456-0.089,0.64-0.207 c3.482-2.234,7.192-4.004,11.09-5.382c2.811-0.992,5.681-1.766,8.608-2.333c2.834-0.548,5.683-0.934,8.562-1.124 C51.059,19.73,56.669,20.473,60.401,20.996z M54.188,53.727c0,10.883,8.83,19.774,19.674,19.732 c10.885-0.039,19.675-8.68,19.667-19.683c-0.008-11.339-9.206-19.863-20.089-19.642C62.696,34.357,54.286,43.017,54.188,53.727z M24.677,34.059C14.091,33.967,4.861,42.802,5.046,54.056c0.172,10.495,8.822,19.392,19.851,19.297 c10.784-0.092,19.452-8.898,19.472-19.562C44.386,42.835,35.612,34.059,24.677,34.059z M25.653,28.925 c5.98,0.365,11.233,2.449,15.671,6.485c4.429,4.028,7.024,9.053,7.967,14.962c0.97-5.839,3.497-10.817,7.843-14.805 c4.353-3.992,9.536-6.087,15.418-6.53c-6.98-3.103-14.34-4.421-21.916-4.567C42.026,24.301,33.651,25.57,25.653,28.925z"/><path d="M73.822,41.311c6.735-0.011,12.19,5.415,12.19,12.143c0,6.754-5.362,11.975-11.688,12.216 c-7.065,0.271-12.718-5.358-12.716-12.186C61.614,46.578,67.307,41.197,73.822,41.311z M81.766,53.484 c-0.003-4.39-3.552-7.958-7.912-7.958c-4.41,0-8,3.549-8.018,7.926c-0.016,4.358,3.592,7.984,7.961,7.996 C78.173,61.465,81.768,57.866,81.766,53.484z"/><path d="M24.417,41.311c6.731-0.007,12.194,5.429,12.177,12.156c-0.019,6.809-5.386,11.916-11.601,12.199 c-7.093,0.324-12.816-5.33-12.803-12.195C12.204,46.516,17.936,41.195,24.417,41.311z M32.352,53.457 c-0.013-4.417-3.585-7.938-8.044-7.93c-4.301,0.008-7.905,3.638-7.895,7.955c0.011,4.367,3.611,7.958,7.992,7.97 C28.759,61.462,32.363,57.836,32.352,53.457z"/><path d="M73.828,49.443c2.232-0.002,4.062,1.829,4.041,4.048c-0.022,2.224-1.821,4.026-4.016,4.027 c-2.26,0-4.077-1.786-4.072-3.999C69.785,51.223,71.55,49.445,73.828,49.443z"/><path d="M24.396,49.407c2.266-0.002,4.087,1.808,4.096,4.067c0.009,2.24-1.829,4.079-4.084,4.084 c-2.309,0.005-4.09-1.779-4.088-4.1C20.32,51.179,22.097,49.41,24.396,49.407z"/></symbol><symbol id="gallery" viewBox="0 0 129 129"><title>gallery</title><circle cx="76" cy="42.4" r="6.6"/><path d="m6.4,119.5c0,0 0,0.1 0,0 0,0.1 0,0.1 0.1,0.1 0.1,0.2 0.2,0.5 0.3,0.7 0,0.1 0.1,0.1 0.1,0.2 0,0.1 0.1,0.1 0.1,0.2 0,0 0.1,0.1 0.1,0.1 0.1,0.2 0.3,0.3 0.4,0.5 0,0 0.1,0.1 0.1,0.1 0.1,0.1 0.1,0.1 0.2,0.2 0.1,0 0.1,0.1 0.1,0.1 0.1,0.1 0.2,0.1 0.3,0.2 0,0 0.1,0.1 0.1,0.1 0,0 0.1,0 0.1,0.1 0.1,0.1 0.3,0.1 0.4,0.2 0.1,0 0.1,0 0.2,0.1 0.1,0 0.2,0.1 0.2,0.1 0.3,0.1 0.6,0.1 0.9,0.1h108.2c2.3,0 4.1-1.8 4.1-4.1v-27-80.9c0-2.3-1.8-4.1-4.1-4.1h-107.9c-2.3,0-4.1,1.8-4.1,4.1v80.7 27c0,0.3 0.1,0.7 0.1,1 0,0.1 0,0.2 0,0.2zm108.1-5.2h-90.4l66.8-43.7 23.6,22.5v21.2zm-100-99.6h100v67.1l-20.3-19.4c-1.4-1.3-3.5-1.5-5.1-0.5l-19.1,12.6-13.3-13.4c-1.4-1.4-3.5-1.6-5.1-0.6l-37.1,23.4v-69.2zm0,78.9l38.7-24.4 9.8,9.9-48.5,31.7v-17.2z"/></symbol></svg>