<?xml version='1.0' encoding='utf-8'?>
<!DOCTYPE svg PUBLIC '-//W3C//DTD SVG 1.1//EN' 'http://www.w3.org/Graphics/SVG/1.1/DTD/svg11.dtd'>
<svg width="64" version="1.1" xmlns="http://www.w3.org/2000/svg" height="64" viewBox="0 0 64 64" xmlns:xlink="http://www.w3.org/1999/xlink" enable-background="new 0 0 64 64">
  <g>
    <g fill="#1D1D1B">
      <path d="m16.939,40.09h-8.138c-1.173,0-2.122,0.949-2.122,2.122v19.666c0,1.173 0.949,2.122 2.122,2.122h8.139c1.173,0 2.122-0.949 2.122-2.122v-19.666c3.55271e-15-1.173-0.95-2.122-2.123-2.122zm-2.122,19.666h-3.895v-15.422h3.895v15.422z"/>
      <path d="m35.803,25.216h-8.139c-1.173,0-2.122,0.949-2.122,2.122v34.54c0,1.173 0.949,2.122 2.122,2.122h8.139c1.173,0 2.122-0.949 2.122-2.122v-34.54c0-1.173-0.949-2.122-2.122-2.122zm-2.122,34.54h-3.895v-30.296h3.895v30.296z"/>
      <path d="m54.878,9.771h-8.139c-1.173,0-2.122,0.949-2.122,2.122v49.985c0,1.173 0.949,2.122 2.122,2.122h8.139c1.173,0 2.122-0.949 2.122-2.122v-49.985c0-1.173-0.949-2.122-2.122-2.122zm-2.122,49.985h-3.895v-45.741h3.895v45.741z"/>
    </g>
  </g>
</svg>
