<?xml version='1.0' encoding='utf-8'?>
<!DOCTYPE svg PUBLIC '-//W3C//DTD SVG 1.1//EN' 'http://www.w3.org/Graphics/SVG/1.1/DTD/svg11.dtd'>
<svg width="64" version="1.1" xmlns="http://www.w3.org/2000/svg" height="64" viewBox="0 0 64 64" xmlns:xlink="http://www.w3.org/1999/xlink" enable-background="new 0 0 64 64">
  <g>
    <path fill="#1D1D1B" d="m17.114,.006c-1.104,0-2,0.896-2,2.002v59.584c0,0.738 0.408,1.418 1.061,1.766 0.65,0.346 1.443,0.305 2.055-0.105l13.443-9.047 13.457,9.438c0.344,0.24 0.746,0.363 1.148,0.363 0.316,0 0.633-0.074 0.922-0.227 0.664-0.344 1.078-1.027 1.078-1.773v-59.999c0-1.105-0.895-2.002-2-2.002h-29.164zm27.164,58.152l-11.434-8.02c-0.344-0.24-0.746-0.361-1.148-0.361-0.391,0-0.777,0.113-1.117,0.34l-11.465,7.717v-53.826h25.164v54.15z"/>
  </g>
</svg>
