<?xml version='1.0' encoding='utf-8'?>
<!DOCTYPE svg PUBLIC '-//W3C//DTD SVG 1.1//EN' 'http://www.w3.org/Graphics/SVG/1.1/DTD/svg11.dtd'>
<svg width="64" version="1.1" xmlns="http://www.w3.org/2000/svg" height="64" viewBox="0 0 64 64" xmlns:xlink="http://www.w3.org/1999/xlink" enable-background="new 0 0 64 64">
  <g>
    <path fill="#1D1D1B" d="M32,0C14.355,0,0,14.355,0,32s14.355,32,32,32s32-14.355,32-32S49.645,0,32,0z M32,4   c6.949,0,13.301,2.56,18.201,6.767L10.768,50.202C6.561,45.302,4,38.949,4,32C4,16.561,16.561,4,32,4z M32,60   c-7.053,0-13.486-2.642-18.414-6.96l39.453-39.455C57.359,18.513,60,24.947,60,32C60,47.439,47.439,60,32,60z"/>
  </g>
</svg>
