<?xml version='1.0' encoding='utf-8'?>
<!DOCTYPE svg PUBLIC '-//W3C//DTD SVG 1.1//EN' 'http://www.w3.org/Graphics/SVG/1.1/DTD/svg11.dtd'>
<svg width="64" version="1.1" xmlns="http://www.w3.org/2000/svg" height="64" viewBox="0 0 64 64" xmlns:xlink="http://www.w3.org/1999/xlink" enable-background="new 0 0 64 64">
  <g>
    <path fill="#1D1D1B" d="m50.647,24c-1.642-4.593-6.022-7.895-11.173-7.895-3.079,0-5.984,1.201-8.169,3.278-3.417-3.438-8.009-5.383-12.951-5.383-10.097,0-18.313,8.215-18.313,18.314-3.67761e-16,9.705 7.593,17.647 17.147,18.254 0.101,0.015 0.188,0.059 0.293,0.059h33.223c0.046,0 0.084-0.023 0.128-0.026 0.044,0.003 0.084,0.026 0.128,0.026 7.152,0 12.971-6.016 12.971-13.41 0-7.294-5.933-13.229-13.227-13.229-0.02,0.001-0.036,0.012-0.057,0.012zm9.183,13.218c0,5.133-3.979,9.309-8.87,9.309-0.044,0-0.084,0.023-0.128,0.026-0.044-0.003-0.082-0.026-0.128-0.026h-32.35c-7.837,0-14.213-6.375-14.213-14.213 0-7.837 6.376-14.213 14.213-14.213 4.491,0 8.626,2.057 11.341,5.643 0.064,0.087 0.16,0.135 0.236,0.209 0.084,0.08 0.145,0.18 0.244,0.247 0.022,0.015 0.048,0.015 0.07,0.029 0.134,0.084 0.28,0.128 0.429,0.178 0.104,0.035 0.202,0.088 0.308,0.105 0.162,0.028 0.323,0.011 0.487,0 0.094-0.007 0.188,0.005 0.282-0.015 0.162-0.035 0.312-0.114 0.467-0.19 0.086-0.042 0.176-0.068 0.256-0.124 0.03-0.019 0.064-0.023 0.092-0.044 0.137-0.101 0.221-0.237 0.32-0.362 0.04-0.05 0.099-0.079 0.137-0.133 1.449-2.153 3.86-3.439 6.451-3.439 4.285,0 7.773,3.487 7.773,7.774 0,1.132 0.917,2.051 2.05,2.051 1.071,0 1.925-0.831 2.015-1.878 4.746,0.319 8.518,4.24 8.518,9.066z"/>
  </g>
</svg>
