<?xml version='1.0' encoding='utf-8'?>
<!DOCTYPE svg PUBLIC '-//W3C//DTD SVG 1.1//EN' 'http://www.w3.org/Graphics/SVG/1.1/DTD/svg11.dtd'>
<svg width="64" version="1.1" xmlns="http://www.w3.org/2000/svg" height="64" viewBox="0 0 64 64" xmlns:xlink="http://www.w3.org/1999/xlink" enable-background="new 0 0 64 64">
  <g>
    <g fill="#1D1D1B">
      <path d="m38.489,47.434h-19.962v-21.428c0-1.452-1.159-2.631-2.591-2.631-1.434,0-2.592,1.179-2.592,2.631v24.059c0,1.454 1.158,2.632 2.592,2.632h22.553c1.433,0 2.592-1.178 2.592-2.632 0-1.452-1.159-2.631-2.592-2.631z"/>
      <path d="m46.168,15.507h-43.597c-1.433,0-2.592,1.179-2.592,2.632s1.159,2.631 2.592,2.631h41.005v40.6c0,1.453 1.159,2.631 2.592,2.631s2.592-1.178 2.592-2.631v-43.23c0-1.454-1.159-2.633-2.592-2.633z"/>
      <path d="m15.937,12.899c1.432,0 2.591-1.179 2.591-2.631v-7.637c-0.001-1.453-1.16-2.631-2.591-2.631-1.434,0-2.592,1.178-2.592,2.631v7.638c1.77636e-15,1.452 1.158,2.63 2.592,2.63z"/>
      <path d="m61.388,47.441h-7.521c-1.433,0-2.591,1.179-2.591,2.631 0,1.454 1.158,2.633 2.591,2.633h7.521c1.433,0 2.592-1.179 2.592-2.633-0.001-1.452-1.16-2.631-2.592-2.631z"/>
    </g>
  </g>
</svg>
