<?xml version='1.0' encoding='utf-8'?>
<!DOCTYPE svg PUBLIC '-//W3C//DTD SVG 1.1//EN' 'http://www.w3.org/Graphics/SVG/1.1/DTD/svg11.dtd'>
<svg width="64" version="1.1" xmlns="http://www.w3.org/2000/svg" height="64" viewBox="0 0 64 64" xmlns:xlink="http://www.w3.org/1999/xlink" enable-background="new 0 0 64 64">
  <g>
    <g fill="#1D1D1B">
      <path d="m26.881,2.228c-1.028,0.408-1.528,1.572-1.122,2.601 0.023,0.057 2.197,5.771 0.066,8.913-0.842,1.241-2.404,1.949-4.573,2.17v-10.091c0-1.106-0.895-2.002-2.001-2.002-1.106,0-2.001,0.896-2.001,2.002v10.107c-2.298-0.188-3.946-0.897-4.819-2.182-1.79-2.628-0.563-7.331 0.061-8.923 0.407-1.026-0.096-2.188-1.122-2.597-1.026-0.407-2.189,0.092-2.6,1.122-0.123,0.312-3,7.71 0.344,12.64 1.394,2.053 3.576,3.323 6.494,3.801-0.006,0.035-0.027,0.062-0.031,0.098-0.807,5.947-4.552,35.945 1.157,42.488 1.171,1.344 2.496,1.625 3.399,1.625 1.31,0 2.476-0.569 3.375-1.645 5.462-6.545 0.36-36.597-0.717-42.553-0.002-0.01-0.008-0.02-0.012-0.029 2.851-0.497 4.985-1.762 6.357-3.784 3.344-4.93 0.467-12.328 0.344-12.64-0.408-1.03-1.573-1.529-2.599-1.121zm-6.445,57.56c-0.174,0.207-0.252,0.207-0.303,0.207-0.053,0-0.162,0-0.383-0.252-3.297-3.78-2.14-23.761-0.506-36.989 2.36,13.987 4.16,33.477 1.192,37.034z"/>
      <path d="m55.818,31.923v-29.921c0-1.106-0.895-2.002-2.001-2.002-13.109,0-14.28,28.606-14.372,31.868-0.014,0.54 0.189,1.063 0.567,1.451 0.377,0.387 0.893,0.606 1.434,0.606h1.91c-0.383,5.835-1.206,24.086 3.058,28.685 1.067,1.15 2.232,1.39 3.024,1.39s1.958-0.24 3.023-1.391c4.53-4.885 3.324-25.152 2.998-29.605 0.209-0.316 0.359-0.675 0.359-1.081zm-4.002-27.432v25.429h-8.272c0.477-7.644 2.601-22.552 8.272-25.429zm-2.378,55.488c-1.923-1.118-2.886-12.704-2.14-25.012h4.282c0.746,12.312-0.218,23.898-2.142,25.012z"/>
    </g>
  </g>
</svg>
