<?xml version='1.0' encoding='utf-8'?>
<!DOCTYPE svg PUBLIC '-//W3C//DTD SVG 1.1//EN' 'http://www.w3.org/Graphics/SVG/1.1/DTD/svg11.dtd'>
<svg width="64" version="1.1" xmlns="http://www.w3.org/2000/svg" height="64" viewBox="0 0 64 64" xmlns:xlink="http://www.w3.org/1999/xlink" enable-background="new 0 0 64 64">
  <g>
    <path fill="#1D1D1B" d="m.152,16.638c0.017,0.2 0.065,0.396 0.141,0.584 0.005,0.016 0.005,0.031 0.011,0.047 0.019,0.043 0.054,0.074 0.072,0.115 0.044,0.084 0.077,0.173 0.135,0.253l29.846,42.354c0.076,0.11 0.194,0.161 0.288,0.25 0.077,0.076 0.129,0.168 0.22,0.232 0.035,0.026 0.077,0.033 0.114,0.057 0.088,0.053 0.172,0.093 0.267,0.131 0.233,0.099 0.473,0.164 0.719,0.171 0.011,0 0.022,0.009 0.037,0.009 0.003,0 0.007-0.002 0.007-0.002 0.006,0 0.01,0.002 0.014,0.002 0.015,0 0.025-0.009 0.038-0.009 0.245-0.006 0.486-0.071 0.718-0.171 0.093-0.037 0.176-0.078 0.263-0.129 0.037-0.022 0.079-0.031 0.116-0.057 0.092-0.065 0.147-0.16 0.224-0.237 0.092-0.087 0.208-0.137 0.284-0.245l29.847-42.224c0.235-0.331 0.345-0.719 0.354-1.111 0.006-0.076-0.006-0.148-0.008-0.223-0.005-0.066-0.005-0.132-0.02-0.199-0.064-0.52-0.306-1.012-0.743-1.349l-15.234-11.72c-0.357-0.274-0.783-0.422-1.25-0.417-0.286,0.004-6.962,0.109-14.595,1.697-7.25-1.547-14.291-1.691-14.592-1.697-0.504,0-0.9,0.14-1.261,0.417l-15.236,11.72c-0.029,0.022-0.045,0.055-0.072,0.079-0.118,0.101-0.227,0.212-0.318,0.34-0.043,0.059-0.078,0.119-0.113,0.181-0.029,0.051-0.068,0.094-0.094,0.148-0.032,0.067-0.044,0.14-0.064,0.21-0.024,0.067-0.05,0.132-0.063,0.2-0.036,0.158-0.05,0.316-0.046,0.476-0.002,0.04-0.009,0.078-0.006,0.117zm29.92-8.479v5.507c-0.569-0.083-1.221-0.158-1.986-0.218-2.004-0.27-4.69-0.49-8.157-0.49-0.337,0-0.71,0.025-1.052,0.029l3.998-5.854c2.113,0.205 4.621,0.529 7.197,1.026zm11.096-1.029l3.937,5.856c-0.331-0.003-0.689-0.028-1.016-0.028-4.414,0-7.564,0.356-9.646,0.718-0.121,0.015-0.234,0.031-0.353,0.048v-5.585c2.596-0.489 5.036-0.806 7.078-1.009zm-13.782,10.282c1.131,0.148 2,0.305 2.626,0.442v30.706l-12.371-31.135c4.641-0.184 7.729-0.137 9.745-0.013zm6.643,.435c0.325-0.071 0.71-0.145 1.163-0.223 1.972-0.203 5.423-0.356 11.211-0.125l-12.374,31.051v-30.703zm-20.63-.209l10.308,25.942-17.899-25.402c2.841-0.235 5.343-0.408 7.591-0.54zm26.917,25.982l10.324-25.903c2.254,0.139 4.752,0.321 7.583,0.571l-17.907,25.332zm14.44-30.079c-1.612-0.164-3.16-0.275-4.685-0.371l-4.284-6.372c0.059-0.002 0.141-0.007 0.193-0.009l8.776,6.752zm-36.714-6.75c0.053,0.002 0.135,0.007 0.193,0.009l-4.355,6.376c-1.502,0.095-3.022,0.203-4.612,0.364l8.774-6.749z"/>
  </g>
</svg>
