<?xml version='1.0' encoding='utf-8'?>
<!DOCTYPE svg PUBLIC '-//W3C//DTD SVG 1.1//EN' 'http://www.w3.org/Graphics/SVG/1.1/DTD/svg11.dtd'>
<svg width="64" version="1.1" xmlns="http://www.w3.org/2000/svg" height="64" viewBox="0 0 64 64" xmlns:xlink="http://www.w3.org/1999/xlink" enable-background="new 0 0 64 64">
  <g>
    <g fill="#1D1D1B">
      <path d="m46.549,36.012h-28.285c-1.105,0-2,0.896-2,2s0.895,2 2,2h28.285c1.105,0 2-0.896 2-2s-0.895-2-2-2z"/>
      <path d="m46.549,23.864h-28.285c-1.105,0-2,0.896-2,2s0.895,2 2,2h28.285c1.105,0 2-0.896 2-2s-0.895-2-2-2z"/>
      <path d="M31.998,0C14.354,0,0,14.355,0,32s14.354,32,31.998,32C49.645,64,64,49.645,64,32S49.645,0,31.998,0z     M31.998,60C16.561,60,4,47.439,4,32S16.561,4,31.998,4C47.438,4,60,16.561,60,32S47.438,60,31.998,60z"/>
    </g>
  </g>
</svg>
