<?xml version='1.0' encoding='utf-8'?>
<!DOCTYPE svg PUBLIC '-//W3C//DTD SVG 1.1//EN' 'http://www.w3.org/Graphics/SVG/1.1/DTD/svg11.dtd'>
<svg width="64" version="1.1" xmlns="http://www.w3.org/2000/svg" height="64" viewBox="0 0 64 64" xmlns:xlink="http://www.w3.org/1999/xlink" enable-background="new 0 0 64 64">
  <g>
    <g fill="#1D1D1B">
      <path d="m58.969,31.772c-8.087,9.937-16.384,15.509-24.675,16.541-1.104,0.137-1.888,1.143-1.75,2.248 0.127,1.019 0.995,1.766 1.996,1.766 0.083,0 0.167-0.005 0.252-0.016 9.729-1.21 19.267-7.702 28.352-19.296 0.046-0.059 0.059-0.132 0.098-0.194 0.057-0.089 0.097-0.18 0.139-0.275 0.059-0.139 0.109-0.273 0.136-0.42 0.023-0.122 0.025-0.241 0.025-0.366 0-0.123-0.002-0.24-0.025-0.36-0.026-0.147-0.078-0.284-0.138-0.425-0.042-0.095-0.081-0.183-0.136-0.271-0.04-0.064-0.051-0.136-0.099-0.196-3.539-4.517-7.186-8.301-10.838-11.25-0.864-0.694-2.132-0.563-2.833,0.303-0.698,0.866-0.562,2.133 0.303,2.833 3.075,2.482 6.162,5.654 9.193,9.378z"/>
      <path d="m.042,31.93c0.04,0.431 0.213,0.828 0.513,1.157 2.141,3.783 10.433,13.904 21.602,17.815l-1.152,2.062c-0.543,0.971-0.195,2.198 0.777,2.74 0.311,0.174 0.647,0.256 0.98,0.256 0.706,0 1.392-0.372 1.761-1.033l23.839-42.694c0.543-0.971 0.195-2.198-0.777-2.74-0.971-0.547-2.2-0.196-2.741,0.777l-1.816,3.254c-10.137-4.415-20.622-2.979-30.432,4.221-7.624,5.595-12.1,12.635-12.287,12.932-0.04,0.062-0.043,0.133-0.075,0.198-0.049,0.097-0.081,0.195-0.114,0.299-0.044,0.147-0.079,0.29-0.089,0.44-0.004,0.055-0.031,0.101-0.031,0.157 0,0.036 0.031,0.11 0.042,0.159zm31.744-14.724c2.827,0 5.509,0.938 7.705,2.649l-12.107,21.681c-4.826-1.81-8.169-6.473-8.169-11.759 0-6.932 5.639-12.571 12.571-12.571zm-11.48,.61c-3.148,3.023-5.12,7.262-5.12,11.961 0,6.769 4.149,12.777 10.213,15.314l-1.236,2.213c-10.218-3.258-17.492-12.438-19.713-15.545 1.94-2.705 7.667-9.946 15.856-13.943z"/>
    </g>
  </g>
</svg>
