<?xml version='1.0' encoding='utf-8'?>
<!DOCTYPE svg PUBLIC '-//W3C//DTD SVG 1.1//EN' 'http://www.w3.org/Graphics/SVG/1.1/DTD/svg11.dtd'>
<svg width="64" version="1.1" xmlns="http://www.w3.org/2000/svg" height="64" viewBox="0 0 64 64" xmlns:xlink="http://www.w3.org/1999/xlink" enable-background="new 0 0 64 64">
  <g>
    <g fill="#1D1D1B">
      <path d="m8.857,62.61c1.359,1.29 3.06,1.39 3.509,1.39 0.058,0 0.095-0.002 0.107-0.003h38.868c2.045,0 3.312-0.842 4.014-1.548 1.615-1.627 1.646-3.874 1.645-4.11v-45.282c0-0.265-0.054-0.528-0.156-0.776-0.104-0.249-0.252-0.475-0.44-0.662l-11-11c-0.189-0.188-0.414-0.337-0.663-0.44-0.248-0.104-0.513-0.157-0.776-0.157h-31.491c-2.037,0-3.247,0.89-3.903,1.636-1.504,1.708-1.408,4.094-1.347,4.765v51.916c0,2.25 0.887,3.565 1.633,4.271zm34.092-58.526h0.175l9.323,9.323-7.494,.002c0.001,0.012-0.865,0.012-1.425-0.52-0.385-0.366-0.579-0.993-0.579-1.864v-6.941zm-31.329,.257c0.056-0.064 0.226-0.257 0.854-0.257h26.412v6.942c0,2.525 1.002,4.008 1.842,4.808 1.599,1.521 3.644,1.639 4.193,1.639 0.069,0 0.115-0.001 0.134-0.002h7.883v40.855c-0.036,1.608-1.211,1.608-1.596,1.608l-38.976,.003c-0.006,0-0.455-0.03-0.715-0.275-0.316-0.301-0.363-0.958-0.363-1.323v-52.021c0-0.088-0.006-0.173-0.017-0.259-0.043-0.339-0.005-1.315 0.349-1.718z"/>
      <path d="m17.694,48.622h14.276c1.124,0 2.032-0.91 2.032-2.032 0-1.121-0.908-2.031-2.032-2.031h-14.276c-1.123,0-2.032,0.91-2.032,2.031 1.77636e-15,1.122 0.909,2.032 2.032,2.032z"/>
    </g>
  </g>
</svg>
