<?xml version='1.0' encoding='utf-8'?>
<!DOCTYPE svg PUBLIC '-//W3C//DTD SVG 1.1//EN' 'http://www.w3.org/Graphics/SVG/1.1/DTD/svg11.dtd'>
<svg width="64" version="1.1" xmlns="http://www.w3.org/2000/svg" height="64" viewBox="0 0 64 64" xmlns:xlink="http://www.w3.org/1999/xlink" enable-background="new 0 0 64 64">
  <g>
    <g fill="#1D1D1B">
      <path d="M6.112,63.923c1.168,0,2.113-0.946,2.113-2.113V2.113C8.226,0.946,7.28,0,6.112,0    C4.947,0,3.999,0.946,3.999,2.113V61.81C3.999,62.977,4.947,63.923,6.112,63.923z"/>
      <path d="m29.902,3.054c-9.27-5.429-16.373-1.64-18.835,1.121-0.776,0.872-0.7,2.207 0.171,2.983 0.871,0.776 2.206,0.698 2.984-0.171 0.048-0.053 4.912-5.34 13.521-0.301 0.754,0.456 16.814,9.972 29.329,3.942-0.858,3.598-2.807,8.593-7.223,11.769-5.32,3.828-13.053,4.235-22.869,1.242-0.455-0.162-11.194-3.922-16.312,2.273-0.743,0.899-0.619,2.232 0.28,2.976 0.9,0.742 2.233,0.617 2.976-0.283 2.682-3.244 9.308-1.812 11.726-0.955 4.775,1.457 9.139,2.185 13.076,2.185 5.349,0 9.904-1.345 13.624-4.029 9.208-6.65 9.6-18.948 9.612-19.469 0.02-0.836-0.456-1.606-1.214-1.961-0.756-0.357-1.653-0.232-2.284,0.316-10.444,9.07-28.359-1.517-28.562-1.638z"/>
    </g>
  </g>
</svg>
