<?xml version='1.0' encoding='utf-8'?>
<!DOCTYPE svg PUBLIC '-//W3C//DTD SVG 1.1//EN' 'http://www.w3.org/Graphics/SVG/1.1/DTD/svg11.dtd'>
<svg width="64" version="1.1" xmlns="http://www.w3.org/2000/svg" height="64" viewBox="0 0 64 64" xmlns:xlink="http://www.w3.org/1999/xlink" enable-background="new 0 0 64 64">
  <g>
    <g fill="#1D1D1B">
      <path d="m13.229,26.814c-3.818,0-6.923,3.377-6.923,7.529 0,0.571 0.462,1.033 1.032,1.033 0.571,0 1.034-0.462 1.034-1.033 0-3.012 2.18-5.463 4.856-5.463 0.571,0 1.033-0.461 1.033-1.033 0.002-0.571-0.46-1.033-1.032-1.033z"/>
      <path d="m63.902,34.344c0-4.291-1.949-8.133-5.004-10.695-0.006-0.632 0.07-1.562 0.447-2.646 0.271-0.776-0.029-1.634-0.727-2.07-0.694-0.438-1.602-0.336-2.184,0.243-0.498,0.5-1.781,1.486-2.794,1.723-1.181-0.326-2.418-0.514-3.699-0.514-2.338,0-4.542,0.585-6.479,1.606-0.303-0.238-0.652-0.422-1.063-0.459-0.229-0.021-0.449-0.031-0.662-0.031-0.013,0-0.07,0.001-0.128,0.002-0.411-0.021-1.075-0.067-1.827-0.161l-4.361-3.265 .935-.665c0.931-0.662 1.146-1.951 0.484-2.881-0.662-0.929-1.952-1.147-2.882-0.485l-1.991,1.474-2.071-1.474c-0.931-0.665-2.219-0.446-2.881,0.485-0.661,0.93-0.446,2.219 0.484,2.881l.956,.709-4.34,3.215c-0.771,0.097-1.45,0.145-1.871,0.166-0.056-0.001-0.115-0.002-0.127-0.002-0.214,0-0.434,0.01-0.662,0.031-0.411,0.037-0.761,0.221-1.063,0.459-1.937-1.021-4.14-1.606-6.479-1.606-1.322,0-2.598,0.197-3.811,0.542-0.888-0.242-2.041-1.062-2.655-1.667-0.566-0.568-1.456-0.668-2.137-0.24-0.68,0.428-0.975,1.268-0.711,2.027 0.357,1.026 0.44,1.913 0.44,2.528-3.105,2.563-5.087,6.439-5.087,10.771 0,3.179 1.079,6.104 2.875,8.454-0.014,0.989-0.117,1.96-0.373,2.426l-.282,.28c-0.371,0.366-0.409,0.951-0.093,1.364 0.201,0.264 0.508,0.404 0.819,0.404 0.18,0 0.359-0.046 0.521-0.142 0.245-0.143 0.459-0.34 0.641-0.588l1.243-1.229c0.024,0.019 0.05,0.037 0.074,0.056l-1.573,2.456c-0.238,0.264-0.41,0.552-0.514,0.857-0.163,0.495 0.064,1.035 0.535,1.259 0.144,0.069 0.295,0.101 0.446,0.101 0.342,0 0.674-0.17 0.869-0.475l.287-.447c0.732-0.657 2.776-1.167 4.443-1.417 1.279,0.389 2.635,0.601 4.04,0.601 7.698,0 13.961-6.262 13.961-13.96 0-0.965-0.098-1.909-0.287-2.82 0.482-0.36 0.822-0.902 0.853-1.541 0,0 0.028-0.621-0.059-1.51 0.149-1.781 0.984-4.256 1.304-5.083 0.145-0.376 0.174-0.778 0.097-1.159l2.108-1.58 2.18,1.618c-0.069,0.369-0.04,0.757 0.101,1.122 0.319,0.824 1.154,3.292 1.304,5.082-0.087,0.889-0.059,1.51-0.059,1.51 0.03,0.639 0.369,1.18 0.851,1.541-0.188,0.911-0.285,1.854-0.285,2.82 0,7.698 6.263,13.96 13.961,13.96 1.404,0 2.761-0.212 4.04-0.601 0.026,0.004 0.053,0.009 0.08,0.014l-.116,.097c-0.438,0.365-0.496,1.017-0.132,1.455 0.205,0.245 0.496,0.372 0.794,0.372 0.233,0 0.468-0.078 0.662-0.239l1.345-1.12c0.783,0.238 1.456,0.52 1.811,0.839l.287,.447c0.195,0.305 0.528,0.475 0.869,0.475 0.015,0 0.028-0.001 0.04,0 0.572,0 1.033-0.462 1.033-1.033 0-0.249-0.086-0.477-0.234-0.656-0.096-0.185-0.219-0.361-0.371-0.529l-1.005-1.567 .25-.208 .497,.492c0.184,0.248 0.398,0.446 0.642,0.588 0.163,0.096 0.343,0.142 0.522,0.142 0.312,0 0.618-0.141 0.819-0.404 0.317-0.413 0.278-0.998-0.093-1.364l-.282-.28c-0.1-0.18-0.172-0.44-0.23-0.741 0.422-0.369 0.477-1.005 0.117-1.437-0.074-0.089-0.166-0.151-0.26-0.208 0-0.014 0-0.027 0-0.04 1.798-2.351 2.877-5.276 2.877-8.455zm-49.988,9.828c-5.418,0-9.827-4.409-9.827-9.828 0-5.418 4.409-9.828 9.827-9.828 5.419,0 9.829,4.41 9.829,9.828-3.55271e-15,5.419-4.41,9.828-9.829,9.828zm16.268-26.13c-3.55271e-15-0.982 0.798-1.78 1.779-1.78 0.985,0 1.782,0.797 1.782,1.78 0,0.984-0.797,1.781-1.782,1.781-0.982,0-1.779-0.797-1.779-1.781zm9.931,16.302c0-5.418 4.41-9.828 9.829-9.828 5.418,0 9.827,4.41 9.827,9.828 0,5.419-4.409,9.828-9.827,9.828-5.419,0-9.829-4.409-9.829-9.828z"/>
      <path d="m57.55,34.344c0-4.152-3.104-7.529-6.924-7.529-0.57,0-1.032,0.462-1.032,1.033 0,0.572 0.462,1.033 1.032,1.033 2.679,0 4.857,2.451 4.857,5.463 0,0.571 0.463,1.033 1.034,1.033 0.571,0 1.033-0.462 1.033-1.033z"/>
    </g>
  </g>
</svg>
