<?xml version='1.0' encoding='utf-8'?>
<!DOCTYPE svg PUBLIC '-//W3C//DTD SVG 1.1//EN' 'http://www.w3.org/Graphics/SVG/1.1/DTD/svg11.dtd'>
<svg width="64" version="1.1" xmlns="http://www.w3.org/2000/svg" height="64" viewBox="0 0 64 64" xmlns:xlink="http://www.w3.org/1999/xlink" enable-background="new 0 0 64 64">
  <g>
    <path fill="#1D1D1B" d="m51.311,11.226c-0.361-0.687-1.072-1.053-1.799-1.042-0.82-0.019-1.607,0.455-1.918,1.268l-2.954,7.805c-0.389,1.031 0.131,2.182 1.162,2.572 0.231,0.089 0.47,0.131 0.705,0.131 0.806,0 1.565-0.492 1.867-1.29l1.424-3.765 4.174,7.899c-1.403-0.456-2.896-0.709-4.448-0.709-6.075,0-11.276,3.782-13.398,9.111-3.826-1.538-6.821-0.694-8.326-0.007-2.124-5.325-7.323-9.104-13.397-9.104-1.583,0-3.101,0.265-4.525,0.737l4.188-7.928 1.425,3.765c0.302,0.797 1.062,1.29 1.867,1.29 0.234,0 0.473-0.042 0.705-0.131 1.03-0.39 1.55-1.541 1.161-2.572l-2.954-7.805c-0.308-0.812-1.093-1.286-1.913-1.268-0.729-0.013-1.44,0.354-1.804,1.042l-10.412,19.709c-0.008,0.016-0.006,0.032-0.014,0.047-1.354,2.198-2.151,4.774-2.151,7.541 0,7.955 6.471,14.426 14.426,14.426 7.956,0 14.427-6.471 14.427-14.426 0-0.452-0.027-0.898-0.068-1.341 0.106-0.05 0.216-0.088 0.315-0.159 0.025-0.015 2.421-1.622 6.094,0.114-0.043,0.457-0.07,0.919-0.07,1.386 0,7.955 6.471,14.426 14.425,14.426 7.956,0 14.427-6.471 14.427-14.426 0-3.006-0.927-5.8-2.507-8.114l-10.134-19.182zm-36.91,37.731c-5.755,7.10543e-15-10.436-4.682-10.436-10.436s4.681-10.435 10.436-10.435c5.754,0 10.436,4.681 10.436,10.435s-4.682,10.436-10.436,10.436zm35.122,0c-5.754,0-10.435-4.682-10.435-10.436s4.681-10.435 10.435-10.435c3.539,0 6.66,1.779 8.549,4.479l.122,.233c0.043,0.083 0.105,0.146 0.158,0.22 1.004,1.602 1.607,3.478 1.607,5.502 0.001,5.755-4.682,10.437-10.436,10.437z"/>
  </g>
</svg>
