<?xml version='1.0' encoding='utf-8'?>
<!DOCTYPE svg PUBLIC '-//W3C//DTD SVG 1.1//EN' 'http://www.w3.org/Graphics/SVG/1.1/DTD/svg11.dtd'>
<svg width="64" version="1.1" xmlns="http://www.w3.org/2000/svg" height="64" viewBox="0 0 64 64" xmlns:xlink="http://www.w3.org/1999/xlink" enable-background="new 0 0 64 64">
  <g>
    <path fill="#1D1D1B" d="m2.765,33.28c0.479,0 0.965-0.172 1.351-0.521l6.257-5.673v28.762c0,3.331 2.709,6.041 6.041,6.041h32.223c3.331,0 6.041-2.71 6.041-6.041v-28.545l5.95,5.45c0.386,0.354 0.873,0.527 1.357,0.527 0.547,0 1.09-0.219 1.487-0.651 0.751-0.822 0.693-2.096-0.126-2.847l-29.46-26.987c-0.08-0.07-0.178-0.1-0.261-0.155-0.114-0.078-0.223-0.159-0.346-0.208-0.122-0.051-0.246-0.066-0.373-0.093-0.126-0.024-0.249-0.057-0.377-0.057-0.13,0-0.251,0.032-0.378,0.056s-0.251,0.039-0.373,0.09c-0.124,0.047-0.228,0.129-0.34,0.202-0.089,0.058-0.188,0.085-0.267,0.159l-29.763,26.987c-0.822,0.747-0.886,2.021-0.14,2.845 0.399,0.437 0.946,0.659 1.497,0.659zm34.792,24.58h-10.066v-16.214c0-1.111 0.903-2.015 2.014-2.015h6.038c1.111,0 2.014,0.903 2.014,2.015v16.214zm13.091-33.944v31.932c0,1.109-0.904,2.013-2.013,2.013h-7.051v-16.215c0-3.332-2.711-6.042-6.042-6.042h-6.038c-3.332,0-6.04,2.71-6.04,6.042v16.214h-7.052c-1.109,0-2.015-0.903-2.015-2.013v-31.931c0-0.146-0.052-0.271-0.081-0.407l18.2-16.502 18.184,16.654c-0.012,0.086-0.052,0.164-0.052,0.255z"/>
  </g>
</svg>
