<?xml version='1.0' encoding='utf-8'?>
<!DOCTYPE svg PUBLIC '-//W3C//DTD SVG 1.1//EN' 'http://www.w3.org/Graphics/SVG/1.1/DTD/svg11.dtd'>
<svg width="64" version="1.1" xmlns="http://www.w3.org/2000/svg" height="64" viewBox="0 0 64 64" xmlns:xlink="http://www.w3.org/1999/xlink" enable-background="new 0 0 64 64">
  <g>
    <g fill="#1D1D1B">
      <path d="m12.235,47.126h39.002c3.319,0 6.019-2.696 6.019-6.01v-23.267c0-3.313-2.699-6.009-6.019-6.009h-39.002c-3.318,0-6.019,2.696-6.019,6.009v23.267c0.001,3.314 2.701,6.01 6.019,6.01zm-2.006-29.277c0-1.105 0.899-2.003 2.006-2.003h39.002c1.106,0 2.006,0.898 2.006,2.003v23.267c0,1.105-0.899,2.003-2.006,2.003h-39.002c-1.106,0-2.006-0.898-2.006-2.003v-23.267z"/>
      <path d="M0,50.735v6.632C0,61.024,3.271,64,7.288,64H56.71c4.02,0,7.29-2.976,7.29-6.633v-6.632H0z M59.987,57.367    c0,1.449-1.472,2.627-3.277,2.627H7.288c-1.806,0-3.275-1.178-3.275-2.627v-2.625h55.975V57.367z"/>
    </g>
  </g>
</svg>
