<?xml version='1.0' encoding='utf-8'?>
<!DOCTYPE svg PUBLIC '-//W3C//DTD SVG 1.1//EN' 'http://www.w3.org/Graphics/SVG/1.1/DTD/svg11.dtd'>
<svg width="64" version="1.1" xmlns="http://www.w3.org/2000/svg" height="64" viewBox="0 0 64 64" xmlns:xlink="http://www.w3.org/1999/xlink" enable-background="new 0 0 64 64">
  <g>
    <path fill="#1D1D1B" d="m61.642,.026l-39.968,6.723c-11.289,1.698-18.263,5.505-20.722,11.317-2.756,6.514 1.218,12.944 2.501,14.758 1.324,1.874 2.56,3.056 2.642,3.133l2.683,2.452c-9.021,12.622-7.457,23.193-7.338,23.903 0.168,0.991 1.025,1.688 1.994,1.688 0.108,0 0.221-0.01 0.334-0.028 1.1-0.183 1.844-1.228 1.666-2.334-0.103-0.642-1.438-10.301 7.404-21.929 0.067-0.056 0.146-0.085 0.206-0.151 0.128-0.141 0.2-0.31 0.281-0.473 5.476-6.953 14.61-14.555 29.834-21.329 1.022-0.455 1.483-1.655 1.03-2.684-0.453-1.025-1.647-1.497-2.671-1.036-14.876,6.619-24.287,14.096-30.24,21.158l-2.428-2.22c-0.011-0.008-1.017-0.978-2.096-2.508-0.978-1.381-4.012-6.239-2.078-10.808 1.847-4.359 7.93-7.433 17.632-8.892l37.413-6.293c-0.836,6.877-4.553,26.267-20.494,38.393-0.072,0.052-0.146,0.118-0.208,0.181-0.344,0.342-8.627,8.312-20.186-1.5-0.854-0.729-2.134-0.616-2.853,0.24-0.721,0.858-0.614,2.142 0.24,2.867 5.201,4.419 9.966,5.836 13.941,5.836 6.416,0 10.775-3.698 11.587-4.441 20.986-16.023 22.209-42.806 22.25-43.94 0.023-0.612-0.229-1.2-0.686-1.604-0.457-0.405-1.072-0.574-1.67-0.479z"/>
  </g>
</svg>
