<?xml version='1.0' encoding='utf-8'?>
<!DOCTYPE svg PUBLIC '-//W3C//DTD SVG 1.1//EN' 'http://www.w3.org/Graphics/SVG/1.1/DTD/svg11.dtd'>
<svg width="64" version="1.1" xmlns="http://www.w3.org/2000/svg" height="64" viewBox="0 0 64 64" xmlns:xlink="http://www.w3.org/1999/xlink" enable-background="new 0 0 64 64">
  <g>
    <g fill="#1D1D1B">
      <path d="m13.945,.008h-7.945c-3.309,0-6,2.691-6,6v7.941c0,3.309 2.691,6 6,6h7.945c3.309,0 6-2.691 6-6v-7.941c0-3.309-2.691-6-6-6zm2,13.941c0,1.103-0.898,2-2,2h-7.945c-1.102,0-2-0.897-2-2v-7.941c0-1.103 0.898-2 2-2h7.945c1.102,0 2,0.897 2,2v7.941z"/>
      <path d="M58,0H28.018c-3.309,0-6,2.691-6,6v7.943c0,3.309,2.691,6,6,6H58c3.309,0,6-2.691,6-6V6    C64,2.691,61.309,0,58,0z M60,13.943c0,1.103-0.896,2-2,2H28.018c-1.104,0-2-0.897-2-2V6c0-1.103,0.896-2,2-2H58    c1.104,0,2,0.897,2,2V13.943z"/>
      <path d="m13.945,22.037h-7.945c-3.309,0-6,2.691-6,6v7.941c0,3.309 2.691,6 6,6h7.945c3.309,0 6-2.691 6-6v-7.941c0-3.308-2.691-6-6-6zm2,13.942c0,1.103-0.898,2-2,2h-7.945c-1.102,0-2-0.897-2-2v-7.941c0-1.103 0.898-2 2-2h7.945c1.102,0 2,0.897 2,2v7.941z"/>
      <path d="m58,22.029h-29.982c-3.309,0-6,2.691-6,6v7.943c0,3.309 2.691,6 6,6h29.982c3.309,0 6-2.691 6-6v-7.943c0-3.308-2.691-6-6-6zm2,13.944c0,1.103-0.896,2-2,2h-29.982c-1.104,0-2-0.897-2-2v-7.943c0-1.103 0.896-2 2-2h29.982c1.104,0 2,0.897 2,2v7.943z"/>
      <path d="m13.945,44.057h-7.945c-3.309,0-6,2.691-6,6v7.943c0,3.309 2.691,6 6,6h7.945c3.309,0 6-2.691 6-6v-7.943c0-3.309-2.691-6-6-6zm2,13.943c0,1.103-0.898,2-2,2h-7.945c-1.102,0-2-0.897-2-2v-7.943c0-1.103 0.898-2 2-2h7.945c1.102,0 2,0.897 2,2v7.943z"/>
      <path d="m58,44.049h-29.982c-3.309,0-6,2.691-6,6v7.943c0,3.309 2.691,6 6,6h29.982c3.309,0 6-2.691 6-6v-7.943c0-3.309-2.691-6-6-6zm2,13.943c0,1.103-0.896,2-2,2h-29.982c-1.104,0-2-0.897-2-2v-7.943c0-1.103 0.896-2 2-2h29.982c1.104,0 2,0.897 2,2v7.943z"/>
    </g>
  </g>
</svg>
