<?xml version='1.0' encoding='utf-8'?>
<!DOCTYPE svg PUBLIC '-//W3C//DTD SVG 1.1//EN' 'http://www.w3.org/Graphics/SVG/1.1/DTD/svg11.dtd'>
<svg width="64" version="1.1" xmlns="http://www.w3.org/2000/svg" height="64" viewBox="0 0 64 64" xmlns:xlink="http://www.w3.org/1999/xlink" enable-background="new 0 0 64 64">
  <g>
    <path fill="#1D1D1B" d="m63.47,2.352c-0.576-0.623-1.486-0.812-2.264-0.477l-60.001,26.024c-0.871,0.377-1.355,1.311-1.164,2.24 0.193,0.928 1.01,1.592 1.957,1.594l28.068,.029v28.279c0,0.918 0.625,1.719 1.516,1.941 0.162,0.039 0.324,0.059 0.484,0.059 0.727,0 1.415-0.396 1.767-1.061l29.934-56.333c0.398-0.75 0.279-1.67-0.297-2.295zm-29.403,49.664v-22.252c0-1.104-0.895-1.998-1.999-2l-20.453-.021 45.937-19.924-23.485,44.197z"/>
  </g>
</svg>
