<?xml version='1.0' encoding='utf-8'?>
<!DOCTYPE svg PUBLIC '-//W3C//DTD SVG 1.1//EN' 'http://www.w3.org/Graphics/SVG/1.1/DTD/svg11.dtd'>
<svg width="64" version="1.1" xmlns="http://www.w3.org/2000/svg" height="64" viewBox="0 0 64 64" xmlns:xlink="http://www.w3.org/1999/xlink" enable-background="new 0 0 64 64">
  <g>
    <path fill="#1D1D1B" d="m61.477,.062l-19.245,5.213-19.246-5.213c-0.121-0.031-0.242-0.004-0.365-0.012-0.098-0.021-0.193-0.004-0.293-0.012-0.098,0.008-0.195-0.01-0.293,0.012-0.121,0.01-0.244-0.02-0.363,0.012l-19.768,5.355c-0.871,0.236-1.477,1.027-1.477,1.93v54.653c0,0.627 0.295,1.219 0.797,1.598 0.35,0.263 0.774,0.402 1.204,0.402 0.184,0 0.369-0.025 0.551-0.078l19.35-5.539 19.354,5.539c0.18,0.053 0.366,0.078 0.549,0.078s0.369-0.025 0.551-0.078l19.768-5.658c0.857-0.244 1.449-1.029 1.449-1.922v-54.35c0-0.623-0.291-1.209-0.785-1.588s-1.141-0.502-1.738-0.342zm-41.282,54.773l-15.767,4.513v-50.47l15.768-4.273v50.23zm4.267-50.23l15.77,4.273v50.47l-15.77-4.513v-50.23zm35.537,50.23l-15.768,4.513v-50.47l15.768-4.273v50.23z"/>
  </g>
</svg>
