<?xml version='1.0' encoding='utf-8'?>
<!DOCTYPE svg PUBLIC '-//W3C//DTD SVG 1.1//EN' 'http://www.w3.org/Graphics/SVG/1.1/DTD/svg11.dtd'>
<svg width="64" version="1.1" xmlns="http://www.w3.org/2000/svg" height="64" viewBox="0 0 64 64" xmlns:xlink="http://www.w3.org/1999/xlink" enable-background="new 0 0 64 64">
  <g>
    <path fill="#1D1D1B" d="m63.065,6.307c-0.581-0.364-1.311-0.408-1.93-0.113-16.617,7.899-38.423,8.514-44.714,8.514-0.838,0-1.301-0.012-1.316-0.014-0.557-0.018-1.063,0.188-1.45,0.563-0.349,0.338-0.536,0.797-0.573,1.277h-7.08c-3.311,0.001-6.002,2.68-6.002,5.974v8.601c0,3.293 2.691,5.973 6.002,5.973h7.07c0.025,0.497 0.223,0.974 0.583,1.323 0.272,0.263 0.617,0.399 0.982,0.479 0.045,5.991 1.261,12.229 3.797,19.442 0.28,0.799 1.037,1.333 1.887,1.333h10.338c0.679,0 1.312-0.343 1.681-0.911 0.367-0.568 0.422-1.283 0.141-1.9-1.399-3.083-4.573-11.646-4.103-17.328 9.452,0.84 22.153,2.908 32.758,7.949 0.273,0.131 0.569,0.195 0.863,0.195 0.372,0 0.743-0.104 1.066-0.308 0.581-0.364 0.935-0.999 0.935-1.683v-37.682c0-0.685-0.354-1.321-0.935-1.684zm-59.064,24.802v-8.601c2.66454e-15-1.099 0.896-1.991 2.001-1.991h7.048v12.583h-7.048c-1.105,0-2.001-0.892-2.001-1.991zm23.68,24.569h-5.928c-2.057-6.173-3.062-11.557-3.117-16.697 1.555,0.031 3.494,0.1 5.749,0.238-0.442,5.602 1.83,12.621 3.296,16.459zm32.318-13.076c-16.372-6.828-36.13-7.585-42.948-7.625v-16.289c6.818-0.041 26.576-0.797 42.948-7.625v31.539z"/>
  </g>
</svg>
