<?xml version='1.0' encoding='utf-8'?>
<!DOCTYPE svg PUBLIC '-//W3C//DTD SVG 1.1//EN' 'http://www.w3.org/Graphics/SVG/1.1/DTD/svg11.dtd'>
<svg width="64" version="1.1" xmlns="http://www.w3.org/2000/svg" height="64" viewBox="0 0 64 64" xmlns:xlink="http://www.w3.org/1999/xlink" enable-background="new 0 0 64 64">
  <g>
    <g fill="#1D1D1B">
      <path d="m43.18,37.155v-25.458c0-6.236-5.074-11.311-11.311-11.311-6.237,0-11.312,5.074-11.312,11.311v25.458c0,6.237 5.074,11.312 11.312,11.312 6.236,0 11.311-5.074 11.311-11.312zm-18.598,0v-25.458c0-4.018 3.27-7.287 7.287-7.287 4.016,0 7.285,3.27 7.285,7.287v25.458c0,4.018-3.27,7.286-7.285,7.286-4.017,0-7.287-3.268-7.287-7.286z"/>
      <path d="m31.869,64c1.111,0 2.011-0.9 2.011-2.012v-6.468c11.677-1.024 20.87-10.842 20.87-22.779 0-1.112-0.9-2.014-2.013-2.014s-2.013,0.901-2.013,2.014c0,10.397-8.457,18.855-18.855,18.855-10.399,0-18.857-8.458-18.857-18.855 0-1.112-0.9-2.014-2.012-2.014-1.113,0-2.014,0.901-2.014,2.014 0,11.938 9.192,21.755 20.87,22.779v6.469c-3.55271e-15,1.111 0.901,2.011 2.013,2.011z"/>
    </g>
  </g>
</svg>
