<?xml version='1.0' encoding='utf-8'?>
<!DOCTYPE svg PUBLIC '-//W3C//DTD SVG 1.1//EN' 'http://www.w3.org/Graphics/SVG/1.1/DTD/svg11.dtd'>
<svg width="64" version="1.1" xmlns="http://www.w3.org/2000/svg" height="64" viewBox="0 0 64 64" xmlns:xlink="http://www.w3.org/1999/xlink" enable-background="new 0 0 64 64">
  <g>
    <path fill="#1D1D1B" d="m58.002,6.741h-52.004c-3.307,0-5.998,2.691-5.998,6v31.974c0,3.309 2.691,6 5.998,6h16.383l-4.088,10.563c-0.238,0.615-0.158,1.309 0.215,1.854 0.373,0.543 0.99,0.869 1.65,0.869h23.621c0.656,0 1.271-0.322 1.645-0.863 0.375-0.539 0.459-1.229 0.227-1.844l-3.996-10.579h16.348c3.307,0 5.998-2.691 5.998-6v-31.974c-0.001-3.308-2.692-6-5.999-6zm-17.115,53.259h-17.811l3.592-9.286h10.712l3.507,9.286zm19.113-15.286c0,1.104-0.896,2-1.998,2h-52.004c-1.102,0-1.998-0.896-1.998-2v-31.973c0-1.103 0.896-2 1.998-2h52.004c1.102,0 1.998,0.896 1.998,2v31.973z"/>
  </g>
</svg>
