<?xml version='1.0' encoding='utf-8'?>
<!DOCTYPE svg PUBLIC '-//W3C//DTD SVG 1.1//EN' 'http://www.w3.org/Graphics/SVG/1.1/DTD/svg11.dtd'>
<svg width="64" version="1.1" xmlns="http://www.w3.org/2000/svg" height="64" viewBox="0 0 64 64" xmlns:xlink="http://www.w3.org/1999/xlink" enable-background="new 0 0 64 64">
  <g>
    <path fill="#1D1D1B" d="m11.915,59.858c6.677,0 11.907-3.572 11.907-8.133v-28.663l36.178-3.474v21.175c-2.09-1.256-4.844-2.016-7.91-2.016-6.68,0-11.912,3.572-11.912,8.133 0,4.562 5.232,8.135 11.912,8.135s11.91-3.573 11.91-8.135c0-0.113-0.018-0.221-0.022-0.332 0.001-0.043 0.022-0.076 0.022-0.119v-38.871c0-0.032-0.018-0.061-0.02-0.094 0-0.032 0.014-0.063 0.011-0.098-0.011-0.111-0.065-0.203-0.094-0.309-0.031-0.121-0.05-0.24-0.103-0.352-0.07-0.149-0.17-0.273-0.272-0.399-0.054-0.065-0.094-0.138-0.156-0.194-0.136-0.133-0.295-0.227-0.466-0.316-0.057-0.029-0.107-0.066-0.168-0.09-0.158-0.062-0.326-0.084-0.502-0.102-0.078-0.01-0.148-0.047-0.23-0.047-0.031,0-0.059,0.018-0.092,0.018-0.033,0.004-0.064-0.012-0.1-0.008l-40.177,3.86c-1.1,0.105-1.903,1.083-1.799,2.182 0.006,0.068 0.041,0.123 0.055,0.189-0.021,0.107-0.064,0.205-0.064,0.316v33.492c-2.09-1.256-4.842-2.016-7.907-2.016-6.682,0.001-11.916,3.573-11.916,8.136 0,4.56 5.234,8.132 11.915,8.132zm11.907-40.814v-5.811l36.178-3.473v5.81l-36.178,3.474zm28.268,31.971c-4.664,0-7.912-2.18-7.912-4.135s3.248-4.133 7.912-4.133c4.66,0 7.91,2.178 7.91,4.133s-3.25,4.135-7.91,4.135zm-40.175-3.424c4.659,0 7.907,2.18 7.907,4.135 0,1.951-3.381,4.133-7.907,4.133-4.53-0.001-7.915-2.182-7.915-4.133 0-1.955 3.25-4.135 7.915-4.135z"/>
  </g>
</svg>
