<?xml version='1.0' encoding='utf-8'?>
<!DOCTYPE svg PUBLIC '-//W3C//DTD SVG 1.1//EN' 'http://www.w3.org/Graphics/SVG/1.1/DTD/svg11.dtd'>
<svg width="64" version="1.1" xmlns="http://www.w3.org/2000/svg" height="64" viewBox="0 0 64 64" xmlns:xlink="http://www.w3.org/1999/xlink" enable-background="new 0 0 64 64">
  <g>
    <path fill="#1D1D1B" d="m63.992,7.425c-0.012-0.111-0.066-0.203-0.094-0.309-0.031-0.121-0.051-0.24-0.104-0.352-0.07-0.15-0.17-0.275-0.273-0.404-0.053-0.062-0.092-0.133-0.154-0.189-0.137-0.135-0.299-0.23-0.471-0.318-0.057-0.029-0.104-0.064-0.162-0.088-0.158-0.062-0.328-0.084-0.504-0.102-0.078-0.01-0.148-0.047-0.23-0.047-0.031,0-0.059,0.018-0.092,0.018-0.033,0.004-0.064-0.012-0.1-0.008l-40.177,3.859c-1.1,0.105-1.904,1.082-1.799,2.182 0.006,0.068 0.041,0.123 0.055,0.189-0.02,0.107-0.064,0.205-0.064,0.316v33.492c-2.09-1.256-4.842-2.016-7.908-2.016-6.681,0.001-11.915,3.574-11.915,8.136 0,4.561 5.234,8.133 11.914,8.133 6.678,0 11.908-3.572 11.908-8.133v-38.492l36.178-3.475v31.004c-2.09-1.256-4.844-2.016-7.91-2.016-6.68,0-11.912,3.572-11.912,8.133 0,4.562 5.232,8.135 11.912,8.135s11.91-3.572 11.91-8.135c0-0.113-0.018-0.221-0.023-0.332 0.002-0.043 0.023-0.076 0.023-0.119v-38.871c0-0.033-0.018-0.061-0.02-0.094 0-0.033 0.014-0.064 0.012-0.097zm-52.078,48.492c-4.529,0-7.914-2.182-7.914-4.133 0-1.955 3.25-4.135 7.914-4.135 4.66,0 7.908,2.18 7.908,4.135 0,1.951-3.381,4.133-7.908,4.133zm40.176-4.844c-4.664,0-7.912-2.18-7.912-4.135s3.248-4.133 7.912-4.133c4.66,0 7.91,2.178 7.91,4.133s-3.25,4.135-7.91,4.135z"/>
  </g>
</svg>
