<?xml version='1.0' encoding='utf-8'?>
<!DOCTYPE svg PUBLIC '-//W3C//DTD SVG 1.1//EN' 'http://www.w3.org/Graphics/SVG/1.1/DTD/svg11.dtd'>
<svg width="64" version="1.1" xmlns="http://www.w3.org/2000/svg" height="64" viewBox="0 0 64 64" xmlns:xlink="http://www.w3.org/1999/xlink" enable-background="new 0 0 64 64">
  <g>
    <path fill="#1D1D1B" d="m16.494,41.848c5.545,0 10.07-2.236 10.261-2.332 0.066-0.033 0.129-0.07 0.191-0.11 2.816-1.826 4.294-4.003 4.972-6.099 0.676,2.097 2.154,4.273 4.971,6.099 0.062,0.04 0.125,0.077 0.191,0.11 0.189,0.095 4.715,2.332 10.261,2.332 0,0 0,0 0.002,0 5.094,0 12.055-1.909 16.304-11.002 0.375-0.803 0.179-1.756-0.481-2.345-0.664-0.591-1.635-0.676-2.385-0.212-0.018,0.011-1.815,1.065-4.72,1.065-3.148,0-6.332-1.222-9.363-3.551-0.432-0.378-4.32-3.692-8.318-3.692-2.723,0-4.908,1.542-6.136,4.302-0.115,0.247-0.223,0.532-0.323,0.834-0.096-0.288-0.199-0.559-0.309-0.793-1.248-2.801-3.434-4.343-6.155-4.343-3.998,0-7.89,3.314-8.22,3.61-3.132,2.412-6.315,3.634-9.463,3.634-2.88,0-4.715-1.063-4.719-1.065-0.748-0.464-1.722-0.379-2.385,0.21-0.66,0.589-0.856,1.542-0.482,2.345 4.25,9.094 11.212,11.003 16.306,11.003zm19.396-13.765c0.773-1.739 1.737-1.962 2.489-1.962 2.114,0 4.812,1.948 5.771,2.778 3.852,2.964 7.858,4.466 11.911,4.466 0.465,0 0.911-0.02 1.334-0.056-2.567,3.009-5.932,4.529-10.054,4.529-4.183,0-7.773-1.584-8.375-1.864-4.952-3.283-3.294-7.406-3.076-7.891zm-28.117,5.281c4.054,0 8.061-1.503 12.006-4.546 0.861-0.75 3.561-2.698 5.677-2.698 0.752,0 1.716,0.224 2.501,1.985 0.205,0.463 1.862,4.587-3.09,7.869-0.605,0.285-4.159,1.863-8.373,1.863-4.123,0-7.486-1.52-10.054-4.529 0.423,0.036 0.87,0.056 1.333,0.056z"/>
  </g>
</svg>
