<?xml version='1.0' encoding='utf-8'?>
<!DOCTYPE svg PUBLIC '-//W3C//DTD SVG 1.1//EN' 'http://www.w3.org/Graphics/SVG/1.1/DTD/svg11.dtd'>
<svg width="64" version="1.1" xmlns="http://www.w3.org/2000/svg" height="64" viewBox="0 0 64 64" xmlns:xlink="http://www.w3.org/1999/xlink" enable-background="new 0 0 64 64">
  <g>
    <g fill="#1D1D1B">
      <path d="m50.559,8.143c-4.158-4.668-10.428-7.035-18.701-7.035-8.213,0-14.473,2.368-18.602,7.037-6.288,7.11-5.17,16.856-5.126,17.216 1.569,16.332 16.496,33.339 21.602,38.008 0.365,0.335 0.842,0.52 1.338,0.52h1.332c0.516,0 1.012-0.201 1.382-0.562 13.132-12.769 20.74-25.891 22.002-37.927 0.048-0.411 1.099-10.152-5.227-17.257zm1.285,16.821c-1.144,10.913-8.097,22.941-20.12,34.829-4.727-4.622-18.246-20.247-19.649-34.86-0.01-0.083-0.933-8.437 4.175-14.185 3.345-3.765 8.596-5.673 15.67-5.673 7.014,0 12.281,1.911 15.654,5.681 5.147,5.753 4.281,14.107 4.27,14.208z"/>
      <path d="m32.042,15.174c-5.513,0-9.999,4.484-9.999,9.997 0,5.513 4.485,9.999 9.999,9.999s9.999-4.485 9.999-9.999c-0.001-5.513-4.486-9.997-9.999-9.997zm0,16.029c-3.327,0-6.032-2.705-6.032-6.032 0-3.325 2.706-6.031 6.032-6.031 3.326,0 6.032,2.706 6.032,6.031 0,3.327-2.706,6.032-6.032,6.032z"/>
    </g>
  </g>
</svg>
