<?xml version='1.0' encoding='utf-8'?>
<!DOCTYPE svg PUBLIC '-//W3C//DTD SVG 1.1//EN' 'http://www.w3.org/Graphics/SVG/1.1/DTD/svg11.dtd'>
<svg width="64" version="1.1" xmlns="http://www.w3.org/2000/svg" height="64" viewBox="0 0 64 64" xmlns:xlink="http://www.w3.org/1999/xlink" enable-background="new 0 0 64 64">
  <g>
    <path fill="#1D1D1B" d="m15.214,23.806c-0.871-0.871-2.285-0.872-3.156,0l-5.948,5.948c-0.873,0.871-0.871,2.285 0,3.156l7.805,7.805c-0.051,0.061-0.119,0.096-0.166,0.16l-13.38,19.528c-0.565,0.827-0.476,1.884 0.117,2.632 0.003,0.007 0.004,0.012 0.006,0.016 0.01,0.013 0.021,0.023 0.028,0.035 0.043,0.049 0.063,0.108 0.109,0.154 0.022,0.022 0.049,0.039 0.071,0.059 0.021,0.023 0.037,0.049 0.059,0.071 0.047,0.047 0.106,0.066 0.155,0.11 0.011,0.008 0.021,0.018 0.033,0.027 0.005,0.002 0.01,0.003 0.017,0.006 0.748,0.594 1.805,0.683 2.632,0.117l19.528-13.379c0.065-0.046 0.101-0.115 0.16-0.166l7.46,7.459c0.87,0.871 2.285,0.873 3.156,0l5.948-5.947c0.873-0.872 0.872-2.285 0-3.156l-1.629-1.629 16.931-16.932 7.288-.664c0.861-0.078 1.601-0.65 1.896-1.463 0.294-0.814 0.092-1.726-0.521-2.34l-25.105-25.102c-0.61-0.612-1.522-0.814-2.337-0.52-0.814,0.293-1.383,1.033-1.461,1.896l-.62,6.807-17.193,17.194-1.883-1.882zm-4.682,29.663l6.561-9.576 3.015,3.016-9.576,6.56zm46.758-28.266l-2.08,.189c-0.799-0.308-1.736-0.146-2.381,0.498l-19.343,19.344c-0.873,0.872-0.872,2.285 0,3.156l1.628,1.629-2.791,2.791-21.478-21.478 2.791-2.792 1.883,1.882c0.87,0.871 2.282,0.873 3.156,0l19.342-19.343c0.076-0.075 0.107-0.173 0.17-0.257 0.094-0.121 0.187-0.239 0.254-0.379 0.069-0.15 0.103-0.303 0.137-0.459 0.021-0.097 0.075-0.178 0.084-0.28l.261-2.868 18.367,18.367z"/>
  </g>
</svg>
