<?xml version='1.0' encoding='utf-8'?>
<!DOCTYPE svg PUBLIC '-//W3C//DTD SVG 1.1//EN' 'http://www.w3.org/Graphics/SVG/1.1/DTD/svg11.dtd'>
<svg width="64" version="1.1" xmlns="http://www.w3.org/2000/svg" height="64" viewBox="0 0 64 64" xmlns:xlink="http://www.w3.org/1999/xlink" enable-background="new 0 0 64 64">
  <g>
    <g fill="#1D1D1B">
      <path d="m28.618,52.79v-15.401c0-0.262-0.053-0.521-0.155-0.767-0.203-0.491-0.594-0.884-1.086-1.086-0.245-0.103-0.506-0.155-0.767-0.155h-15.401c-1.111,0-2.008,0.899-2.008,2.008 0,1.109 0.896,2.008 2.008,2.008h10.555l-21.239,21.238c-0.783,0.785-0.783,2.056 1.44329e-15,2.84 0.393,0.393 0.906,0.588 1.42,0.588s1.027-0.195 1.42-0.588l21.237-21.238v10.553c0,1.108 0.897,2.008 2.008,2.008s2.008-0.9 2.008-2.008z"/>
      <path d="m60.511,.651l-21.238,21.239v-10.554c0-1.109-0.898-2.008-2.008-2.008-1.11,0-2.008,0.898-2.008,2.008v15.4c0,0.262 0.053,0.521 0.154,0.768 0.204,0.49 0.595,0.882 1.086,1.086 0.246,0.102 0.507,0.154 0.768,0.154h15.401c1.11,0 2.008-0.898 2.008-2.008 0-1.108-0.897-2.008-2.008-2.008h-10.554l21.238-21.238c0.784-0.784 0.784-2.055 0-2.839s-2.056-0.784-2.839-2.22045e-16z"/>
    </g>
  </g>
</svg>
