<?xml version='1.0' encoding='utf-8'?>
<!DOCTYPE svg PUBLIC '-//W3C//DTD SVG 1.1//EN' 'http://www.w3.org/Graphics/SVG/1.1/DTD/svg11.dtd'>
<svg width="64" version="1.1" xmlns="http://www.w3.org/2000/svg" height="64" viewBox="0 0 64 64" xmlns:xlink="http://www.w3.org/1999/xlink" enable-background="new 0 0 64 64">
  <g>
    <g fill="#1D1D1B">
      <path d="m5.869,63.115c0.547,0.571 1.286,0.885 2.078,0.885 1.018,0 2.034-0.499 3.021-1.482l12.244-12.235c1.18-1.176 3.769-2.246 5.432-2.246h29.389c3.32,0 6.02-2.695 6.02-6.009v-32.102c0-3.314-2.699-6.01-6.02-6.01h-51.962c-3.32,0-6.02,2.695-6.02,6.01v32.102c0,3.362 2.061,5.998 4.628,5.998 0.009,0 0.013,0 0.021,0 0.193,0.094 0.642,0.779 0.593,1.926l-.417,9.896c-0.061,1.42 0.273,2.518 0.993,3.267zm-1.04-19.08c-0.006,0-0.014,0-0.021,0-0.21-0.08-0.744-0.795-0.744-2.008v-32.101c0-1.105 0.901-2.003 2.007-2.003h51.961c1.105,0 2.005,0.897 2.005,2.003v32.102c0,1.104-0.899,2.003-2.005,2.003h-29.388c-2.759,0-6.312,1.469-8.268,3.419l-11.444,11.433 .37-8.763c0.079-1.894-0.512-3.641-1.616-4.793-0.801-0.832-1.827-1.292-2.857-1.292z"/>
      <path d="m11.854,18.361h40.391c1.107,0 2.008-0.896 2.008-2.003s-0.9-2.003-2.008-2.003h-40.391c-1.105,0-2.006,0.896-2.006,2.003s0.901,2.003 2.006,2.003z"/>
      <path d="m11.854,28.377h40.391c1.107,0 2.008-0.895 2.008-2.002s-0.9-2.004-2.008-2.004h-40.391c-1.105,0-2.006,0.896-2.006,2.004s0.901,2.002 2.006,2.002z"/>
      <path d="m11.854,38.434h28.273c1.107,0 2.008-0.896 2.008-2.004s-0.9-2.004-2.008-2.004h-28.273c-1.105,0-2.006,0.896-2.006,2.004s0.901,2.004 2.006,2.004z"/>
    </g>
  </g>
</svg>
