<?xml version='1.0' encoding='utf-8'?>
<!DOCTYPE svg PUBLIC '-//W3C//DTD SVG 1.1//EN' 'http://www.w3.org/Graphics/SVG/1.1/DTD/svg11.dtd'>
<svg width="64" version="1.1" xmlns="http://www.w3.org/2000/svg" height="64" viewBox="0 0 64 64" xmlns:xlink="http://www.w3.org/1999/xlink" enable-background="new 0 0 64 64">
  <g>
    <path fill="#1D1D1B" d="m14.821,39.538l-3.571,20.362c-0.144,0.818 0.223,1.639 0.925,2.081 0.33,0.207 0.708,0.311 1.083,0.311 0.418,0 0.837-0.132 1.194-0.386l17.576-12.706 17.576,12.706c0.356,0.254 0.776,0.386 1.193,0.386 0.375,0 0.753-0.104 1.083-0.311 0.702-0.442 1.068-1.263 0.925-2.081l-3.571-20.362 14.21-12.525c0.594-0.523 0.83-1.339 0.609-2.099-0.224-0.758-0.863-1.321-1.644-1.442l-21.465-3.345-7.034-16.913c-0.02-0.045-0.058-0.073-0.079-0.114-0.096-0.197-0.208-0.387-0.367-0.541-0.143-0.144-0.317-0.241-0.492-0.335-0.059-0.032-0.098-0.084-0.159-0.107-0.004-0.002-0.004,0-0.006-0.002-0.245-0.102-0.51-0.153-0.778-0.153-0.271,0-0.533,0.052-0.78,0.153 0,0-0.002,0-0.004,0.002-0.052,0.02-0.084,0.063-0.131,0.087-0.188,0.098-0.373,0.204-0.523,0.355-0.155,0.154-0.265,0.342-0.362,0.537-0.022,0.043-0.062,0.071-0.082,0.118l-7.037,16.913-21.464,3.345c-0.78,0.121-1.42,0.685-1.644,1.442-0.221,0.76 0.016,1.575 0.609,2.099l14.21,12.525zm24.37-15.559l18.298,2.85-11.808,10.41c-0.531,0.468-0.78,1.18-0.659,1.878l2.903,16.546-14.703-10.63c-0.023-0.016-0.051-0.02-0.075-0.035-0.123-0.079-0.255-0.124-0.389-0.176-0.114-0.043-0.225-0.104-0.344-0.125-0.127-0.026-0.255-0.015-0.386-0.015v-35.381l5.595,13.448c0.271,0.652 0.866,1.12 1.568,1.23z"/>
  </g>
</svg>
