<?xml version='1.0' encoding='utf-8'?>
<!DOCTYPE svg PUBLIC '-//W3C//DTD SVG 1.1//EN' 'http://www.w3.org/Graphics/SVG/1.1/DTD/svg11.dtd'>
<svg width="64" version="1.1" xmlns="http://www.w3.org/2000/svg" height="64" viewBox="0 0 64 64" xmlns:xlink="http://www.w3.org/1999/xlink" enable-background="new 0 0 64 64">
  <g>
    <g fill="#1D1D1B">
      <path d="m31.963,17.177c-8.13,0-14.743,6.613-14.743,14.743 0,8.128 6.613,14.741 14.743,14.741 8.131,0 14.743-6.613 14.743-14.741 0-8.129-6.612-14.743-14.743-14.743zm0,25.467c-5.915,0-10.726-4.811-10.726-10.724 0-5.915 4.811-10.726 10.726-10.726s10.726,4.811 10.726,10.726c-0.001,5.913-4.811,10.724-10.726,10.724z"/>
      <path d="m31.963,14.15c1.111,0 2.01-0.898 2.01-2.009v-10.203c0-1.11-0.898-2.009-2.01-2.009-1.109-2.22045e-16-2.009,0.898-2.009,2.009v10.203c0,1.11 0.9,2.009 2.009,2.009z"/>
      <path d="m31.963,49.707c-1.109,0-2.009,0.898-2.009,2.009v10.204c0,1.11 0.899,2.009 2.009,2.009 1.111,0 2.01-0.898 2.01-2.009v-10.205c0-1.11-0.899-2.008-2.01-2.008z"/>
      <path d="m61.919,29.927h-10.204c-1.11,0-2.009,0.898-2.009,2.009s0.898,2.009 2.009,2.009h10.204c1.11,0 2.009-0.898 2.009-2.009s-0.899-2.009-2.009-2.009z"/>
      <path d="m14.146,31.936c0-1.11-0.898-2.009-2.009-2.009h-10.2c-1.109,0-2.008,0.898-2.008,2.009s0.898,2.009 2.008,2.009h10.2c1.11,0 2.009-0.899 2.009-2.009z"/>
      <path d="m47.285,18.622c0.514,0 1.028-0.196 1.421-0.589l5.219-5.219c0.784-0.784 0.784-2.056 0-2.84-0.785-0.785-2.057-0.785-2.842,0l-5.218,5.218c-0.785,0.785-0.785,2.056 0,2.841 0.393,0.392 0.906,0.589 1.42,0.589z"/>
      <path d="m15.221,45.835l-5.227,5.23c-0.784,0.784-0.784,2.058 0,2.84 0.393,0.392 0.906,0.588 1.421,0.588 0.514,0 1.027-0.196 1.42-0.588l5.227-5.23c0.784-0.785 0.784-2.058 0-2.841-0.786-0.784-2.057-0.784-2.841,0.001z"/>
      <path d="m15.209,18.035c0.393,0.393 0.906,0.589 1.42,0.589 0.515,0 1.028-0.196 1.421-0.589 0.784-0.785 0.784-2.056 0-2.841l-5.219-5.218c-0.785-0.785-2.057-0.785-2.841,0-0.784,0.784-0.784,2.056 0,2.84l5.219,5.219z"/>
      <path d="m48.694,45.837c-0.785-0.785-2.057-0.785-2.841,0-0.785,0.785-0.785,2.058 0,2.841l5.229,5.226c0.393,0.392 0.906,0.588 1.421,0.588 0.514,0 1.028-0.196 1.421-0.588 0.784-0.785 0.784-2.058 0-2.84l-5.23-5.227z"/>
    </g>
  </g>
</svg>
