<?xml version='1.0' encoding='utf-8'?>
<!DOCTYPE svg PUBLIC '-//W3C//DTD SVG 1.1//EN' 'http://www.w3.org/Graphics/SVG/1.1/DTD/svg11.dtd'>
<svg width="64" version="1.1" xmlns="http://www.w3.org/2000/svg" height="64" viewBox="0 0 64 64" xmlns:xlink="http://www.w3.org/1999/xlink" enable-background="new 0 0 64 64">
  <g>
    <path fill="#1D1D1B" d="m61.171,12.311c0.751-1.545 0.83-2.679 0.839-2.903 0.028-0.808-0.421-1.556-1.149-1.909-0.726-0.348-1.593-0.242-2.208,0.281-1.344,1.145-3.993,1.826-5.609,2.125-2.779-2.486-5.889-3.746-9.258-3.746-5.297,0-9.246,3.211-9.554,3.478-4.469,4.468-5.125,8.688-4.881,11.451-14.72-2.053-21.097-11.524-21.373-11.943-0.388-0.596-1.079-0.923-1.77-0.931-0.712,0.022-1.362,0.413-1.713,1.032-3.106,5.477-2.312,10.389-0.393,14.018-0.197,0.027-0.395,0.088-0.581,0.176-0.648,0.309-1.085,0.936-1.152,1.65-0.475,5.08 1.979,8.838 4.938,11.348-0.026,0.023-0.051,0.047-0.076,0.07-0.506,0.48-0.73,1.186-0.596,1.871 0.997,5.062 4.939,7.664 8.271,8.981-6.357,2.948-12.592,2.183-12.602,2.185-0.972-0.123-1.891,0.441-2.204,1.363s0.071,1.938 0.916,2.422c6.567,3.764 13.374,5.67 20.233,5.67 12.758,0 21.194-6.557 21.588-6.869 14.755-12.313 15.344-26.371 15.146-30.612 2.242-1.846 4.978-5.304 5.579-6.075 0.579-0.744 0.572-1.787-0.015-2.522-0.568-0.715-1.541-0.952-2.376-0.611zm-6.341,6.476c-0.71,0.418-1.099,1.221-0.987,2.035 0.021,0.15 1.907,15.227-13.575,28.147-0.076,0.06-7.663,5.956-19.019,5.956-3.652,0-7.301-0.611-10.908-1.822 3.357-0.684 7.289-2.082 10.983-4.855 0.67-0.504 0.964-1.367 0.74-2.173-0.224-0.808-0.92-1.396-1.754-1.484-0.07-0.006-5.892-0.657-8.535-4.356 0.85-0.025 1.732-0.105 2.631-0.232 0.942-0.137 1.665-0.901 1.743-1.849 0.078-0.946-0.508-1.821-1.414-2.11-0.078-0.024-6.651-2.178-8.078-7.596 0.884,0.249 1.905,0.442 3.018,0.486 0.863,0.064 1.695-0.514 1.996-1.354 0.299-0.838 0.016-1.776-0.694-2.313-0.272-0.206-5.88-4.542-4.144-11.106 3.598,3.842 11.591,10.353 25.019,11.281 0.725,0.041 1.409-0.301 1.816-0.898s0.462-1.381 0.151-2.035c-0.087-0.186-2.091-4.604 3.153-9.861 0.029-0.023 3.028-2.414 6.815-2.414 2.562,0 4.966,1.104 7.145,3.281 0.442,0.441 1.065,0.654 1.687,0.582 0.217-0.027 1.07-0.139 2.205-0.394-0.235,0.188-0.486,0.376-0.755,0.564-0.776,0.546-1.074,1.557-0.716,2.437 0.358,0.881 1.274,1.4 2.214,1.242 0.066-0.012 0.202-0.033 0.394-0.067-0.441,0.413-0.833,0.732-1.131,0.908z"/>
  </g>
</svg>
