<?xml version='1.0' encoding='utf-8'?>
<!DOCTYPE svg PUBLIC '-//W3C//DTD SVG 1.1//EN' 'http://www.w3.org/Graphics/SVG/1.1/DTD/svg11.dtd'>
<svg width="64" version="1.1" xmlns="http://www.w3.org/2000/svg" height="64" viewBox="0 0 64 64" xmlns:xlink="http://www.w3.org/1999/xlink" enable-background="new 0 0 64 64">
  <g>
    <g fill="#1D1D1B">
      <path d="m63.824,41.771c0-1.341-1.086-2.428-2.427-2.428-1.342,0-2.428,1.087-2.428,2.428v14.07h-54.014v-14.07c1.77636e-15-1.341-1.085-2.428-2.428-2.428-1.341,0-2.427,1.087-2.427,2.428v15.486c0,0.179 0.065,0.337 0.103,0.505-0.037,0.168-0.103,0.326-0.103,0.506 0,1.34 1.086,2.427 2.427,2.427h58.87c1.341,0 2.427-1.087 2.427-2.427 0-0.18-0.063-0.338-0.103-0.506 0.039-0.168 0.103-0.327 0.103-0.505v-15.486z"/>
      <path d="m32.114,49.306c1.341,0 2.428-1.087 2.428-2.427v-35.464l10.573,10.573c0.474,0.474 1.096,0.712 1.717,0.712 0.62,0 1.242-0.238 1.715-0.712 0.95-0.948 0.95-2.484 0-3.432l-14.717-14.717c-0.947-0.95-2.483-0.95-3.432-4.44089e-16l-14.717,14.717c-0.947,0.948-0.947,2.484 0,3.432 0.474,0.474 1.096,0.712 1.717,0.712s1.242-0.238 1.716-0.712l10.573-10.573v35.464c0,1.34 1.085,2.427 2.427,2.427z"/>
    </g>
  </g>
</svg>
