<?xml version='1.0' encoding='utf-8'?>
<!DOCTYPE svg PUBLIC '-//W3C//DTD SVG 1.1//EN' 'http://www.w3.org/Graphics/SVG/1.1/DTD/svg11.dtd'>
<svg width="64" version="1.1" xmlns="http://www.w3.org/2000/svg" height="64" viewBox="0 0 64 64" xmlns:xlink="http://www.w3.org/1999/xlink" enable-background="new 0 0 64 64">
  <g>
    <g fill="#1D1D1B">
      <path d="m63.835,61.199c-0.767-3.404-6.562-24.54-31.855-24.54-27.373,0-31.909,24.747-31.952,24.998-0.098,0.582 0.062,1.18 0.444,1.63 0.382,0.452 0.941,0.713 1.532,0.713h59.95c0.016,0 0.027,0 0.041,0 1.106,0 2.004-0.897 2.004-2.006 7.10543e-15-0.282-0.059-0.553-0.164-0.795zm-59.26-1.211c1.742-5.632 7.978-19.317 27.404-19.317s25.662,13.686 27.404,19.317h-54.808z"/>
      <path d="m9.144,32.804c0.035,0.002 0.066,0.002 0.102,0.002 3.452,0 7.073-1.724 10.775-5.11 3.002,3.191 7.244,5.199 11.957,5.199 4.626,0 8.805-1.93 11.792-5.019 3.641,3.272 7.194,4.93 10.588,4.93 0.035,0 0.066,0 0.102-0.002 3.805-0.035 5.914-2.16 6.143-2.401 0.725-0.768 0.73-1.967 0.014-2.74-0.718-0.775-1.913-0.859-2.731-0.195-0.373,0.303-0.599,0.291-0.803,0.25-2.501-0.507-6.135-7.292-7.503-9.849-0.331-0.619-0.587-1.097-0.81-1.49 0.911-0.171 1.626-0.925 1.647-1.893 0.023-1.106-0.854-2.025-1.961-2.049-0.199-0.004-0.375-0.021-0.566-0.031-1.806-7.117-8.245-12.406-15.912-12.406-8.639,0-15.727,6.713-16.368,15.2-0.403,0.46-0.799,1.197-1.586,2.668-1.367,2.557-5.001,9.342-7.503,9.849-0.201,0.041-0.429,0.053-0.802-0.25-0.819-0.662-2.014-0.578-2.731,0.195-0.717,0.773-0.711,1.973 0.014,2.74 0.227,0.242 2.337,2.367 6.142,2.402zm38.221-10.632c1.241,2.201 2.534,4.288 3.92,5.944-1.609-0.669-3.318-1.853-5.08-3.471 0.454-0.785 0.839-1.614 1.16-2.473zm-2.961-5.724c0,6.855-5.573,12.435-12.427,12.435-5.697,0-10.498-3.863-11.957-9.104 4.97-0.896 10.937-4.979 15.339-8.518 1.46,1.783 4.164,3.936 9.025,4.804 0.005,0.128 0.02,0.253 0.02,0.383zm-4.235-9.328c1.429,1.258 2.57,2.831 3.304,4.619-2.747-0.784-4.262-2.066-5.054-3.044 0.685-0.601 1.267-1.129 1.75-1.575zm-8.191-3.108c1.646,0 3.214,0.329 4.653,0.913-0.409,0.366-0.831,0.738-1.268,1.114-0.074,0.014-0.148,0-0.225,0.021-0.631,0.188-1.067,0.672-1.276,1.246-4.663,3.841-10.34,7.68-14.277,8.485 0.346-6.552 5.762-11.779 12.393-11.779zm-15.527,17.774c0.316,0.92 0.704,1.808 1.172,2.646-1.84,1.729-3.631,2.987-5.306,3.685 1.464-1.754 2.83-3.986 4.134-6.331z"/>
    </g>
  </g>
</svg>
