<?xml version='1.0' encoding='utf-8'?>
<!DOCTYPE svg PUBLIC '-//W3C//DTD SVG 1.1//EN' 'http://www.w3.org/Graphics/SVG/1.1/DTD/svg11.dtd'>
<svg width="64" version="1.1" xmlns="http://www.w3.org/2000/svg" height="64" viewBox="0 0 64 64" xmlns:xlink="http://www.w3.org/1999/xlink" enable-background="new 0 0 64 64">
  <g>
    <g fill="#1D1D1B">
      <path d="m3.852,63.965h56.217c1.105,0 2-0.896 2-2v-59.869c0-1.104-0.895-2-2-2h-56.217c-1.105,0-2,0.896-2,2v59.869c2.22045e-16,1.104 0.894,2 2,2zm20.793-53.886v-5.983h14.758v5.983h-14.758zm33.185,4c0.084,0 0.156-0.038 0.237-0.047v35.303c-0.081-0.01-0.153-0.048-0.237-0.048h-51.829c-0.053,0-0.098,0.027-0.148,0.031v-35.269c0.051,0.005 0.096,0.03 0.148,0.03h51.829zm-18.488,39.209v6.676h-14.758v-6.676h14.758zm-33.489-.03c0.051,0.004 0.096,0.03 0.148,0.03h14.583v6.676h-14.731v-6.706zm37.49,6.706v-6.676h14.487c0.084,0 0.156-0.039 0.237-0.048v6.725h-14.724zm14.724-49.838c-0.081-0.01-0.153-0.048-0.237-0.048h-14.428v-5.983h14.665v6.031zm-37.423-6.031v5.983h-14.643c-0.053,0-0.098,0.025-0.148,0.03v-6.013h14.791z"/>
      <path d="m21.818,45.891c0.297,0.161 0.623,0.239 0.947,0.239 0.385,0 0.771-0.111 1.103-0.331l18.576-12.263c0.561-0.37 0.898-0.998 0.898-1.669 0-0.672-0.338-1.299-0.898-1.67l-18.576-12.264c-0.614-0.406-1.403-0.442-2.05-0.093-0.648,0.349-1.053,1.025-1.053,1.762v24.528c0.001,0.736 0.405,1.412 1.053,1.761zm2.948-22.571l12.944,8.547-12.944,8.545v-17.092z"/>
    </g>
  </g>
</svg>
