<?xml version='1.0' encoding='utf-8'?>
<!DOCTYPE svg PUBLIC '-//W3C//DTD SVG 1.1//EN' 'http://www.w3.org/Graphics/SVG/1.1/DTD/svg11.dtd'>
<svg width="64" version="1.1" xmlns="http://www.w3.org/2000/svg" height="64" viewBox="0 0 64 64" xmlns:xlink="http://www.w3.org/1999/xlink" enable-background="new 0 0 64 64">
  <g>
    <path fill="#1D1D1B" d="m2.629,56.493l6.152,6.844c0.375,0.417 0.909,0.659 1.469,0.663 0.004,0 0.012,0 0.016,0 0.556,0 1.084-0.23 1.463-0.638l31.958-34.345c0.467,0.032 1.07,0.06 1.767,0.06 3.192,0 9.128-0.599 12.996-4.604 2.556-2.646 3.784-6.279 3.652-10.797-0.02-0.622-0.32-1.2-0.821-1.568-0.497-0.366-1.139-0.48-1.733-0.31l-11.538,3.33-1.049-4.444 11.078-4.077c0.76-0.279 1.277-0.99 1.313-1.803 0.035-0.812-0.419-1.567-1.15-1.913-0.252-0.118-6.191-2.891-12.349-2.891-6.637,0-11.117,3.166-12.947,9.129-0.068,0.218-1.571,5.041 1.045,11l-31.299,33.636c-0.713,0.764-0.722,1.95-0.023,2.728zm35.186-34.622c0.587-0.631 0.709-1.564 0.305-2.326-2.641-4.973-1.451-9.016-1.395-9.197 1.305-4.252 4.291-6.318 9.127-6.318 1.905,0 3.826,0.329 5.499,0.747l-7.442,2.739c-0.953,0.35-1.496,1.363-1.26,2.358l1.947,8.239c0.127,0.535 0.465,0.996 0.939,1.273 0.471,0.277 1.037,0.349 1.562,0.198l10.859-3.136c-0.307,2.144-1.104,3.893-2.383,5.217-2.84,2.941-7.561,3.381-10.122,3.381-1.362,0-2.276-0.123-2.284-0.123-0.646-0.09-1.293,0.143-1.736,0.619l-31.14,33.466-3.457-3.845 30.981-33.292z"/>
  </g>
</svg>
