<svg id="Layer_1" data-name="Layer 1" xmlns="http://www.w3.org/2000/svg" viewBox="0 0 254.24 225.8"><defs><style>.cls-1{fill:#fff;}.cls-2{fill:#a91e22;}.cls-3{fill:#ed1c24;}</style></defs><title>zupietru-logo-vertical</title><path class="cls-1" d="M393,315.39c.64-1,1.33-2,2.06-3s1.47-1.94,2.26-2.89l-.06.07c.75-1.19,1.55-2.35,2.33-3.52s1.58-2.33,2.38-3.47l-.19.34a5.63,5.63,0,0,1,.3-.68c.1-.2.22-.39.34-.58a6.72,6.72,0,0,1,.85-1,6.08,6.08,0,0,1,2.33-1.47,7.17,7.17,0,0,1,2.69-.38l1.11.09c.34,0,.67,0,1,.06a20,20,0,0,0,3.89-.18,11.75,11.75,0,0,0,1.77-.43c.28-.1.56-.2.82-.32a4,4,0,0,0,.36-.18,1.46,1.46,0,0,0,.23-.15A4.29,4.29,0,0,0,418.8,295a14.77,14.77,0,0,0,.26-1.87c.05-.66.06-1.28.08-2,0-1.44.12-2.9.24-4.31l.07-1,0-.61a4,4,0,0,1,.18-.84,6.87,6.87,0,0,1,1.44-2.32l-.2.3c-.06.14,0,.08,0,.09s0,0,0,0a1,1,0,0,0,0-.14,1.41,1.41,0,0,0-.07-.39,3.14,3.14,0,0,0-.51-.95,6.88,6.88,0,0,0-.87-.95c-.33-.31-.7-.59-1.08-.87l-2.63-2,3.21-.42a14.81,14.81,0,0,0,2.16-.44,7.08,7.08,0,0,0,1-.35,2.42,2.42,0,0,0,.62-.37.56.56,0,0,0,.17-.36,3.33,3.33,0,0,0-.06-.87l-.1-.64a3.93,3.93,0,0,1,0-.46v-.28l0-1.23a10.68,10.68,0,0,1,.27-2.69,6.94,6.94,0,0,1,.2-.68,2.63,2.63,0,0,1,.46-.87,3.47,3.47,0,0,1,1.42-1,9.94,9.94,0,0,1,2.64-.54,20.2,20.2,0,0,1,2.55-.05l-.21,0a2.83,2.83,0,0,0,1.91-1,2.62,2.62,0,0,0,.09-2.17,5.62,5.62,0,0,0-.23-.6,6.06,6.06,0,0,0-.3-.59l-.7-1.27-1.39-2.55c-1.85-3.4-3.7-6.8-5.5-10.23,2.15,3.22,4.26,6.46,6.37,9.71l1.57,2.44.78,1.22a7.54,7.54,0,0,1,.4.68,7,7,0,0,1,.33.73,5.31,5.31,0,0,1,.36,1.64,3.41,3.41,0,0,1-.4,1.81,3.55,3.55,0,0,1-1.33,1.31,6,6,0,0,1-1.58.62l-.07,0h-.15a12.63,12.63,0,0,0-4.37.68,1.47,1.47,0,0,0-.57.39c0,.07,0,0-.07.21a4.82,4.82,0,0,0-.12.49,8.52,8.52,0,0,0-.1,2.14l.1,1.19,0,.33,0,.15.12.55a5.37,5.37,0,0,1,.14,1.54,3.09,3.09,0,0,1-.77,1.83,4.41,4.41,0,0,1-1.38,1,9.57,9.57,0,0,1-1.3.51,17.24,17.24,0,0,1-2.58.6l.58-2.38a16.86,16.86,0,0,1,1.35,1,9.55,9.55,0,0,1,1.25,1.3,5.85,5.85,0,0,1,1,1.75,4.17,4.17,0,0,1,.22,1.12,3.72,3.72,0,0,1,0,.63c0,.12,0,.22-.06.34a2.29,2.29,0,0,1-.16.46l0,.07-.17.24a4.13,4.13,0,0,0-.67,1.35.75.75,0,0,0,0,.2v1.55c0,1.42,0,2.81,0,4.2,0,.67,0,1.47,0,2.22a16.54,16.54,0,0,1-.27,2.35,10,10,0,0,1-.79,2.45,6.13,6.13,0,0,1-1.85,2.29,4.93,4.93,0,0,1-.67.42c-.24.14-.39.19-.6.29-.38.17-.77.31-1.16.45a13,13,0,0,1-2.37.53,20.65,20.65,0,0,1-4.61.05c-.38,0-.74-.08-1.11-.12l-1-.13a4.06,4.06,0,0,0-1.52.09,3.56,3.56,0,0,0-1.31.67,3.88,3.88,0,0,0-.55.55c-.08.1-.16.21-.24.32l-.17.27-.19.34c-.91,1.07-1.83,2.13-2.77,3.17s-1.86,2.11-2.83,3.13l-.06.07c-.91.77-1.8,1.58-2.71,2.38Z" transform="translate(-268.3 -194.58)"/><path class="cls-1" d="M408.53,301.91c-4.33-1.55-8.6-3.18-12.86-4.88s-8.48-3.49-12.62-5.49a58.2,58.2,0,0,1-6.07-3.32,16.89,16.89,0,0,1-1.43-1,10.26,10.26,0,0,1-1.3-1.21q-1.18-1.25-2.31-2.56a19.3,19.3,0,0,1-3.62-5.87,18.14,18.14,0,0,1-.9-6.79,24.14,24.14,0,0,0,.3,3.4,15.45,15.45,0,0,0,.93,3.26,18.78,18.78,0,0,0,3.82,5.53q1.17,1.23,2.41,2.41a12.57,12.57,0,0,0,2.66,2,57.08,57.08,0,0,0,6.1,2.94c4.18,1.77,8.47,3.31,12.77,4.79s8.65,2.87,13,4.18Z" transform="translate(-268.3 -194.58)"/><path class="cls-2" d="M343.36,230.73s-2.24-1-2.24-6.23,2.05-20.21,17.21-24.69c0,0,27.18-8.48,42.89-2a17.07,17.07,0,0,0,5.24,3.49c2.74,1,8.48,2.74,10,2.74s4.74.25,7,2.49,16.21,14.21,16.21,14.21a83.55,83.55,0,0,1,6,6.31c1.85,2.38,1.6,7.49,1.6,7.49a4.58,4.58,0,0,0-3.16-2.83c-4.44-1.18-13.47-1.25-18,0a112.71,112.71,0,0,1-14.71,3c-7.09,1.08-9.73.5-21.2-1s-24.94-4.49-30.42-4.49S344.36,230,343.36,230.73Z" transform="translate(-268.3 -194.58)"/><path class="cls-2" d="M394.73,239.37s16.21,0,19.7-.75,10.22-2,13.22-3,16.82-4.27,20.6,1.16c0,0,4.07,7.87-1.32,13.37-.71.72-3.91,3.44-5.89,4.1-1.69.56-.43-.84-2.91-.19,0,0,4.78-2.37,7.14-6.5,1.59-2.78,1.13-5.16.4-7.48,0,0-1.52-3.84-7.79-.73-5.4,2.68-13.22,7.48-21.44,7.48S399.72,243.11,394.73,239.37Z" transform="translate(-268.3 -194.58)"/><path class="cls-2" d="M426.4,250.59s6.06,5.32,10.79,4.67c3.38-.46,4.57-.6,9.33-5.63,0,0,1-7.75,0-5-2,5.69-7.26,8.66-9,8.87A17,17,0,0,1,426.4,250.59Z" transform="translate(-268.3 -194.58)"/><path class="cls-2" d="M342.37,241.37s-.17-6.47.5-7.52,15.63-2.45,17.29-2.27S343,239.09,342.37,241.37Z" transform="translate(-268.3 -194.58)"/><path class="cls-2" d="M404.5,196.79s7.12,6,16.42,5.19c0,0,3.47-2.5-6.74-5.66S402.25,194.9,404.5,196.79Z" transform="translate(-268.3 -194.58)"/><path class="cls-1" d="M365.54,244.64a8,8,0,0,0-7.24-2.78,9.78,9.78,0,0,0-1.29.26c-.21.05-.42.12-.63.18l-.56.22a4.42,4.42,0,0,0-2.32,3.85,17.64,17.64,0,0,0,.44,5.25,45.16,45.16,0,0,0,1.52,5.25l.24.65a5.41,5.41,0,0,0,.24.55c.19.36.41.74.64,1.1a17,17,0,0,0,1.63,2.1,15,15,0,0,0,4.11,3.32,6.07,6.07,0,0,0,5,.54l.06,0h0a.6.6,0,0,0,.23-.16,1.53,1.53,0,0,0,.25-.34,3.59,3.59,0,0,0,.32-.88,9.92,9.92,0,0,0,.2-2,8.6,8.6,0,0,1,.2,2,4.08,4.08,0,0,1-.19,1.07,2.16,2.16,0,0,1-.26.53,1.22,1.22,0,0,1-.56.46l.06,0a6,6,0,0,1-2.93.72,8.31,8.31,0,0,1-3-.62,15.11,15.11,0,0,1-4.86-3.36,18.89,18.89,0,0,1-1.93-2.25,10.31,10.31,0,0,1-.82-1.3,7.64,7.64,0,0,1-.34-.74l-.26-.67a34.73,34.73,0,0,1-1.63-5.54,17.14,17.14,0,0,1-.31-5.93,7.52,7.52,0,0,1,1.07-3,5.3,5.3,0,0,1,2.57-2c.25-.09.51-.16.77-.23s.49-.11.73-.15a10.58,10.58,0,0,1,1.5-.14,8.52,8.52,0,0,1,3,.43A7.75,7.75,0,0,1,365.54,244.64Z" transform="translate(-268.3 -194.58)"/><path class="cls-1" d="M403.1,328.44a164.06,164.06,0,0,0-13.92-11.92c-2.4-1.8-4.82-3.5-7.34-5.12s-5.2-3.18-7.92-4.72a77.43,77.43,0,0,1-8-5.08,45,45,0,0,1-7-6.47c-.54-.58-1-1.24-1.5-1.85l-.73-.93-.67-1-1.33-2-1.2-2-.6-1-.54-1-1.07-2.08c-.67-1.41-1.26-2.85-1.89-4.27a.21.21,0,0,1,.38-.19h0a60.78,60.78,0,0,0,10.7,14.86c4.31,4.28,9.52,7.33,15,10,2.76,1.36,5.63,2.6,8.45,4.08a40.58,40.58,0,0,1,7.91,5.47,52,52,0,0,1,6.54,6.95,40.33,40.33,0,0,1,5,8,.22.22,0,0,1-.34.25Z" transform="translate(-268.3 -194.58)"/><path class="cls-1" d="M301.72,356.08c-4.51.22-7.54-.83-7.54-2.31,0-4.35,5.4-8.64,8-9.8-1.21,1-4.4,4-4.4,5.78s2.7,1.93,5.45,2c18.11.17,34.85-7.93,36.56-7.87.33,0,.94,1.27.55,1.27A230.16,230.16,0,0,0,292,377.33c-4.46,4-10.35,8.75-14.59,13.38,5.4-1.87,14.92-2.92,23.12-2.86s16.08,1.6,20.26,5.62c-4.18-2.59-10-3.58-16.19-3.63-15.69-.17-34.85,5.89-34.85,9.58-.06,1.32-1.49-1.32-1.49-3.3.11-9.25,49.38-43.33,65.79-49.33C334,346.73,314.27,355.42,301.72,356.08Z" transform="translate(-268.3 -194.58)"/><path class="cls-1" d="M330.57,374c-5.56,5.67-12.94,13.6-16.24,14.26h-.44a3.42,3.42,0,0,1-2.59-2.81c0-2.37,3-7.93,6.17-12.28a37.83,37.83,0,0,1,5.62-6.44,1.12,1.12,0,0,1,.77-.33c1.32,0,3.47,2.15,3.47,3.58,0,.22-.22-.05-.72-.11-.83-.11-3.14,2.75-5,5.18-2.81,3.69-5.56,8.48-5.56,10.07,2.64-1.1,8.26-6.06,10.9-8.59,2.86-2.81,6.94-7.6,10.07-10a1.2,1.2,0,0,1,.77-.28c1.32,0,3.41,2.15,3.41,3.52,0,.22-.17-.06-.66-.11a3.56,3.56,0,0,0-1.82,1.27c-.83.88-2.37,2.86-4.18,5.29-2.75,3.69-4.79,7.6-4.79,9.14,3.47-1,11.29-8.53,14.64-11.73.33-.28.61.17.44.33-4.79,5.23-13.76,14.42-17.07,14.42a1.46,1.46,0,0,1-.88-.33,3.8,3.8,0,0,1-2-2.7,9.94,9.94,0,0,1,.61-2.37A37,37,0,0,1,330.57,374Z" transform="translate(-268.3 -194.58)"/><path class="cls-1" d="M355.89,354.21c2.26-1.1,9-9.63,9-10.41,0-.28.39-.5.72-.5,1.21,0,2.7,1.76,2.7,2.81,0,1.6-7.65,8.42-12.33,8.42C355.84,354.54,355.73,354.38,355.89,354.21Z" transform="translate(-268.3 -194.58)"/><path class="cls-1" d="M383.75,383c-4.29,0-7-1.16-7-3.19,0-3,8-7.38,9.36-7.38a.2.2,0,0,1,.17.05c-1.71,1-7.49,4.57-7.49,7,0,.28.33.61,1.38.61a28.75,28.75,0,0,0,5.95-.72c9.36-14.37,24-31,28.19-31a5.06,5.06,0,0,1,4.51,4.18,1.84,1.84,0,0,0-1.54-.77c-3.25,0-15.08,13.32-24.5,25.88,16.79-5.23,39.69-17.4,39.69-26.21,0-5.23-7.1-8.15-16.85-8.15-19.43,0-44.15,16.52-44.15,23.67,0,2.26,2.64,3.63,4.07,3.74,0,0,0,.05-.88.05-3.91,0-6.94-1.1-6.94-5.23,0-7.49,19.82-23.84,48.28-23.84,5.95,0,19.16,2.31,19.16,11.34,0,14.48-30.88,26.59-45.91,29.4-5.18,7.21-9,13.54-9,15.8,0,1-.06,1.87.94,2a2.74,2.74,0,0,1-.88.17c-1.49,0-2.42-1.38-2.42-3.41C377.86,394,380.23,388.84,383.75,383Z" transform="translate(-268.3 -194.58)"/><path class="cls-1" d="M422,388.29c-.88-.28-2.26-1.65-2.26-2.64,0-3.19,8-15.19,11.51-18a1.15,1.15,0,0,1,.83-.33c1.27,0,3.47,2.2,3.47,3.58,0,.22-.28-.06-.72-.11-2.26-.22-9.8,12.33-10.46,14.59,3.36-.88,11.4-8.53,14.75-11.78.39-.28.66.17.5.33-4.79,5.17-13.54,14.15-17,14.42A2.92,2.92,0,0,1,422,388.29Zm18.39-27.64c.5.55.83,1.38.61,1.38a1.64,1.64,0,0,0-1.16.06,16.79,16.79,0,0,0-4.13,3.58c-.77,1-1.93-.17-2-1.16-.06-1.6,2-5.17,3.47-5.62C438.47,358.73,439.68,359.83,440.4,360.65Z" transform="translate(-268.3 -194.58)"/><path class="cls-1" d="M437.59,384.88c-.06.66.44,1,1.65,1,4,0,14.09-7.65,19.65-12.28.17-.11.55.17.39.33-4.13,3.85-15.08,14.37-22.41,14.37-1.71,0-3.91-2-3.91-3.47a10.22,10.22,0,0,1,.77-3.63,27.46,27.46,0,0,1,7.6-9.52c4.57-3.8,9.47-5.5,11.84-5.5.83,0,3.36,1.27,3.36,2.81,0,3.41-10.57,11.34-16.74,11.51A9.35,9.35,0,0,0,437.59,384.88Zm2.92-5.45c4.79-.55,13.93-9.47,14.26-11.56C448.66,369.85,442.33,376.51,440.51,379.43Z" transform="translate(-268.3 -194.58)"/><path class="cls-1" d="M476.74,348.6a4.14,4.14,0,0,1,2-1.1c3.08-.17,5.29,3,4.24,2.42-1.76-.83-5,3.58-7.43,6.72,8.86-.44,20.48,0,28.35,1.65.44.11.66.22,0,.17a129.9,129.9,0,0,0-30.17.5c-2,2.53-3.85,5.29-6.06,8.53-4.79,7.27-8.92,14.26-10.24,17.78,2.37.28,11.51-8.7,14.75-11.67a.25.25,0,0,1,.39.33C469.91,377,460.33,387,457,388.24a1.93,1.93,0,0,1-1.76-.22,6,6,0,0,1-2-2.2,1.33,1.33,0,0,1-.17-.83c0-1.65,2.48-7,9.25-17.51,1.49-2.26,3.08-4.68,5.12-7.38-5.23,1-8.48,3.69-7,4.51a3.38,3.38,0,0,1-2.92-2.81c-.22-2.48,5.84-4,12-4.74C473.82,351.46,475.36,349.7,476.74,348.6Z" transform="translate(-268.3 -194.58)"/><path class="cls-1" d="M478.28,366.6a1.31,1.31,0,0,1,.77-.28c1.32,0,3.41,2.15,3.41,3.52,0,.22-.17-.05-.61-.11-.83-.06-2.75,2.09-4.4,4.29a70.91,70.91,0,0,0-4.57,6.61c2.92-3.8,8.42-8.42,13.16-11.84,2.15-1.54,3.8-2.48,5-2.59.61-.06,2.86,2.31,2.48,2.75-1.21,1.27-5.78,5.29-7.6,9.58,2.64-.22,6.44-2.7,9.85-5.73.06-.06.39-.11.44,0-1,1.32-7.6,7.49-11.4,7.49-1,0-2.64-1.93-2.64-2.59,0-1.54,1.76-4.73,3.19-6.39a42,42,0,0,0-11.4,9.3c-2.81,3-6.11,7.87-4.9,8.42-1.6.39-2.92-1.32-3.3-2.86a5.25,5.25,0,0,1,.83-2.81,65.13,65.13,0,0,1,6.06-10.08A37.25,37.25,0,0,1,478.28,366.6Z" transform="translate(-268.3 -194.58)"/><path class="cls-1" d="M508.23,374c-5.56,5.67-12.94,13.6-16.24,14.26h-.44a3.42,3.42,0,0,1-2.59-2.81c0-2.37,3-7.93,6.17-12.28a37.83,37.83,0,0,1,5.62-6.44,1.12,1.12,0,0,1,.77-.33c1.32,0,3.47,2.15,3.47,3.58,0,.22-.22-.05-.72-.11-.83-.11-3.14,2.75-5,5.18-2.81,3.69-5.56,8.48-5.56,10.07,2.64-1.1,8.26-6.06,10.9-8.59,2.86-2.81,6.94-7.6,10.07-10a1.2,1.2,0,0,1,.77-.28c1.32,0,3.41,2.15,3.41,3.52,0,.22-.17-.06-.66-.11a3.56,3.56,0,0,0-1.82,1.27c-.83.88-2.37,2.86-4.18,5.29-2.75,3.69-4.79,7.6-4.79,9.14,3.47-1,11.29-8.53,14.64-11.73.33-.28.61.17.44.33-4.79,5.23-13.76,14.42-17.07,14.42a1.46,1.46,0,0,1-.88-.33,3.8,3.8,0,0,1-2-2.7,9.94,9.94,0,0,1,.61-2.37A37,37,0,0,1,508.23,374Z" transform="translate(-268.3 -194.58)"/><path class="cls-3" d="M307.85,409.87a5.43,5.43,0,0,1,.15.83,12.05,12.05,0,0,1,.1,1.29,1.68,1.68,0,0,1,0,.32l-.08,0-.58,0-.1,0a4.18,4.18,0,0,0-.71-1.45,1.93,1.93,0,0,0-1.45-.65,1.81,1.81,0,0,0-1.26.42,1.33,1.33,0,0,0-.47,1,1.43,1.43,0,0,0,.46,1,4.64,4.64,0,0,0,1.93.91A9,9,0,0,1,307,414a3.47,3.47,0,0,1,1.06.7,3,3,0,0,1,.67,1,3.22,3.22,0,0,1,.18,1.16,4.13,4.13,0,0,1-.28,1.5,2.22,2.22,0,0,1-.49.74,4.68,4.68,0,0,1-.75.57,3.72,3.72,0,0,1-1.06.47,5.55,5.55,0,0,1-1.4.15,6.83,6.83,0,0,1-1.35-.16l-1-.28a1.59,1.59,0,0,1-.51-.2.31.31,0,0,1-.07-.15v-.09c0-.06,0-.43,0-1.11q0-.53,0-.74v-.31l.75,0q.39.9.5,1.09a2.71,2.71,0,0,0,.55.67,2.32,2.32,0,0,0,.72.41,2.69,2.69,0,0,0,.91.15,2.89,2.89,0,0,0,1-.19,1.77,1.77,0,0,0,.84-.61,1.41,1.41,0,0,0-.24-2,6.48,6.48,0,0,0-1.83-.84,9,9,0,0,1-2.06-.94,2.85,2.85,0,0,1-.91-1.1,3.08,3.08,0,0,1-.33-1.33,2.94,2.94,0,0,1,.92-2.19,3.75,3.75,0,0,1,2.72-.9,7.1,7.1,0,0,1,1.15.14A8.79,8.79,0,0,1,307.85,409.87Z" transform="translate(-268.3 -194.58)"/><path class="cls-3" d="M313.44,420.11v-.58l.53-.14a3.56,3.56,0,0,0,.78-.27,1.39,1.39,0,0,0,.15-.7v-1l0-1.84v-.44q.06-1.6.06-1.65l0-1.08,0-.44,0-.92,0-.35a1.87,1.87,0,0,0-.06-.26,3.16,3.16,0,0,0-1.08-.19l-.28,0,0-.71,2.31.1.53,0q.48,0,1.53-.07l.74,0c0,.1,0,.19,0,.26s0,.21,0,.36q-.32.11-.74.21a5.44,5.44,0,0,0-.68.21,2.88,2.88,0,0,0,0,.61,5.34,5.34,0,0,0,0,.57q0,1.37,0,2.1V416l0,1.08,0,1.62,0,.31a.53.53,0,0,0,0,.19,7.89,7.89,0,0,0,.89.15l.49.07a3.12,3.12,0,0,1,0,.4c0,.06,0,.15,0,.28h-.16l-.3,0-.21,0-1.07-.11-1.43,0c-.29,0-.7,0-1.24.08Z" transform="translate(-268.3 -194.58)"/><path class="cls-3" d="M332.6,409.8q.11.24.43,1.38a4.26,4.26,0,0,1,.15,1.1h-.74a5.37,5.37,0,0,0-1.6-1.58,3.59,3.59,0,0,0-1.84-.48,2.45,2.45,0,0,0-2,1,5.84,5.84,0,0,0-1,3.7,7.47,7.47,0,0,0,.18,2,5.08,5.08,0,0,0,.74,1.55,2.39,2.39,0,0,0,.89.72,3.29,3.29,0,0,0,1.52.36,3.06,3.06,0,0,0,1.72-.55,6.16,6.16,0,0,0,1.59-1.65,4.83,4.83,0,0,1,.78-.06,5.87,5.87,0,0,1-.11.64l-.19,1-.07.24-.11.38a3.44,3.44,0,0,1-1.39.57,10.76,10.76,0,0,1-2.2.19,9.1,9.1,0,0,1-1.88-.19,4.52,4.52,0,0,1-1.52-.59,5.55,5.55,0,0,1-1.45-1.26,4.75,4.75,0,0,1-.78-1.48,5.9,5.9,0,0,1-.26-1.8,5.36,5.36,0,0,1,1.59-4,5.53,5.53,0,0,1,4.06-1.57,16.59,16.59,0,0,1,1.89.1A11.85,11.85,0,0,1,332.6,409.8Z" transform="translate(-268.3 -194.58)"/><path class="cls-3" d="M337.86,420.11v-.58l.53-.14a3.56,3.56,0,0,0,.78-.27,1.39,1.39,0,0,0,.15-.7v-1l0-1.84v-.44q.06-1.6.06-1.65l0-1.08,0-.44,0-.92,0-.35a1.87,1.87,0,0,0-.06-.26,3.16,3.16,0,0,0-1.08-.19l-.28,0,0-.71,2.31.1.53,0q.48,0,1.53-.07l.74,0c0,.1,0,.19,0,.26s0,.21,0,.36q-.32.11-.74.21a5.44,5.44,0,0,0-.68.21,2.88,2.88,0,0,0,0,.61,5.34,5.34,0,0,0,0,.57q0,1.37,0,2.1V416l0,1.08,0,1.62,0,.31a.53.53,0,0,0,0,.19,7.89,7.89,0,0,0,.89.15l.49.07a3.12,3.12,0,0,1,0,.4c0,.06,0,.15,0,.28h-.16l-.3,0-.21,0-1.07-.11-1.43,0c-.29,0-.7,0-1.24.08Z" transform="translate(-268.3 -194.58)"/><path class="cls-3" d="M347.44,419.44a5.72,5.72,0,0,1,.71-.14l.54-.07a.7.7,0,0,0,.42-.1,1.4,1.4,0,0,0,0-.32l0-1,0-1.05v-1.47l0-.84,0-1.81v-.93a4.4,4.4,0,0,0-.11-.94,1.08,1.08,0,0,0-.46-.21l-.31-.12a2.24,2.24,0,0,0-.36-.11,1,1,0,0,1-.4-.17c0-.14,0-.25,0-.32s0-.11,0-.19a.32.32,0,0,1,.15,0l1.41.07h1.16l.86,0q.56,0,1.43-.07l.3,0a.2.2,0,0,1,.17.06.57.57,0,0,1,.06.32.39.39,0,0,1-.09.28.73.73,0,0,1-.36.1l-1,.23-.14.06,0,.1v.23l0,.51v.23s0,.18,0,.44c0,.07,0,.14,0,.21s0,.23,0,.44,0,.61,0,.85,0,.6,0,1c0,.13,0,.31,0,.53l0,3.84a.43.43,0,0,0,.08.32l.77,0h1a5.66,5.66,0,0,0,2-.3,1.76,1.76,0,0,0,.73-.45,2.34,2.34,0,0,0,.45-.52,4.87,4.87,0,0,0,.39-.94h.26l.44,0v.23q0,.58-.15,2a3.33,3.33,0,0,1-.11.71l-.23,0h-.72l-1-.07-1.55-.06q-1.38-.05-2.71,0l-1.65,0q-1,0-1.79.09h-.27a.84.84,0,0,1,0-.15A1.55,1.55,0,0,1,347.44,419.44Z" transform="translate(-268.3 -194.58)"/><path class="cls-3" d="M360,409.69a4.68,4.68,0,0,1,1-.06l.08,0,.28,0h.08l.66.06q1,.07,1.59.07a8.88,8.88,0,0,0,1.27-.09l.13,0h.07a.51.51,0,0,1,0,.16v.42a2.09,2.09,0,0,1-.44.11l-.36.06-.54.09,0,0,0,.11a13.2,13.2,0,0,0,1.13,1.79c.15.26.3.5.45.73,0,.06.2.31.46.75l.09.15.15.22.18.27a3.88,3.88,0,0,0,.27.4l.84-1.18q.41-.53,1.08-1.55l0,0,.69-1.22a.74.74,0,0,0,.16-.35.69.69,0,0,0,0-.14.62.62,0,0,0-.2-.1l-.34,0-.32-.06-.25,0c0-.07,0-.27,0-.6l1.66.09.2,0h.53c.17,0,.4,0,.67-.06l.23,0v.61l-.11,0a2.31,2.31,0,0,0-.93.3,5,5,0,0,0-1,1.33l-1.05,1.58q-.95,1.29-1.22,1.76a1.06,1.06,0,0,0-.12.28v1.15a3.82,3.82,0,0,0,0,.44l0,2.07a.18.18,0,0,0,.09.09,4.19,4.19,0,0,0,.52.08,3.83,3.83,0,0,1,.87.14.17.17,0,0,1,.07.16,1.59,1.59,0,0,1,0,.19s0,.12,0,.23l-.93,0-.87-.07-.6,0-.9,0h-.67a1.79,1.79,0,0,0-.36,0,4.18,4.18,0,0,1-.61.06H363c0-.11,0-.2,0-.26s0-.15,0-.27l1.49-.31.19-.08c0-.25,0-.4,0-.46q0-1.24,0-1.69c0-.3,0-.47,0-.52v-.19a2,2,0,0,0-.53-1.17l-.28-.37-1.59-2.41-.74-1.2-.5-.66a.88.88,0,0,0-.28-.18l-.74-.17a.27.27,0,0,1,0-.13,1.22,1.22,0,0,1,0-.13C360,409.87,360,409.79,360,409.69Z" transform="translate(-268.3 -194.58)"/><path class="cls-3" d="M392.41,410.31a8.8,8.8,0,0,1,.13.93q.07.69.07,1a1,1,0,0,1-.06.3,3,3,0,0,1-.59-.06,8.39,8.39,0,0,0-.87-1.19,4,4,0,0,0-1.21-.77,3.12,3.12,0,0,0-1.25-.23,3.05,3.05,0,0,0-2.38,1.21,5.45,5.45,0,0,0-1,3.61,6.12,6.12,0,0,0,.4,2.18,3.63,3.63,0,0,0,1.2,1.66,3,3,0,0,0,1.89.6,5,5,0,0,0,1.12-.14.93.93,0,0,0,.49-.26.68.68,0,0,0,.17-.39,10.4,10.4,0,0,0,.06-1.33c0-.56,0-.94,0-1.15a.4.4,0,0,0-.11-.16,1.62,1.62,0,0,0-.33-.12l-.72-.19a.51.51,0,0,1-.29-.14,1.08,1.08,0,0,1,0-.15,1.26,1.26,0,0,1,.06-.32l.2,0q.88,0,1.53.06h.49l1.28,0,.54,0,.54,0c0,.14,0,.26,0,.36a.46.46,0,0,1-.06.2,3.18,3.18,0,0,1-.47.21,1.66,1.66,0,0,0-.37.16.37.37,0,0,0-.09.2q0,.14,0,1c0,.63,0,1,0,1.14q0,.6,0,.68c0,.2,0,.32-.08.37a3.82,3.82,0,0,1-1.4.51,11.65,11.65,0,0,1-2.74.29,9,9,0,0,1-1.9-.17,4.48,4.48,0,0,1-1.37-.51,5,5,0,0,1-1.3-1.1,4.53,4.53,0,0,1-.81-1.4,6.43,6.43,0,0,1-.37-2.13,5.85,5.85,0,0,1,.55-2.41,5.24,5.24,0,0,1,1.14-1.59,5.32,5.32,0,0,1,1.83-1.13,6.63,6.63,0,0,1,2.39-.42l.53,0a6.65,6.65,0,0,1,1.84.25A6,6,0,0,1,392.41,410.31Z" transform="translate(-268.3 -194.58)"/><path class="cls-3" d="M398.06,414.74a5.59,5.59,0,0,1,.39-2,4.73,4.73,0,0,1,.79-1.33,5.22,5.22,0,0,1,1.28-1.08,5.73,5.73,0,0,1,1.57-.68,7.2,7.2,0,0,1,1.79-.21,6.35,6.35,0,0,1,2.92.63,5,5,0,0,1,1.95,1.71,5.26,5.26,0,0,1,.92,2.94,5.48,5.48,0,0,1-1.56,3.92,5.69,5.69,0,0,1-4.33,1.63,8.81,8.81,0,0,1-1.29-.09,4.58,4.58,0,0,1-.79-.18l-.69-.23a6.85,6.85,0,0,1-1.42-1,5.3,5.3,0,0,1-.91-1.19,6.86,6.86,0,0,1-.46-1.34A5.56,5.56,0,0,1,398.06,414.74Zm5.51-4.51a2.35,2.35,0,0,0-1.24.33,2.61,2.61,0,0,0-.82.72,4.42,4.42,0,0,0-.65,1.47,8.31,8.31,0,0,0-.19,1.94,6.12,6.12,0,0,0,.06,1c0,.06,0,.18,0,.33a4.47,4.47,0,0,0,.17.87,8.84,8.84,0,0,0,.49,1.27,3.26,3.26,0,0,0,.72.82,2.33,2.33,0,0,0,.7.38,2.6,2.6,0,0,0,.92.17,3.32,3.32,0,0,0,1.62-.41,2.89,2.89,0,0,0,1.2-1.39,6.12,6.12,0,0,0,.45-2.55q0-.65-.09-1.76l0-.15a3.29,3.29,0,0,1-.08-.33,3.52,3.52,0,0,0-1.14-2A3.23,3.23,0,0,0,403.57,410.22Z" transform="translate(-268.3 -194.58)"/><path class="cls-3" d="M414.07,410.31l0-.64h.3l.85,0,1.26.06,1.27,0,1.1,0h.65v.1l0,.47v.06a6.6,6.6,0,0,1-.94.06.76.76,0,0,0-.6.18,2.4,2.4,0,0,0-.1,1c0,.17,0,.31,0,.42v.29l0,.76,0,.65,0,1.4.11,2a3.1,3.1,0,0,0,.39,1.46,1.8,1.8,0,0,0,.73.67,3,3,0,0,0,1.34.34,5,5,0,0,0,1.45-.2,2.41,2.41,0,0,0,.75-.37,2,2,0,0,0,.49-.47,3.16,3.16,0,0,0,.4-.83,6.52,6.52,0,0,0,.15-1.66q0-2-.21-4.41l0-.43a1,1,0,0,0-.18-.64.82.82,0,0,0-.58-.25l-.76,0-.11,0,0-.62h.64l1.55.07a14.29,14.29,0,0,0,1.48-.07l.14,0a2.48,2.48,0,0,1,0,.37.92.92,0,0,1,0,.22,2.82,2.82,0,0,1-.63.1,2.19,2.19,0,0,0-.6.12.37.37,0,0,0-.11.3c0,.1,0,.24,0,.42a6.85,6.85,0,0,1,0,.7c0,.19,0,.34,0,.45s0,.22,0,.33q0,.58,0,1.18l.08,1.64a13.72,13.72,0,0,1-.11,2.21,2.82,2.82,0,0,1-.31.88,3.26,3.26,0,0,1-.85.9,4.28,4.28,0,0,1-1.38.65,6.92,6.92,0,0,1-1.93.24,6.16,6.16,0,0,1-2.15-.34,3.16,3.16,0,0,1-1.36-.88,3.08,3.08,0,0,1-.63-1.42,9.17,9.17,0,0,1-.12-1.71v-3.86a4.55,4.55,0,0,0-.13-1.54q-.18-.25-1.11-.28A2,2,0,0,1,414.07,410.31Z" transform="translate(-268.3 -194.58)"/><path class="cls-3" d="M430.36,419.61a1.84,1.84,0,0,1,.62-.17,3.44,3.44,0,0,0,.74-.17,1.86,1.86,0,0,0,0-.23q0-.11,0-.78v-1.8l0-1,0-.75,0-.44q0-.88,0-1.65,0-1.68,0-2.15l-.48-.1c-.44,0-.73-.05-.87-.08l0-.48,0-.09a4.84,4.84,0,0,1,.74-.06H432l.63,0,.43,0,1,0a19.68,19.68,0,0,1,2-.1,3.9,3.9,0,0,1,2.64.85,2.51,2.51,0,0,1,1,1.94,2.33,2.33,0,0,1-.53,1.48,3.22,3.22,0,0,1-1.62,1,4.71,4.71,0,0,0,.26.4q.34.49.55.83l1.29,2.1a6.31,6.31,0,0,0,.64,1,2,2,0,0,0,.62.31,2.56,2.56,0,0,1,.56.27.75.75,0,0,1,0,.24s0,.11,0,.19h-.38l-.42-.06h-.33a4.28,4.28,0,0,0-.64,0h-.81l-.57.06-.35,0-.27-.53q-.34-.61-.48-.91-.36-.79-1.22-2.5a3.12,3.12,0,0,0-.57-.9,1.51,1.51,0,0,0-.83-.17l-.55,0a5.55,5.55,0,0,0,0,.56l0,1.8,0,1.52a1.85,1.85,0,0,0,.59.21,6.67,6.67,0,0,1,1.08.31,4.18,4.18,0,0,1,0,.6h-.19l-.33,0Q433.37,420,433,420h-.3l-1.12.07a8.47,8.47,0,0,1-.93.06h-.35c0-.13,0-.22,0-.26A1.82,1.82,0,0,1,430.36,419.61Zm3.64-5.23.57,0a3,3,0,0,0,1.95-.49,1.65,1.65,0,0,0,.57-1.32,3.18,3.18,0,0,0-.14-1,1.69,1.69,0,0,0-.35-.67,1.87,1.87,0,0,0-.78-.48,3.82,3.82,0,0,0-1.14-.12,4.34,4.34,0,0,0-.64,0l0,.15,0,1.09,0,.66v.88q0,.37,0,1Z" transform="translate(-268.3 -194.58)"/><path class="cls-3" d="M444.88,420.1l0-.55a2.36,2.36,0,0,0,1.29-.41,2.14,2.14,0,0,0,.28-1l.11-2.88.12-2.93c0-.18,0-.29,0-.32a3.38,3.38,0,0,0-.13-1.32,2.15,2.15,0,0,0-1-.35l-.36-.08c0-.13,0-.25,0-.34v-.25l.7,0,2.37.08.23,0,.37,0a2.59,2.59,0,0,1,.28.43q.3.59.79,1.73l.09.22,1.26,2.75.13.28.26.55.27.58.26.56a4.53,4.53,0,0,0,.22-.43q.32-.74.63-1.37.53-1.1,1.45-3.37.15-.37.48-1.1t.37-.77a.46.46,0,0,1,.29-.06h.25l1,0q.85,0,1.36-.05l.58,0,.19,0c0,.08,0,.14,0,.18l0,.24s0,.12,0,.22a4.45,4.45,0,0,0-1.24.34q-.33.16-.33.4v.12l.14,2.48q0,.34.13,3.37,0,.68.11,1.72a1.67,1.67,0,0,1,0,.2.32.32,0,0,0,.08.25q.08.06,1.45.47c0,.09,0,.15,0,.19s0,.23,0,.34-.51,0-1.1-.09a15.72,15.72,0,0,0-1.65-.09q-1.17,0-2.28.1l-.28,0,0-.56a4.47,4.47,0,0,1,.88-.22.73.73,0,0,0,.49-.22,2,2,0,0,0,.11-.86c0-.18,0-.33,0-.47q0-.85,0-2.36l-.14-2.86q0-.61-.06-.84l-2,4.63-.22.47-.25.54q-.62,1.5-.87,2.29-.07.2-.19.53h-.62l-.44-1.24q-.2-.49-.66-1.47-.28-.57-.43-.93l-.11-.22-.1-.2a.31.31,0,0,0,0-.08l-1.21-2.6-.74-1.58-.06,3.83-.06,2.48a1.33,1.33,0,0,0,.23.88,2,2,0,0,0,1,.45l.39.1v.59q-.47,0-1-.07a13.43,13.43,0,0,0-1.43-.06Z" transform="translate(-268.3 -194.58)"/><path class="cls-3" d="M463.39,409.63q.46,0,.8.07a10.74,10.74,0,0,0,1.48.09l1.5,0q1.8-.07,3.26-.07l1.46,0a12.63,12.63,0,0,1,1.46.12.63.63,0,0,1,.15.44v1.67l0,.33s0,.08,0,.15l-.33,0-.28,0q-.07-.16-.19-.48l-.32-.57a3.73,3.73,0,0,0-.52-.74,2.17,2.17,0,0,0-.52-.07l-.49,0q-.75-.07-1.62-.06t-1.76,0q0,.2,0,1.59v2.38l.35,0q1.45,0,2.07-.06a2,2,0,0,0,.76-.16.83.83,0,0,0,.26-.35,11.24,11.24,0,0,0,.28-1.19h.57q0,.72,0,1.09,0,.85,0,1.09t0,.38q0,.22,0,.7c0,.32,0,.56,0,.72v.18h-.57l-.12-.53a3.25,3.25,0,0,0-.29-.94.59.59,0,0,0-.32-.22,6.57,6.57,0,0,0-1.2-.06q-1.22,0-1.84.06v.27q0,1,0,1.6l0,1.75a.43.43,0,0,0,.22.42,6.58,6.58,0,0,0,2,.17,9.17,9.17,0,0,0,1.91-.17,1.9,1.9,0,0,0,1-.54,4.12,4.12,0,0,0,.91-1.52l.41,0h.27l0,.34,0,.24-.29,1.53-.14.92-.83,0q-.45,0-2.42-.08Q469,420,467.05,420q-1,0-2.39.08h-.34l-1,0v-.56a5.07,5.07,0,0,1,.61-.09,3.9,3.9,0,0,0,1.16-.26,1.67,1.67,0,0,0,.09-.59c0-.09,0-.25,0-.47v-.25l0-3.05V414l0-1.29v-.91l-.07-1a1.62,1.62,0,0,0,0-.16.39.39,0,0,0-.24-.11l-.24,0a5.35,5.35,0,0,0-.89-.11l-.36,0Z" transform="translate(-268.3 -194.58)"/><path class="cls-3" d="M479,409.18h.5l.08.13a2.91,2.91,0,0,0,.35.52q.11,0,1.11,0h1.11l.16,0h5.31l.48-.07a.91.91,0,0,0,.23-.39l.09-.2h.6q0,.56,0,1.68V412a1.82,1.82,0,0,1,0,.36,2.93,2.93,0,0,1-.58.13,5.42,5.42,0,0,1-.46-.91,3.71,3.71,0,0,0-.31-.66.46.46,0,0,0-.23-.14q-.2,0-1.72,0l-.57,0a4.28,4.28,0,0,0,0,.52v3.46l0,2.56v1.05a2.74,2.74,0,0,0,.1.84,2.1,2.1,0,0,0,.48.1l.6.13a3.11,3.11,0,0,1,.43.13c0,.19,0,.31,0,.36a1.31,1.31,0,0,1,0,.21h-.29a14.09,14.09,0,0,1-1.42-.06q-.58-.06-2.11-.06-.24,0-1.42.1l-.6,0c0-.08,0-.14,0-.19v-.25a1.14,1.14,0,0,1,.67-.35,6.15,6.15,0,0,0,1.16-.36,1,1,0,0,0,.1-.4q.06-1,.06-3.09l0-3.06a13.14,13.14,0,0,0,0-1.53.21.21,0,0,0-.06-.11.2.2,0,0,0-.11,0q-.25,0-1.63,0a2.37,2.37,0,0,0-1,.15,4.8,4.8,0,0,0-1,1.1c-.14.17-.23.26-.3.26a1.78,1.78,0,0,1-.48-.32,15.85,15.85,0,0,0,.7-2.1C478.87,409.49,478.93,409.29,479,409.18Z" transform="translate(-268.3 -194.58)"/></svg>