<svg id="Layer_1" data-name="Layer 1" xmlns="http://www.w3.org/2000/svg" viewBox="0 0 196.33 74.58"><defs><style>.cls-1{fill:#fff;}.cls-2{fill:#a91e22;}.cls-3{fill:#ed1c24;}</style></defs><title>zupietru-logo-horizontal</title><path class="cls-1" d="M327.4,336.91c.36-.58.74-1.14,1.15-1.68s.82-1.08,1.26-1.61l0,0c.42-.66.86-1.31,1.3-2s.88-1.3,1.33-1.93l-.11.19a3.13,3.13,0,0,1,.17-.38c.06-.11.12-.22.19-.32a3.74,3.74,0,0,1,.47-.58,3.38,3.38,0,0,1,1.3-.82,4,4,0,0,1,1.5-.21l.62,0,.56,0a11.13,11.13,0,0,0,2.16-.1,6.54,6.54,0,0,0,1-.24l.46-.18.2-.1A.81.81,0,0,0,341,327a2.39,2.39,0,0,0,.73-1.44,8.22,8.22,0,0,0,.15-1c0-.37,0-.71,0-1.13,0-.8.07-1.61.13-2.4l0-.58,0-.34a2.21,2.21,0,0,1,.1-.47,3.83,3.83,0,0,1,.8-1.29l-.11.17,0,.05v0a.54.54,0,0,0,0-.08.79.79,0,0,0,0-.22,1.75,1.75,0,0,0-.28-.53,3.83,3.83,0,0,0-.49-.53c-.19-.17-.39-.33-.6-.49l-1.46-1.1,1.79-.23a8.25,8.25,0,0,0,1.2-.25,3.94,3.94,0,0,0,.54-.19,1.35,1.35,0,0,0,.34-.21.31.31,0,0,0,.09-.2,1.86,1.86,0,0,0,0-.48l-.06-.36a2.19,2.19,0,0,1,0-.25v-.15l0-.68a6,6,0,0,1,.15-1.5,3.87,3.87,0,0,1,.11-.38,1.46,1.46,0,0,1,.26-.48,1.93,1.93,0,0,1,.79-.53,5.54,5.54,0,0,1,1.47-.3,11.25,11.25,0,0,1,1.42,0H348a1.58,1.58,0,0,0,1.06-.55,1.46,1.46,0,0,0,0-1.21,3.13,3.13,0,0,0-.13-.34,3.37,3.37,0,0,0-.17-.33l-.39-.71-.78-1.42c-1-1.89-2.06-3.79-3.06-5.7,1.2,1.79,2.37,3.6,3.55,5.41l.88,1.36.44.68a4.2,4.2,0,0,1,.22.38,3.9,3.9,0,0,1,.18.41,3,3,0,0,1,.2.91,1.9,1.9,0,0,1-.22,1,2,2,0,0,1-.74.73,3.36,3.36,0,0,1-.88.34h-.12a7,7,0,0,0-2.43.38.82.82,0,0,0-.32.22s0,0,0,.12a2.68,2.68,0,0,0-.07.27,4.74,4.74,0,0,0-.05,1.19l.05.67v.26l.07.31a3,3,0,0,1,.08.86,1.72,1.72,0,0,1-.43,1,2.46,2.46,0,0,1-.77.54,5.33,5.33,0,0,1-.72.29,9.6,9.6,0,0,1-1.43.33l.32-1.33a9.39,9.39,0,0,1,.75.58,5.32,5.32,0,0,1,.7.72,3.26,3.26,0,0,1,.54,1,2.32,2.32,0,0,1,.12.63,2.07,2.07,0,0,1,0,.35c0,.06,0,.12,0,.19a1.27,1.27,0,0,1-.09.25l0,0-.1.13a2.3,2.3,0,0,0-.37.75.42.42,0,0,0,0,.11v.86c0,.79,0,1.56,0,2.34,0,.37,0,.82,0,1.24a9.21,9.21,0,0,1-.15,1.31,5.6,5.6,0,0,1-.44,1.36,3.42,3.42,0,0,1-1,1.28,2.74,2.74,0,0,1-.37.24c-.13.08-.22.11-.33.16s-.43.18-.65.25a7.21,7.21,0,0,1-1.32.3,11.5,11.5,0,0,1-2.57,0l-.62-.07-.56-.08a2.26,2.26,0,0,0-.85,0,2,2,0,0,0-.73.37,2.16,2.16,0,0,0-.31.31l-.13.18-.09.15-.11.19c-.51.59-1,1.19-1.54,1.77s-1,1.17-1.57,1.74l0,0c-.51.43-1,.88-1.51,1.32Z" transform="translate(-298.49 -269.64)"/><path class="cls-1" d="M336,329.41c-2.41-.86-4.79-1.77-7.16-2.72s-4.72-1.94-7-3.06a32.41,32.41,0,0,1-3.38-1.85,9.4,9.4,0,0,1-.8-.57,5.71,5.71,0,0,1-.72-.67q-.66-.69-1.28-1.43a10.75,10.75,0,0,1-2-3.27,10.1,10.1,0,0,1-.5-3.78,13.44,13.44,0,0,0,.17,1.89,8.61,8.61,0,0,0,.52,1.81,10.46,10.46,0,0,0,2.13,3.08q.65.69,1.34,1.34a7,7,0,0,0,1.48,1.09,31.79,31.79,0,0,0,3.4,1.64c2.33,1,4.72,1.84,7.11,2.67s4.82,1.6,7.24,2.33Z" transform="translate(-298.49 -269.64)"/><path class="cls-2" d="M299.74,289.77s-1.25-.56-1.25-3.47,1.14-11.25,9.58-13.75c0,0,15.14-4.72,23.88-1.11a9.51,9.51,0,0,0,2.92,1.94,31.18,31.18,0,0,0,5.55,1.53,5.56,5.56,0,0,1,3.89,1.39c1.25,1.25,9,7.92,9,7.92a46.52,46.52,0,0,1,3.37,3.51c1,1.33.89,4.17.89,4.17a2.55,2.55,0,0,0-1.76-1.57,24.86,24.86,0,0,0-10,0,62.77,62.77,0,0,1-8.19,1.67c-3.95.6-5.42.28-11.8-.56s-13.89-2.5-16.94-2.5S300.3,289.35,299.74,289.77Z" transform="translate(-298.49 -269.64)"/><path class="cls-2" d="M328.35,294.58s9,0,11-.42,5.69-1.11,7.36-1.67,9.37-2.38,11.47.65c0,0,2.26,4.38-.74,7.45a12.21,12.21,0,0,1-3.28,2.29c-.94.31-.24-.47-1.62-.1a10.54,10.54,0,0,0,4-3.62,4.78,4.78,0,0,0,.22-4.17s-.85-2.14-4.34-.41c-3,1.49-7.36,4.17-11.94,4.17A21.69,21.69,0,0,1,328.35,294.58Z" transform="translate(-298.49 -269.64)"/><path class="cls-2" d="M346,300.83s3.38,3,6,2.6c1.88-.26,2.54-.33,5.2-3.13,0,0,.54-4.32,0-2.77a7.91,7.91,0,0,1-5,4.94A9.48,9.48,0,0,1,346,300.83Z" transform="translate(-298.49 -269.64)"/><path class="cls-2" d="M299.19,295.69s-.09-3.6.28-4.19,8.7-1.36,9.63-1.27S299.56,294.43,299.19,295.69Z" transform="translate(-298.49 -269.64)"/><path class="cls-2" d="M333.79,270.87a13.79,13.79,0,0,0,9.15,2.89s1.93-1.39-3.76-3.15S332.53,269.82,333.79,270.87Z" transform="translate(-298.49 -269.64)"/><path class="cls-1" d="M312.09,297.52a4.45,4.45,0,0,0-4-1.55,5.44,5.44,0,0,0-.72.15l-.35.1-.31.13a2.46,2.46,0,0,0-1.29,2.14,9.82,9.82,0,0,0,.25,2.92,25.15,25.15,0,0,0,.85,2.93l.13.36a3,3,0,0,0,.13.3c.1.2.23.41.36.61a9.45,9.45,0,0,0,.91,1.17,8.33,8.33,0,0,0,2.29,1.85,3.38,3.38,0,0,0,2.78.3h0a.34.34,0,0,0,.13-.09.85.85,0,0,0,.14-.19,2,2,0,0,0,.18-.49,5.52,5.52,0,0,0,.11-1.11,4.79,4.79,0,0,1,.11,1.14,2.27,2.27,0,0,1-.11.59,1.2,1.2,0,0,1-.15.29.68.68,0,0,1-.31.25h0a3.36,3.36,0,0,1-1.63.4,4.63,4.63,0,0,1-1.65-.35,8.41,8.41,0,0,1-2.71-1.87,10.52,10.52,0,0,1-1.07-1.26,5.74,5.74,0,0,1-.46-.72,4.25,4.25,0,0,1-.19-.41l-.14-.37a19.34,19.34,0,0,1-.91-3.09,9.54,9.54,0,0,1-.17-3.3,4.19,4.19,0,0,1,.6-1.67,3,3,0,0,1,1.43-1.14l.43-.13.41-.08a5.89,5.89,0,0,1,.83-.08,4.75,4.75,0,0,1,1.65.24A4.31,4.31,0,0,1,312.09,297.52Z" transform="translate(-298.49 -269.64)"/><path class="cls-1" d="M333,344.18a91.36,91.36,0,0,0-7.75-6.64c-1.34-1-2.69-1.95-4.09-2.85s-2.9-1.77-4.41-2.63a43.12,43.12,0,0,1-4.45-2.83,25.08,25.08,0,0,1-3.9-3.6c-.3-.33-.55-.69-.83-1l-.41-.52-.37-.54-.74-1.09-.67-1.13-.33-.56-.3-.58-.6-1.16c-.37-.79-.7-1.59-1.05-2.38a.12.12,0,0,1,.21-.1h0a33.84,33.84,0,0,0,6,8.27,30.37,30.37,0,0,0,8.38,5.57c1.54.75,3.13,1.45,4.7,2.27a22.6,22.6,0,0,1,4.41,3,28.94,28.94,0,0,1,3.64,3.87,22.46,22.46,0,0,1,2.8,4.48.12.12,0,0,1-.19.14Z" transform="translate(-298.49 -269.64)"/><path class="cls-1" d="M371.85,305.49c-2.51.12-4.2-.46-4.2-1.29,0-2.42,3-4.81,4.45-5.46-.68.58-2.45,2.21-2.45,3.22s1.5,1.07,3,1.1c10.09.09,19.41-4.41,20.36-4.38.18,0,.52.71.31.71a128.17,128.17,0,0,0-26.89,17.94c-2.48,2.21-5.76,4.88-8.13,7.45,3-1,8.31-1.63,12.88-1.59s9,.89,11.28,3.13c-2.33-1.44-5.55-2-9-2-8.74-.09-19.41,3.28-19.41,5.33,0,.74-.83-.74-.83-1.84.06-5.15,27.5-24.13,36.64-27.47C389.85,300.27,378.84,305.12,371.85,305.49Z" transform="translate(-298.49 -269.64)"/><path class="cls-1" d="M387.92,315.45c-3.1,3.16-7.21,7.57-9,7.94h-.25a1.91,1.91,0,0,1-1.44-1.56c0-1.32,1.69-4.41,3.43-6.84a21,21,0,0,1,3.13-3.59.62.62,0,0,1,.43-.18,2.57,2.57,0,0,1,1.93,2c0,.12-.12,0-.4-.06-.46-.06-1.75,1.53-2.79,2.88-1.56,2.05-3.1,4.72-3.1,5.61,1.47-.61,4.6-3.37,6.07-4.78,1.59-1.56,3.86-4.23,5.61-5.58a.67.67,0,0,1,.43-.15,2.54,2.54,0,0,1,1.9,2c0,.12-.09,0-.37-.06a2,2,0,0,0-1,.7c-.46.49-1.32,1.6-2.33,2.94-1.53,2.05-2.67,4.23-2.67,5.09,1.93-.58,6.29-4.75,8.16-6.53.18-.15.34.09.25.18-2.67,2.91-7.67,8-9.5,8a.81.81,0,0,1-.49-.18,2.12,2.12,0,0,1-1.1-1.5,5.57,5.57,0,0,1,.34-1.32A20.64,20.64,0,0,1,387.92,315.45Z" transform="translate(-298.49 -269.64)"/><path class="cls-1" d="M402,304.44c1.26-.61,5-5.37,5-5.79,0-.15.21-.28.4-.28a1.93,1.93,0,0,1,1.5,1.56c0,.89-4.26,4.69-6.87,4.69C402,304.63,401.93,304.54,402,304.44Z" transform="translate(-298.49 -269.64)"/><path class="cls-1" d="M417.53,320.48c-2.39,0-3.92-.64-3.92-1.78,0-1.66,4.45-4.11,5.21-4.11a.11.11,0,0,1,.09,0c-1,.55-4.17,2.54-4.17,3.89,0,.15.18.34.77.34a16,16,0,0,0,3.31-.4c5.21-8,13.37-17.29,15.7-17.29a2.82,2.82,0,0,1,2.51,2.33,1,1,0,0,0-.86-.43c-1.81,0-8.4,7.42-13.64,14.41,9.35-2.91,22.11-9.69,22.11-14.59,0-2.91-4-4.54-9.38-4.54-10.82,0-24.59,9.2-24.59,13.18,0,1.26,1.47,2,2.27,2.09,0,0,0,0-.49,0-2.18,0-3.86-.61-3.86-2.91,0-4.17,11-13.28,26.89-13.28,3.31,0,10.67,1.29,10.67,6.32,0,8.06-17.2,14.81-25.57,16.37-2.88,4-5,7.54-5,8.8,0,.58,0,1,.52,1.13a1.53,1.53,0,0,1-.49.09c-.83,0-1.35-.77-1.35-1.9C414.25,326.61,415.57,323.73,417.53,320.48Z" transform="translate(-298.49 -269.64)"/><path class="cls-1" d="M438.84,323.42a2.1,2.1,0,0,1-1.26-1.47c0-1.78,4.45-8.46,6.41-10a.64.64,0,0,1,.46-.18,2.66,2.66,0,0,1,1.93,2c0,.12-.15,0-.4-.06-1.26-.12-5.46,6.87-5.83,8.13,1.87-.49,6.35-4.75,8.22-6.56.22-.15.37.09.28.18-2.67,2.88-7.54,7.88-9.44,8A1.64,1.64,0,0,1,438.84,323.42ZM449.08,308c.28.31.46.77.34.77a.92.92,0,0,0-.64,0,9.38,9.38,0,0,0-2.3,2c-.43.55-1.07-.09-1.1-.64,0-.89,1.14-2.88,1.93-3.13A2.3,2.3,0,0,1,449.08,308Z" transform="translate(-298.49 -269.64)"/><path class="cls-1" d="M447.52,321.52c0,.37.25.58.92.58,2.24,0,7.85-4.26,10.95-6.84.09-.06.31.09.22.18-2.3,2.15-8.4,8-12.48,8a2.49,2.49,0,0,1-2.18-1.93,5.7,5.7,0,0,1,.43-2,15.28,15.28,0,0,1,4.23-5.31c2.54-2.12,5.27-3.07,6.59-3.07.46,0,1.87.7,1.87,1.56,0,1.9-5.89,6.32-9.32,6.41A5.2,5.2,0,0,0,447.52,321.52Zm1.63-3c2.67-.31,7.76-5.27,7.94-6.44C453.68,313.15,450.15,316.86,449.14,318.49Z" transform="translate(-298.49 -269.64)"/><path class="cls-1" d="M469.31,301.32a2.31,2.31,0,0,1,1.14-.61c1.72-.09,2.94,1.69,2.36,1.35-1-.46-2.79,2-4.14,3.74a70,70,0,0,1,15.79.92c.25.06.37.12,0,.09a72.34,72.34,0,0,0-16.8.28c-1.13,1.41-2.15,2.94-3.37,4.75a66.65,66.65,0,0,0-5.7,9.9c1.32.15,6.41-4.84,8.22-6.5a.14.14,0,0,1,.21.18c-1.5,1.72-6.84,7.3-8.68,8a1.08,1.08,0,0,1-1-.12,3.36,3.36,0,0,1-1.1-1.23.73.73,0,0,1-.09-.46c0-.92,1.38-3.92,5.15-9.75.83-1.26,1.72-2.61,2.85-4.11-2.91.58-4.72,2.05-3.92,2.51a1.88,1.88,0,0,1-1.63-1.56c-.12-1.38,3.25-2.24,6.68-2.64C467.69,302.91,468.55,301.93,469.31,301.32Z" transform="translate(-298.49 -269.64)"/><path class="cls-1" d="M470.17,311.34a.73.73,0,0,1,.43-.15,2.54,2.54,0,0,1,1.9,2c0,.12-.09,0-.34-.06-.46,0-1.53,1.16-2.45,2.39a39.78,39.78,0,0,0-2.54,3.68,38.82,38.82,0,0,1,7.33-6.59,7,7,0,0,1,2.76-1.44c.34,0,1.6,1.29,1.38,1.53-.68.71-3.22,2.94-4.23,5.34,1.47-.12,3.59-1.5,5.49-3.19,0,0,.21-.06.25,0-.55.74-4.23,4.17-6.35,4.17-.55,0-1.47-1.07-1.47-1.44A7.77,7.77,0,0,1,474.1,314a23.4,23.4,0,0,0-6.35,5.18c-1.56,1.69-3.4,4.38-2.73,4.69-.89.21-1.62-.74-1.84-1.59a2.93,2.93,0,0,1,.46-1.56,36.3,36.3,0,0,1,3.37-5.61A20.69,20.69,0,0,1,470.17,311.34Z" transform="translate(-298.49 -269.64)"/><path class="cls-1" d="M486.85,315.45c-3.1,3.16-7.21,7.57-9,7.94h-.24a1.91,1.91,0,0,1-1.44-1.56c0-1.32,1.69-4.41,3.43-6.84a21,21,0,0,1,3.13-3.59.62.62,0,0,1,.43-.18,2.57,2.57,0,0,1,1.93,2c0,.12-.12,0-.4-.06-.46-.06-1.75,1.53-2.79,2.88-1.56,2.05-3.1,4.72-3.1,5.61,1.47-.61,4.6-3.37,6.07-4.78,1.59-1.56,3.86-4.23,5.61-5.58a.67.67,0,0,1,.43-.15,2.54,2.54,0,0,1,1.9,2c0,.12-.09,0-.37-.06a2,2,0,0,0-1,.7c-.46.49-1.32,1.6-2.33,2.94-1.53,2.05-2.67,4.23-2.67,5.09,1.93-.58,6.29-4.75,8.16-6.53.18-.15.34.09.25.18-2.67,2.91-7.67,8-9.5,8a.82.82,0,0,1-.49-.18,2.12,2.12,0,0,1-1.1-1.5,5.53,5.53,0,0,1,.34-1.32A20.6,20.6,0,0,1,486.85,315.45Z" transform="translate(-298.49 -269.64)"/><path class="cls-3" d="M374.18,335a3,3,0,0,1,.08.47,6.7,6.7,0,0,1,.05.72,1,1,0,0,1,0,.18h0l-.33,0h-.05a2.34,2.34,0,0,0-.4-.81,1.08,1.08,0,0,0-.81-.36,1,1,0,0,0-.7.23.74.74,0,0,0-.26.58.8.8,0,0,0,.26.56,2.57,2.57,0,0,0,1.08.51,5.21,5.21,0,0,1,.67.26,2,2,0,0,1,.6.39,1.7,1.7,0,0,1,.37.54,1.81,1.81,0,0,1,.1.65,2.32,2.32,0,0,1-.16.84,1.25,1.25,0,0,1-.28.41,2.66,2.66,0,0,1-.42.32,2.09,2.09,0,0,1-.59.26,3.13,3.13,0,0,1-.79.08,3.82,3.82,0,0,1-.76-.09l-.54-.16a.9.9,0,0,1-.29-.11.17.17,0,0,1,0-.09v-.05s0-.24,0-.62q0-.29,0-.42v-.17h.42q.22.5.28.61a1.5,1.5,0,0,0,.31.37,1.27,1.27,0,0,0,.4.23,1.5,1.5,0,0,0,.51.08,1.62,1.62,0,0,0,.54-.1,1,1,0,0,0,.47-.34.79.79,0,0,0-.13-1.13,3.63,3.63,0,0,0-1-.47,5.05,5.05,0,0,1-1.16-.53,1.59,1.59,0,0,1-.51-.62,1.72,1.72,0,0,1-.19-.74,1.64,1.64,0,0,1,.52-1.22,2.1,2.1,0,0,1,1.52-.5,4,4,0,0,1,.64.08A4.85,4.85,0,0,1,374.18,335Z" transform="translate(-298.49 -269.64)"/><path class="cls-3" d="M377.31,340.77v-.33l.3-.08a2,2,0,0,0,.44-.15.78.78,0,0,0,.08-.39V338q0-.9,0-.92v-.85l0-.52v-.19a1,1,0,0,0,0-.14,1.77,1.77,0,0,0-.6-.11h-.16v-.4l1.29.05h.3l.86,0,.42,0q0,.09,0,.14c0,.05,0,.12,0,.2l-.41.12-.38.11a1.61,1.61,0,0,0,0,.34,3,3,0,0,0,0,.32q0,.77,0,1.18v1.2l0,.61,0,.91v.17a.31.31,0,0,0,0,.1l.5.08.27,0a1.77,1.77,0,0,1,0,.23s0,.08,0,.15h-.38l-.6-.06h-.8q-.24,0-.7,0Z" transform="translate(-298.49 -269.64)"/><path class="cls-3" d="M388,335q.06.14.24.77a2.39,2.39,0,0,1,.09.62h-.41a3,3,0,0,0-.9-.88,2,2,0,0,0-1-.27,1.37,1.37,0,0,0-1.13.55,3.27,3.27,0,0,0-.58,2.07,4.19,4.19,0,0,0,.1,1.1,2.85,2.85,0,0,0,.41.86,1.34,1.34,0,0,0,.5.4,1.84,1.84,0,0,0,.85.2,1.71,1.71,0,0,0,1-.31,3.44,3.44,0,0,0,.89-.92,2.69,2.69,0,0,1,.44,0,3.2,3.2,0,0,1-.06.36l-.1.57,0,.14-.06.21a1.94,1.94,0,0,1-.78.32,6.07,6.07,0,0,1-1.23.11,5.11,5.11,0,0,1-1.05-.1,2.52,2.52,0,0,1-.85-.33,3.1,3.1,0,0,1-.81-.71,2.68,2.68,0,0,1-.44-.83,3.32,3.32,0,0,1-.14-1,3,3,0,0,1,.89-2.23,3.1,3.1,0,0,1,2.27-.88,9.44,9.44,0,0,1,1.06.06A6.64,6.64,0,0,1,388,335Z" transform="translate(-298.49 -269.64)"/><path class="cls-3" d="M391,340.77v-.33l.3-.08a2,2,0,0,0,.44-.15.78.78,0,0,0,.08-.39V338q0-.9,0-.92v-.85l0-.52v-.19a1,1,0,0,0,0-.14,1.77,1.77,0,0,0-.6-.11H391v-.4l1.3.05h.3l.86,0,.42,0c0,.06,0,.11,0,.14s0,.12,0,.2l-.41.12-.38.11a1.61,1.61,0,0,0,0,.34,3,3,0,0,0,0,.32q0,.77,0,1.18v1.2l0,.61,0,.91v.17a.31.31,0,0,0,0,.1l.5.08.27,0a1.77,1.77,0,0,1,0,.23s0,.08,0,.15h-.38l-.6-.06h-.8c-.16,0-.39,0-.7,0Z" transform="translate(-298.49 -269.64)"/><path class="cls-3" d="M396.34,340.4l.4-.08.3,0a.39.39,0,0,0,.24-.06.77.77,0,0,0,0-.18v-.58l0-.59v-1.29l0-1v-.52a2.41,2.41,0,0,0-.06-.52.59.59,0,0,0-.26-.12l-.17-.07-.2-.06a.56.56,0,0,1-.22-.1c0-.08,0-.14,0-.18s0-.06,0-.11l.09,0,.79,0h1.13q.31,0,.8,0h.17a.12.12,0,0,1,.1,0,.33.33,0,0,1,0,.18.22.22,0,0,1-.05.16.41.41,0,0,1-.2.05l-.56.13-.08,0,0,.06v.54s0,.1,0,.25,0,.08,0,.12,0,.13,0,.24,0,.34,0,.48,0,.34,0,.54,0,.17,0,.29l0,2.15a.25.25,0,0,0,0,.18l.43,0h.55a3.16,3.16,0,0,0,1.15-.17,1,1,0,0,0,.41-.25,1.29,1.29,0,0,0,.25-.29,2.65,2.65,0,0,0,.22-.52h.14l.25,0v.13q0,.33-.08,1.14a1.94,1.94,0,0,1-.06.4l-.13,0h-.4l-.54,0-.86,0-1.52,0-.92,0-1,.05h-.15a.47.47,0,0,1,0-.09A.88.88,0,0,1,396.34,340.4Z" transform="translate(-298.49 -269.64)"/><path class="cls-3" d="M403.38,334.94a2.63,2.63,0,0,1,.57,0h0l.16,0h0l.37,0c.37,0,.67,0,.89,0a5,5,0,0,0,.71,0h.11a.28.28,0,0,1,0,.09v.24l-.25.06-.2,0-.3.05,0,0v.06a7.35,7.35,0,0,0,.63,1l.25.41.26.42,0,.08.08.12.1.15.15.22.47-.66q.23-.3.6-.87l0,0,.38-.68a.42.42,0,0,0,.09-.2.44.44,0,0,0,0-.08l-.11-.05-.19,0-.18,0-.14,0s0-.15,0-.34l.93.05.11,0h.29l.38,0h.13v.34l-.06,0a1.3,1.3,0,0,0-.52.17,2.82,2.82,0,0,0-.55.74l-.59.88q-.53.72-.68,1a.56.56,0,0,0-.07.16v.64a1.93,1.93,0,0,0,0,.24l0,1.16a.1.1,0,0,0,.05.05l.29,0a2.19,2.19,0,0,1,.48.08.1.1,0,0,1,0,.09.87.87,0,0,1,0,.11s0,.07,0,.13h-.52l-.49,0-.33,0-.5,0h-.38l-.2,0-.34,0h-.31c0-.06,0-.11,0-.14s0-.08,0-.15l.83-.17.1,0c0-.14,0-.22,0-.26q0-.69,0-.94t0-.29v-.1a1.11,1.11,0,0,0-.3-.66l-.16-.21-.89-1.35-.42-.67-.28-.37a.49.49,0,0,0-.16-.1l-.41-.09a.15.15,0,0,1,0-.07s0,0,0-.07S403.37,335,403.38,334.94Z" transform="translate(-298.49 -269.64)"/><path class="cls-3" d="M421.51,335.29a4.88,4.88,0,0,1,.07.52q0,.39,0,.56a.57.57,0,0,1,0,.17,1.64,1.64,0,0,1-.33,0,4.76,4.76,0,0,0-.49-.67,2.23,2.23,0,0,0-.67-.43,1.75,1.75,0,0,0-.7-.13,1.71,1.71,0,0,0-1.33.68,3,3,0,0,0-.58,2,3.41,3.41,0,0,0,.22,1.22,2,2,0,0,0,.67.93,1.7,1.7,0,0,0,1.06.34,2.76,2.76,0,0,0,.62-.08.52.52,0,0,0,.27-.14.38.38,0,0,0,.1-.22,5.81,5.81,0,0,0,0-.74c0-.31,0-.53,0-.64a.25.25,0,0,0-.06-.09l-.18-.07-.4-.11a.29.29,0,0,1-.16-.08.63.63,0,0,1,0-.09.7.7,0,0,1,0-.18l.11,0c.33,0,.61,0,.86,0h1.6c0,.08,0,.14,0,.2a.26.26,0,0,1,0,.11l-.26.12-.21.09a.2.2,0,0,0,0,.11,5,5,0,0,0,0,.54c0,.36,0,.57,0,.64,0,.22,0,.35,0,.38s0,.18,0,.21a2.12,2.12,0,0,1-.78.29,6.49,6.49,0,0,1-1.53.16,5.12,5.12,0,0,1-1.06-.1,2.51,2.51,0,0,1-.77-.29,2.83,2.83,0,0,1-.73-.62,2.53,2.53,0,0,1-.45-.78,3.6,3.6,0,0,1-.21-1.19,3.27,3.27,0,0,1,.31-1.35,3,3,0,0,1,.64-.89,3,3,0,0,1,1-.63,3.72,3.72,0,0,1,1.34-.24l.29,0a3.74,3.74,0,0,1,1,.14A3.39,3.39,0,0,1,421.51,335.29Z" transform="translate(-298.49 -269.64)"/><path class="cls-3" d="M424.67,337.77a3.13,3.13,0,0,1,.22-1.13,2.64,2.64,0,0,1,.44-.75,2.92,2.92,0,0,1,.71-.6,3.23,3.23,0,0,1,.88-.38,4,4,0,0,1,1-.12,3.55,3.55,0,0,1,1.63.35,2.8,2.8,0,0,1,1.09,1,2.94,2.94,0,0,1,.52,1.64,3.07,3.07,0,0,1-.87,2.2,3.19,3.19,0,0,1-2.42.91,4.89,4.89,0,0,1-.72-.05,2.52,2.52,0,0,1-.44-.1l-.39-.13a3.84,3.84,0,0,1-.79-.58,3,3,0,0,1-.51-.67,3.84,3.84,0,0,1-.26-.75A3.12,3.12,0,0,1,424.67,337.77Zm3.08-2.53a1.32,1.32,0,0,0-.7.18,1.48,1.48,0,0,0-.46.41,2.49,2.49,0,0,0-.37.82,4.64,4.64,0,0,0-.11,1.08,3.41,3.41,0,0,0,0,.56l0,.19a2.53,2.53,0,0,0,.09.49,5.14,5.14,0,0,0,.28.71,1.85,1.85,0,0,0,.4.46,1.31,1.31,0,0,0,.39.22,1.44,1.44,0,0,0,.52.1,1.87,1.87,0,0,0,.91-.23,1.61,1.61,0,0,0,.67-.78,3.42,3.42,0,0,0,.25-1.43c0-.24,0-.57,0-1l0-.09a1.78,1.78,0,0,1,0-.19,2,2,0,0,0-.64-1.13A1.8,1.8,0,0,0,427.75,335.24Z" transform="translate(-298.49 -269.64)"/><path class="cls-3" d="M433.63,335.29v-.36h.64l.7,0h.71l.62,0h.37v.35a3.72,3.72,0,0,1-.53,0,.43.43,0,0,0-.34.1,1.34,1.34,0,0,0-.05.54c0,.1,0,.18,0,.24v.59l0,.36,0,.78.06,1.14a1.74,1.74,0,0,0,.22.82,1,1,0,0,0,.41.38,1.66,1.66,0,0,0,.75.19,2.79,2.79,0,0,0,.81-.11,1.32,1.32,0,0,0,.42-.21,1.1,1.1,0,0,0,.27-.26,1.77,1.77,0,0,0,.23-.47,3.64,3.64,0,0,0,.09-.93q0-1.1-.12-2.47l0-.24a.58.58,0,0,0-.1-.36.46.46,0,0,0-.33-.14H438v-.35h.36l.86,0a8.07,8.07,0,0,0,.83,0h.08a1.42,1.42,0,0,1,0,.21.58.58,0,0,1,0,.12,1.68,1.68,0,0,1-.35.05,1.21,1.21,0,0,0-.33.07.21.21,0,0,0-.06.17c0,.05,0,.13,0,.24a3.81,3.81,0,0,1,0,.39c0,.11,0,.19,0,.25s0,.12,0,.19c0,.22,0,.44,0,.66l0,.92a7.65,7.65,0,0,1-.06,1.24,1.58,1.58,0,0,1-.17.49,1.82,1.82,0,0,1-.47.5,2.39,2.39,0,0,1-.77.36,3.87,3.87,0,0,1-1.08.13,3.46,3.46,0,0,1-1.21-.19,1.77,1.77,0,0,1-.76-.49,1.72,1.72,0,0,1-.35-.79,5.14,5.14,0,0,1-.07-1v-2.16a2.55,2.55,0,0,0-.07-.87q-.1-.14-.62-.16Z" transform="translate(-298.49 -269.64)"/><path class="cls-3" d="M442.75,340.49a1,1,0,0,1,.35-.09,2,2,0,0,0,.42-.1,1.13,1.13,0,0,0,0-.13s0-.19,0-.43v-1l0-.54v-.67c0-.33,0-.64,0-.92q0-.94,0-1.2l-.27-.05-.49,0V335l0,0a2.65,2.65,0,0,1,.42,0h.42l.35,0h.24l.57,0a11,11,0,0,1,1.12-.05,2.18,2.18,0,0,1,1.48.47,1.41,1.41,0,0,1,.55,1.08,1.31,1.31,0,0,1-.29.83,1.8,1.8,0,0,1-.91.56l.14.22.31.46.72,1.17a3.53,3.53,0,0,0,.36.55,1.09,1.09,0,0,0,.35.17,1.41,1.41,0,0,1,.31.15.42.42,0,0,1,0,.14s0,.06,0,.1h-.21l-.24,0h-.19l-.36,0h-.45l-.32,0-.19,0-.15-.3q-.19-.34-.27-.51-.2-.44-.68-1.4a1.76,1.76,0,0,0-.32-.5.84.84,0,0,0-.47-.1h-.31a3.12,3.12,0,0,0,0,.31l0,1,0,.85a1,1,0,0,0,.33.12,3.7,3.7,0,0,1,.61.17,2.32,2.32,0,0,1,0,.34h-.29l-1.15-.09h-.17l-.62,0-.52,0h-.2q0-.11,0-.14A1.17,1.17,0,0,1,442.75,340.49Zm2-2.93h.32a1.68,1.68,0,0,0,1.09-.28.92.92,0,0,0,.32-.74,1.79,1.79,0,0,0-.08-.54,1,1,0,0,0-.2-.37,1,1,0,0,0-.44-.27,2.14,2.14,0,0,0-.64-.07l-.36,0v1.56c0,.14,0,.32,0,.54Z" transform="translate(-298.49 -269.64)"/><path class="cls-3" d="M450.88,340.77v-.31a1.33,1.33,0,0,0,.72-.23,1.21,1.21,0,0,0,.15-.57l.06-1.61.07-1.64c0-.1,0-.16,0-.18a1.87,1.87,0,0,0-.08-.74,1.2,1.2,0,0,0-.58-.2l-.2,0q0-.11,0-.19v-.14h.39l1.32,0h.34a1.47,1.47,0,0,1,.16.24q.17.33.44,1l.05.12.7,1.54.07.16.14.31.15.32.15.31c0-.07.08-.15.12-.24q.18-.42.35-.76.3-.62.81-1.88.08-.2.27-.61c.13-.27.19-.42.21-.43a.26.26,0,0,1,.16,0H457l.57,0,.76,0,.32,0h.11s0,.08,0,.1v.14s0,.07,0,.12a2.5,2.5,0,0,0-.69.19c-.12.06-.19.14-.19.23v.07l.08,1.39q0,.19.07,1.89,0,.38.06,1a1,1,0,0,1,0,.11.18.18,0,0,0,0,.14s.3.11.81.26c0,0,0,.08,0,.11s0,.13,0,.19l-.62-.05a8.7,8.7,0,0,0-.92-.05q-.66,0-1.28.05H456v-.31a2.46,2.46,0,0,1,.49-.12.41.41,0,0,0,.28-.12,1.11,1.11,0,0,0,.06-.48c0-.1,0-.19,0-.26q0-.48,0-1.32l-.08-1.6c0-.23,0-.38,0-.47l-1.13,2.59-.12.26-.14.3q-.35.84-.49,1.28c0,.08-.06.17-.11.29h-.35l-.24-.69q-.11-.27-.37-.82l-.24-.52-.06-.12-.05-.11v0l-.68-1.45-.41-.88,0,2.14,0,1.39a.75.75,0,0,0,.13.49,1.13,1.13,0,0,0,.56.25l.22.05v.33l-.56,0a7.31,7.31,0,0,0-.8,0Z" transform="translate(-298.49 -269.64)"/><path class="cls-3" d="M461.23,334.91l.45,0a6.08,6.08,0,0,0,.83,0l.84,0q1,0,1.83,0H466a7.08,7.08,0,0,1,.82.07.35.35,0,0,1,.08.24v1.12s0,0,0,.08h-.34l-.11-.27-.18-.32a2.09,2.09,0,0,0-.29-.42,1.22,1.22,0,0,0-.29,0l-.28,0q-.42,0-.91,0l-1,0c0,.08,0,.37,0,.89v1.33h.19q.81,0,1.16,0a1.11,1.11,0,0,0,.43-.09.47.47,0,0,0,.15-.2,6.42,6.42,0,0,0,.16-.67h.32q0,.4,0,.61,0,.48,0,.61c0,.09,0,.16,0,.21s0,.21,0,.39,0,.31,0,.4v.1h-.32l-.07-.3a1.83,1.83,0,0,0-.16-.53.33.33,0,0,0-.18-.12,3.63,3.63,0,0,0-.67,0q-.69,0-1,0v.15c0,.36,0,.66,0,.9v1a.24.24,0,0,0,.12.24,3.69,3.69,0,0,0,1.14.09,5.15,5.15,0,0,0,1.07-.09,1.06,1.06,0,0,0,.53-.3,2.31,2.31,0,0,0,.51-.85h.38l0,.19,0,.14-.17.86-.08.52h-.47l-1.36,0q-.77,0-1.87,0-.54,0-1.34,0h-.19l-.55,0v-.31l.34,0a2.19,2.19,0,0,0,.65-.14.94.94,0,0,0,.05-.33c0-.05,0-.14,0-.26v-2.36l0-.72v-.51l0-.56a.86.86,0,0,0,0-.09.22.22,0,0,0-.14-.06l-.14,0a3,3,0,0,0-.5-.06l-.2,0Z" transform="translate(-298.49 -269.64)"/><path class="cls-3" d="M470,334.65h.28l0,.07a1.54,1.54,0,0,0,.19.29h4.3l.27,0a.52.52,0,0,0,.13-.22l0-.11h.34q0,.31,0,.94v.63a1,1,0,0,1,0,.2,1.62,1.62,0,0,1-.33.07A3,3,0,0,1,475,336a2.08,2.08,0,0,0-.18-.37.25.25,0,0,0-.13-.08c-.07,0-.39,0-1,0l-.32,0a2.38,2.38,0,0,0,0,.29v4a1.53,1.53,0,0,0,.06.47,1.18,1.18,0,0,0,.27.06l.34.07.24.07c0,.11,0,.18,0,.2a.72.72,0,0,1,0,.12h-.16a7.68,7.68,0,0,1-.79,0q-.33,0-1.18,0l-.8.05-.34,0s0-.08,0-.1v-.14a.64.64,0,0,1,.38-.19,3.44,3.44,0,0,0,.65-.2.57.57,0,0,0,.05-.23q0-.54,0-1.73l0-1.71a7.31,7.31,0,0,0,0-.86.12.12,0,0,0,0-.06l-.06,0c-.09,0-.4,0-.92,0a1.31,1.31,0,0,0-.57.08,2.67,2.67,0,0,0-.58.62c-.08.1-.13.14-.17.14a1,1,0,0,1-.27-.18,8.89,8.89,0,0,0,.39-1.18C469.9,334.83,469.94,334.71,470,334.65Z" transform="translate(-298.49 -269.64)"/></svg>