<?xml version="1.0" encoding="iso-8859-1"?>
<!-- Generator: Adobe Illustrator 19.0.0, SVG Export Plug-In . SVG Version: 6.00 Build 0)  -->
<svg version="1.1" id="Capa_1" xmlns="http://www.w3.org/2000/svg" xmlns:xlink="http://www.w3.org/1999/xlink" x="0px" y="0px"
	 viewBox="0 0 480 480" style="enable-background:new 0 0 480 480;" xml:space="preserve">
<g>
	<g>
		<path d="M479.816,215.128c0.033-0.212,0.055-0.426,0.064-0.64c-3.866-41.794-21.383-81.154-49.848-112
			c7.452-27.289-6.742-55.829-33-66.352c10.619-12.759,26.36-20.137,42.96-20.136V0c-24.117,0.018-46.623,12.109-59.952,32.208
			c-1.344-0.096-2.68-0.208-4.048-0.208c-13.994,0.008-27.473,5.28-37.76,14.768c-16.376-4.458-33.268-6.734-50.24-6.768
			c-1.452,0-2.876,0.396-4.12,1.144l-280,168c-0.331,0.24-0.641,0.508-0.928,0.8c-0.283,0.198-0.551,0.417-0.8,0.656
			c-0.523,0.573-0.96,1.22-1.296,1.92c-0.08,0.16-0.2,0.28-0.264,0.44c-0.367,0.905-0.563,1.871-0.576,2.848c0,0.072,0,0.128,0,0.2
			V472c0,4.418,3.582,8,8,8h415.984c30.913-0.035,55.965-25.087,56-56V216C479.95,215.706,479.891,215.415,479.816,215.128z
			 M337.989,75.794c4.919-15.075,18.28-25.821,34.059-27.394c-2.67,7.583-4.041,15.561-4.056,23.6h16
			c-0.005-7.499,1.502-14.921,4.432-21.824c21.002,6.853,32.471,29.433,25.618,50.435c-6.853,21.002-29.434,32.471-50.435,25.618
			C342.606,119.377,331.136,96.796,337.989,75.794z M290.184,56c12.499,0.153,24.947,1.628,37.136,4.4
			c-15.318,26.833-5.983,61.002,20.849,76.32c25.748,14.699,58.493,6.757,74.647-18.104c21.621,25.366,35.556,56.374,40.168,89.384
			H36.872L290.184,56z M15.992,272h384c8.837,0,16,7.163,16,16v48h-400V272z M15.992,352h400v48c0,8.837-7.163,16-16,16h-384V352z
			 M463.992,424c-0.026,22.08-17.92,39.974-40,40h-408v-32h384c17.673,0,32-14.327,32-32V288c0-17.673-14.327-32-32-32h-384v-32h448
			V424z"/>
	</g>
</g>
<g>
	<g>
		<rect x="283.993" y="75.049" transform="matrix(0.7071 -0.7071 0.7071 0.7071 20.4545 233.4229)" width="16" height="33.944"/>
	</g>
</g>
<g>
	<g>
		<rect x="187.024" y="132.022" transform="matrix(0.7071 -0.7071 0.7071 0.7071 -39.2615 185.2586)" width="33.944" height="16"/>
	</g>
</g>
<g>
	<g>
		<rect x="227.995" y="155.056" transform="matrix(0.7071 -0.7071 0.7071 0.7071 -52.5206 217.2596)" width="16" height="33.944"/>
	</g>
</g>
<g>
	<g>
		<rect x="259.024" y="131.998" transform="matrix(0.7071 -0.7071 0.7071 0.7071 -18.1563 236.1632)" width="33.944" height="16"/>
	</g>
</g>
<g>
	<g>
		<rect x="395.032" y="163.989" transform="matrix(0.7071 -0.7071 0.7071 0.7071 -0.9414 341.7054)" width="33.944" height="16"/>
	</g>
</g>
<g>
	<g>
		<rect x="307.03" y="163.991" transform="matrix(0.7071 -0.7071 0.7071 0.7071 -26.7176 279.4798)" width="33.944" height="16"/>
	</g>
</g>
<g>
	<g>
		<rect x="131.021" y="164" transform="matrix(0.7071 -0.7071 0.7071 0.7071 -78.2759 155.0245)" width="33.944" height="16"/>
	</g>
</g>
<g>
</g>
<g>
</g>
<g>
</g>
<g>
</g>
<g>
</g>
<g>
</g>
<g>
</g>
<g>
</g>
<g>
</g>
<g>
</g>
<g>
</g>
<g>
</g>
<g>
</g>
<g>
</g>
<g>
</g>
</svg>
