<?xml version="1.0" encoding="iso-8859-1"?>
<!-- Generator: Adobe Illustrator 19.0.0, SVG Export Plug-In . SVG Version: 6.00 Build 0)  -->
<svg version="1.1" id="Capa_1" xmlns="http://www.w3.org/2000/svg" xmlns:xlink="http://www.w3.org/1999/xlink" x="0px" y="0px"
	 viewBox="0 0 472.037 472.037" style="enable-background:new 0 0 472.037 472.037;" xml:space="preserve">
<g>
	<g>
		<path d="M343.528,45.732c-18.508,0.662-36.391-6.747-49.008-20.304c-30.197-32.32-80.877-34.041-113.196-3.844
			c-1.324,1.237-2.606,2.519-3.844,3.844c-12.647,13.512-30.51,20.91-49.008,20.296c-44.215-1.497-81.272,33.133-82.768,77.348
			c-0.061,1.809-0.061,3.619,0,5.428c0.621,18.497-6.778,36.36-20.296,49c-32.32,30.203-34.035,80.888-3.832,113.208
			c1.234,1.32,2.512,2.598,3.832,3.832c13.518,12.64,20.917,30.503,20.296,49c-1.157,32.426,17.409,62.333,46.984,75.68l6.616-14.56
			c-23.661-10.695-38.516-34.626-37.6-60.576c0.783-23.117-8.463-45.444-25.36-61.24c-25.865-24.169-27.239-64.729-3.071-90.593
			c0.989-1.058,2.013-2.082,3.071-3.071c16.896-15.793,26.142-38.118,25.36-61.232c-1.2-35.383,26.511-65.04,61.894-66.24
			c1.448-0.049,2.898-0.049,4.346,0c23.115,0.775,45.438-8.473,61.232-25.368C201.251,23.31,218.236,15.939,236,16.021
			c17.77-0.078,34.758,7.298,46.832,20.336c15.785,16.908,38.115,26.156,61.232,25.36c25.955-0.917,49.89,13.941,60.584,37.608
			l14.568-6.608C405.861,63.145,375.955,44.581,343.528,45.732z"/>
	</g>
</g>
<g>
	<g>
		<path d="M454.216,185.677l-12.432,10.08c21.026,26.173,18.36,64.121-6.12,87.096c-16.897,15.796-26.143,38.123-25.36,61.24
			c1.196,35.383-26.519,65.037-61.903,66.232c-1.445,0.049-2.892,0.049-4.337,0c-23.116-0.781-45.441,8.469-61.232,25.368
			c-22.98,24.478-60.931,27.141-87.104,6.112l-10.072,12.432c32.709,26.288,80.143,22.962,108.864-7.632
			c12.627-13.542,30.504-20.946,49.008-20.296c44.215,1.497,81.271-33.133,82.768-77.348c0.061-1.806,0.061-3.614,0-5.42
			c-0.621-18.497,6.778-36.36,20.296-49C477.177,265.813,480.498,218.386,454.216,185.677z"/>
	</g>
</g>
<g>
	<g>
		<path d="M466.904,119.876c-6.171-9.873-16.997-15.867-28.64-15.856c-11.637-0.028-22.46,5.968-28.608,15.848l-27.112,43.352
			l-16.888-16.888c-3.124-3.123-8.188-3.123-11.312,0l-208,208c-3.123,3.124-3.123,8.188,0,11.312l16.856,16.92l-43.376,27.112
			c-15.797,9.879-20.594,30.694-10.715,46.491c9.879,15.797,30.694,20.594,46.491,10.715c4.336-2.712,7.999-6.374,10.712-10.71
			l27.144-43.352l16.888,16.888c3.124,3.123,8.188,3.123,11.312,0l208-208c3.123-3.124,3.123-8.188,0-11.312l-16.856-16.92
			l43.376-27.112C471.976,156.49,476.779,135.676,466.904,119.876z M152.8,447.685c-5.227,8.284-16.18,10.763-24.464,5.536
			c-8.284-5.227-10.763-16.18-5.536-24.464c1.41-2.235,3.301-4.126,5.536-5.536l46.504-29.064l7,7L152.8,447.685z M216,412.708
			l-52.688-52.688L360,163.333l52.688,52.688L216,412.708z M453.2,147.285c-1.41,2.234-3.301,4.126-5.536,5.536l-46.504,29.064l-7-7
			l29.04-46.528c5.227-8.284,16.18-10.763,24.464-5.536C455.948,128.048,458.427,139.001,453.2,147.285z"/>
	</g>
</g>
<g>
	<g>
		<rect x="186.001" y="140.277" transform="matrix(0.7071 -0.7071 0.7071 0.7071 -80.3695 194.0061)" width="16" height="107.48"/>
	</g>
</g>
<g>
	<g>
		<rect x="236" y="124.421" transform="matrix(0.7071 -0.7071 0.7071 0.7071 -44.5116 220.5732)" width="16" height="79.192"/>
	</g>
</g>
<g>
	<g>
		<rect x="156" y="204.422" transform="matrix(0.7071 -0.7071 0.7071 0.7071 -124.5127 187.4366)" width="16" height="79.192"/>
	</g>
</g>
<g>
	<g>
		<rect x="127.997" y="273.385" transform="matrix(0.7071 -0.7071 0.7071 0.7071 -169.4805 182.8636)" width="16" height="45.256"/>
	</g>
</g>
<g>
	<g>
		<rect x="287.996" y="113.366" transform="matrix(0.7071 -0.7071 0.7071 0.7071 -9.4672 249.133)" width="16" height="45.256"/>
	</g>
</g>
<g>
</g>
<g>
</g>
<g>
</g>
<g>
</g>
<g>
</g>
<g>
</g>
<g>
</g>
<g>
</g>
<g>
</g>
<g>
</g>
<g>
</g>
<g>
</g>
<g>
</g>
<g>
</g>
<g>
</g>
</svg>
