<?xml version="1.0" encoding="iso-8859-1"?>
<!-- Generator: Adobe Illustrator 19.0.0, SVG Export Plug-In . SVG Version: 6.00 Build 0)  -->
<svg version="1.1" id="Capa_1" xmlns="http://www.w3.org/2000/svg" xmlns:xlink="http://www.w3.org/1999/xlink" x="0px" y="0px"
	 viewBox="0 0 512.001 512.001" style="enable-background:new 0 0 512.001 512.001;" xml:space="preserve">
<g>
	<g>
		<g>
			<path d="M462.299,255.999c0-19.841-14.298-36.395-33.13-39.926V206.3c0-39.844-28.553-73.132-66.269-80.513V106.9
				C362.899,47.955,314.944,0,256,0c-58.945,0-106.9,47.955-106.9,106.9v18.887c-37.715,7.381-66.268,40.669-66.268,80.513v9.773
				C64,219.604,49.701,236.158,49.701,255.999l-0.001,16.567c0,1.989,0.79,3.896,2.196,5.303c1.407,1.407,3.314,2.197,5.304,2.197
				h9.067v58.768c0,49.81,40.523,90.334,90.334,90.334h58.766v34.701h-42.201c-22.404,0-40.631,18.228-40.631,40.632
				c0,4.143,3.357,7.5,7.5,7.5h231.932c4.143,0,7.5-3.357,7.5-7.5c0-22.404-18.227-40.632-40.631-40.632h-42.201v-34.701h58.768
				c49.81,0,90.332-40.523,90.332-90.333v-58.768h9.067c1.989,0,3.897-0.79,5.304-2.197c1.406-1.407,2.196-3.314,2.196-5.304
				L462.299,255.999z M414.169,206.3v9.067H280.065V206.3c0-36.973,30.079-67.052,67.051-67.052
				C384.089,139.248,414.169,169.327,414.169,206.3z M195.266,130.104c5.286-4.995,8.595-12.062,8.595-19.892l-0.001-24.849
				c0-6.827,5.554-12.381,12.381-12.381c6.826,0,12.38,5.554,12.38,12.381v34.789c0,15.098,12.282,27.38,27.38,27.38
				c15.098,0,27.381-12.282,27.381-27.38l-0.001-19.881c0-6.826,5.554-12.38,12.38-12.38c6.827,0,12.381,5.554,12.381,12.379
				l-0.001,9.941c0,7.83,3.309,14.897,8.595,19.892c-30.241,12.102-51.669,41.684-51.669,76.196v9.067h-18.132V206.3
				C246.935,171.788,225.507,142.206,195.266,130.104z M164.097,106.9h0.002c0-50.674,41.227-91.9,91.9-91.9
				c50.674,0,91.9,41.227,91.9,91.9v3.312c0,6.826-5.554,12.38-12.38,12.38c-6.827,0-12.381-5.554-12.381-12.379l0.001-9.941
				c0-15.098-12.283-27.38-27.381-27.38s-27.38,12.282-27.38,27.38l0.001,19.881c0,6.826-5.554,12.38-12.381,12.38
				c-6.826,0-12.38-5.554-12.38-12.38v-34.79c0-15.098-12.282-27.381-27.38-27.381s-27.381,12.283-27.381,27.381l0.001,24.849
				c0,6.826-5.554,12.38-12.38,12.38c-6.827,0-12.381-5.554-12.381-12.38V106.9z M97.831,206.3
				c0-36.973,30.079-67.052,67.052-67.052c36.972,0,67.051,30.079,67.051,67.052v9.067H97.831V206.3z M338.836,478.868
				c11.524,0,21.297,7.647,24.512,18.132H148.654c3.215-10.485,12.987-18.132,24.512-18.132h49.682c0.007,0,0.013,0.001,0.019,0.001
				h66.268c0.007,0,0.013-0.001,0.019-0.001H338.836z M230.367,463.868v-34.701h51.268v34.701H230.367z M155.034,265.066
				L155.034,265.066c-4.143,0-7.5,3.357-7.5,7.5s3.357,7.5,7.5,7.5h275.7v58.768c0,41.539-33.794,75.333-75.332,75.333h-66.261
				c-0.002,0-0.004,0-0.007,0h-66.268c-0.004,0-0.008,0.001-0.013,0.001H156.6c-41.539,0-75.334-33.795-75.334-75.334v-58.768
				h43.767c4.143,0,7.5-3.357,7.5-7.5s-3.357-7.5-7.5-7.5H64.699l0.001-9.067c0-14.134,11.498-25.632,25.632-25.632h149.082
				c0.007,0,0.013,0.001,0.019,0.001c0.007,0,0.013-0.001,0.019-0.001h182.214c14.133,0,25.631,11.498,25.631,25.633l0.002,9.066
				H155.034z"/>
			<path d="M106.115,347.117v-49.699c0-4.143-3.357-7.5-7.5-7.5c-4.142,0-7.5,3.357-7.5,7.5v49.699
				c0,26.974,21.944,48.918,48.918,48.918c26.973,0,48.917-21.944,48.917-48.918v-49.699c0-4.143-3.357-7.5-7.5-7.5
				s-7.5,3.357-7.5,7.5v49.699c0,18.702-15.215,33.918-33.917,33.918C121.331,381.035,106.115,365.819,106.115,347.117z"/>
			<path d="M371.968,396.035c26.974,0,48.918-21.944,48.918-48.918v-49.699c0-4.143-3.357-7.5-7.5-7.5s-7.5,3.357-7.5,7.5v49.699
				c0,18.702-15.216,33.918-33.918,33.918c-18.702,0-33.917-15.216-33.917-33.918v-49.699c0-4.143-3.357-7.5-7.5-7.5
				s-7.5,3.357-7.5,7.5v49.699C323.05,374.091,344.995,396.035,371.968,396.035z"/>
			<path d="M256,396.035c26.974,0,48.918-21.944,48.918-48.918v-49.699c0-4.143-3.357-7.5-7.5-7.5s-7.5,3.357-7.5,7.5v49.699
				c0,18.702-15.216,33.918-33.918,33.918c-18.702,0-33.917-15.216-33.917-33.918v-49.699c0-4.143-3.357-7.5-7.5-7.5
				s-7.5,3.357-7.5,7.5v49.699C207.083,374.091,229.026,396.035,256,396.035z"/>
			<path d="M164.881,157.383h-16.566c-4.143,0-7.5,3.357-7.5,7.5c0,4.142,3.358,7.5,7.5,7.5h16.566c4.143,0,7.5-3.357,7.5-7.5
				S169.024,157.383,164.881,157.383z"/>
			<path d="M148.315,190.517H131.75c-4.143,0-7.5,3.357-7.5,7.5c0,4.142,3.357,7.5,7.5,7.5h16.566c4.143,0,7.5-3.357,7.5-7.5
				S152.458,190.517,148.315,190.517z"/>
			<path d="M206.3,173.948h-16.566c-4.143,0-7.5,3.357-7.5,7.5c-0.001,4.143,3.357,7.5,7.499,7.5H206.3c4.143,0,7.5-3.357,7.5-7.5
				S210.443,173.948,206.3,173.948z"/>
			<path d="M339.617,164.883c0,4.143,3.357,7.5,7.5,7.5h16.565c4.143,0,7.5-3.357,7.5-7.5s-3.357-7.5-7.5-7.5h-16.565
				C342.976,157.383,339.617,160.74,339.617,164.883z"/>
			<path d="M356.185,198.017c0,4.143,3.357,7.5,7.5,7.5h16.566c4.143,0,7.5-3.357,7.5-7.5s-3.357-7.5-7.5-7.5h-16.566
				C359.542,190.517,356.185,193.874,356.185,198.017z"/>
			<path d="M322.266,173.948h-16.565c-4.143,0-7.5,3.357-7.5,7.5s3.357,7.5,7.5,7.5h16.565c4.143,0,7.5-3.357,7.5-7.5
				C329.766,177.306,326.408,173.948,322.266,173.948z"/>
		</g>
	</g>
</g>
<g>
</g>
<g>
</g>
<g>
</g>
<g>
</g>
<g>
</g>
<g>
</g>
<g>
</g>
<g>
</g>
<g>
</g>
<g>
</g>
<g>
</g>
<g>
</g>
<g>
</g>
<g>
</g>
<g>
</g>
</svg>
