<?xml version='1.0' encoding='iso-8859-1'?>
<svg version="1.1" xmlns="http://www.w3.org/2000/svg" viewBox="0 0 10.559 10.559" xmlns:xlink="http://www.w3.org/1999/xlink" enable-background="new 0 0 10.559 10.559">
  <g>
    <path d="m8.161,2.16c0-0.663-0.537-1.2-1.2-1.2-0.099,0-0.192,0.015-0.284,0.037-0.145-0.572-0.658-0.997-1.276-0.997-0.548,0-1.017,0.333-1.216,0.808-0.145-0.055-0.3-0.088-0.464-0.088-0.728,0-1.319,0.591-1.319,1.32 0,0.086-0.027,0.306 0.053,0.456-0.032,0.04-0.054,0.089-0.054,0.144v3.12l.24,2.4c0,0.132 0.587,2.399 0.72,2.399h3.84c0.133,0 0.72-2.267 0.72-2.399l.24-2.4v-3.12c0-0.055-0.022-0.104-0.053-0.143 0.068-0.124 0.053-0.283 0.053-0.337zm-.479,3.119v0.48l-.24,2.4c0,0.093-0.292,1.247-0.511,1.92h-3.299c-0.219-0.672-0.511-1.826-0.511-1.919l-.24-2.4v-0.48-2.4h4.801v2.399zm-.045-2.88h-4.672c-0.052-0.109-0.084-0.23-0.084-0.359 0-0.464 0.377-0.84 0.84-0.84 0.178,0 0.342,0.055 0.477,0.148 0.04,0.026 0.086,0.03 0.139,0.03 0.104,0 0.189-0.065 0.224-0.156 0,0 0.068-0.743 0.842-0.743 0.464,0 0.84,0.376 0.84,0.84 0,0.021-0.005,0.042-0.007,0.062 0,0 0.035,0.194 0.247,0.194 0.022,0 0.046,0 0.066-0.005 0.117-0.082 0.26-0.132 0.413-0.132 0.398,0 0.721,0.322 0.721,0.721-0.001,0.085-0.019,0.165-0.046,0.24z"/>
    <path d="m2.881,5.76l.24,2.4c0,0.093 0.292,1.247 0.511,1.92h3.299c0.219-0.673 0.511-1.827 0.511-1.92l.24-2.4v-0.48h-4.801v0.48zm3.48,.719c0.331,0 0.6,0.268 0.6,0.601 0,0.331-0.269,0.6-0.6,0.6-0.332,0-0.601-0.269-0.601-0.6 0.001-0.332 0.269-0.601 0.601-0.601zm-1.679,1.441c0.331,0 0.6,0.268 0.6,0.6 0,0.332-0.269,0.601-0.6,0.601-0.332,0-0.601-0.269-0.601-0.601 0-0.332 0.269-0.6 0.601-0.6z"/>
  </g>
</svg>
