<?xml version='1.0' encoding='iso-8859-1'?>
<svg version="1.1" xmlns="http://www.w3.org/2000/svg" viewBox="0 0 10.561 10.561" xmlns:xlink="http://www.w3.org/1999/xlink" enable-background="new 0 0 10.561 10.561">
  <g>
    <g>
      <path fill="#020400" d="m8.521,.72c-0.659,0-1.243,0.314-1.616,0.799-0.374-0.485-0.959-0.799-1.617-0.799-0.664,0-1.252,0.318-1.624,0.809-0.372-0.49-0.96-0.809-1.624-0.809-1.127,0-2.04,0.914-2.04,2.04 0,1.003 0.726,1.836 1.681,2.006v4.834c0,0.133 0.106,0.24 0.239,0.24h6.721c0.132,0 0.239-0.107 0.239-0.24v-4.833c0.955-0.17 1.681-1.003 1.681-2.006 0-1.127-0.915-2.041-2.04-2.041zm-.121,8.64h-6.24v-1.2h6.24v1.2zm.121-5.04c-0.041,0-0.08-0.009-0.12-0.012v3.372h-6.241v-3.372c-0.04,0.004-0.079,0.012-0.12,0.012-0.861,0-1.56-0.698-1.56-1.56 0-0.861 0.698-1.56 1.56-1.56 0.82,0 1.486,0.636 1.548,1.44h0.152c0.062-0.804 0.728-1.44 1.548-1.44s1.485,0.636 1.548,1.44h0.137c0.061-0.804 0.726-1.44 1.548-1.44 0.861,0 1.56,0.699 1.56,1.56-0.001,0.862-0.699,1.56-1.56,1.56z"/>
    </g>
  </g>
</svg>
