<?xml version='1.0' encoding='iso-8859-1'?>
<svg version="1.1" xmlns="http://www.w3.org/2000/svg" viewBox="0 0 10.541 10.541" xmlns:xlink="http://www.w3.org/1999/xlink" enable-background="new 0 0 10.541 10.541">
  <g>
    <g>
      <path fill="#020400" fill-rule="evenodd" d="m8.391,5.741c-0.307,0-0.586,0.115-0.798,0.305-0.043-0.039-0.1-0.064-0.162-0.064h-6.241c-0.133,0-0.24,0.107-0.24,0.239v1.2h0.011c0.053,1.228 0.502,2.318 1.189,3.061l.05,.059h4.22l.051-.059c0.228-0.245 0.425-0.532 0.595-0.847 1.286-0.65 2.185-0.907 2.525-2.454v-0.24c0-0.663-0.537-1.2-1.2-1.2zm-1.201,1.441c0,1.147-0.379,2.176-0.979,2.88h-3.802c-0.6-0.704-0.979-1.732-0.979-2.88v-0.721h5.76v0.721zm1.92,.055c-0.217,1.015-0.891,1.243-1.718,1.639 0.15-0.451 0.246-0.939 0.269-1.455h0.011v-0.925c0.151-0.168 0.367-0.275 0.608-0.275 0.459,0 0.831,0.38 0.831,0.848v0.168zm-5.048-2.856c0.029,0.102 0.118,0.179 0.229,0.179 0.133,0 0.239-0.107 0.239-0.239 0-0.04-0.021-0.099-0.045-0.133-0.818-1.463 0.695-2.535-0.083-4.04l-.007,.002c-0.035-0.088-0.121-0.15-0.221-0.15-0.132,0-0.24,0.107-0.24,0.24 0,0.043 0.015,0.08 0.034,0.115 0.807,1.701-0.895,2.514 0.094,4.026zm-1.679,0c0.027,0.102 0.117,0.179 0.227,0.179 0.133,0 0.24-0.107 0.24-0.239 0-0.04-0.021-0.099-0.045-0.133-0.819-1.463 0.694-2.535-0.083-4.04l-.006,.002c-0.035-0.088-0.121-0.15-0.222-0.15-0.133,0-0.24,0.107-0.24,0.24 0,0.043 0.015,0.08 0.034,0.115 0.807,1.701-0.894,2.514 0.095,4.026zm3.36,0c0.027,0.102 0.116,0.179 0.228,0.179 0.133,0 0.24-0.107 0.24-0.239 0-0.04-0.021-0.099-0.046-0.133-0.818-1.463 0.695-2.535-0.082-4.04l-.007,.002c-0.036-0.088-0.121-0.15-0.222-0.15-0.133,0-0.24,0.107-0.24,0.24 0,0.043 0.014,0.08 0.034,0.115 0.807,1.701-0.895,2.514 0.095,4.026z"/>
    </g>
  </g>
  <g>
    <g>
      <rect width="5.76" x="1.431" y="6.461" fill="#020400" height="0.721"/>
    </g>
  </g>
</svg>
