<?xml version='1.0' encoding='iso-8859-1'?>
<svg version="1.1" xmlns="http://www.w3.org/2000/svg" viewBox="0 0 10.561 10.561" xmlns:xlink="http://www.w3.org/1999/xlink" enable-background="new 0 0 10.561 10.561">
  <g>
    <g>
      <path fill="#020400" fill-rule="evenodd" d="m10.491,10.152l.003-.003-4.87-4.868 1.883-1.882c0.189,0.125 0.41,0.202 0.653,0.202 0.269,0 0.514-0.093 0.713-0.244 0.068,0.003 0.135-0.019 0.186-0.07l1.429-1.429c0.096-0.096 0.096-0.251 0-0.347-0.096-0.096-0.251-0.096-0.347,0l-1.344,1.345-.045-.046c-0.131,0.188-0.346,0.311-0.591,0.311-0.109,0-0.212-0.026-0.305-0.07l1.912-1.912c0.096-0.096 0.096-0.252 0-0.347s-0.251-0.096-0.347,0l-1.912,1.911c-0.043-0.092-0.068-0.193-0.068-0.302 0-0.246 0.123-0.461 0.311-0.591l-.048-.047 1.344-1.344c0.096-0.096 0.096-0.251 0-0.347-0.096-0.096-0.252-0.096-0.348,0l-1.427,1.428c-0.053,0.053-0.073,0.122-0.07,0.19-0.149,0.199-0.243,0.443-0.243,0.711 0,0.243 0.077,0.465 0.202,0.654l-1.881,1.882-2.295-2.295-.003,.003-2.36-2.354c-0.09-0.089-0.23-0.091-0.325-0.011l-.056,.072c-0.006,0.012-0.011,0.023-0.015,0.036-0.143,0.323-0.227,0.677-0.227,1.053 0,0.621 0.218,1.19 0.577,1.64l.238,.259 2.111,2.111c0.094,0.094 0.245,0.094 0.339,0 0.001-0.001 0.002-0.001 0.003-0.002l.918-.918 .75,.75-4.868,4.868 .003,.003c-0.044,0.043-0.071,0.103-0.071,0.169 0,0.133 0.107,0.24 0.24,0.24 0.066,0 0.126-0.027 0.17-0.07l.002,.002 4.868-4.868 4.868,4.868 .002-.002c0.043,0.043 0.103,0.07 0.17,0.07 0.133,0 0.24-0.107 0.24-0.24 0.001-0.066-0.026-0.126-0.069-0.169zm-7.395-5.21l-1.849-1.848 .002-.002c-0.018-0.016-0.035-0.034-0.054-0.05l-.158-.159c-0.344-0.382-0.556-0.887-0.556-1.442 0-0.188 0.026-0.369 0.071-0.542l2.091,2.086-.001,.002 1.204,1.205-.75,.75z"/>
    </g>
  </g>
</svg>
