<?xml version='1.0' encoding='iso-8859-1'?>
<svg version="1.1" xmlns="http://www.w3.org/2000/svg" viewBox="0 0 10.395 10.395" xmlns:xlink="http://www.w3.org/1999/xlink" enable-background="new 0 0 10.395 10.395">
  <g>
    <g>
      <path fill="#020400" fill-rule="evenodd" d="m10.32,4.237c0-0.133-0.107-0.24-0.24-0.24s-0.24,0.107-0.24,0.24v2.828l-2.257-1.868 2.725-2.256c0.052-0.044 0.087-0.107 0.087-0.181 0-0.133-0.107-0.24-0.24-0.24-0.049,0-0.092,0.018-0.129,0.043l-.005-.006-2.823,2.335-1.764-1.397c-0.073-0.066-0.146-0.125-0.22-0.174l-.028-.022-.003,.003c-0.315-0.2-0.665-0.265-1.256-0.265-0.671,0-1.292,0.213-1.8,0.574l-.005,.004-1.882,1.342c-0.073,0.023-0.24,0.107-0.24,0.24 0,0.133 0.175,0.21 0.24,0.24 0,0 0.001,0 0.001,0l1.621,1.143c0.079,0.07 0.183,0.136 0.268,0.197l-.003,.006c0.508,0.36 1.128,0.574 1.8,0.574 0.599,0 0.94-0.064 1.251-0.27l.008,.009 2.012-1.594 2.698,2.232c0.018,0.025 0.04,0.039 0.066,0.055l.059,.049 .005-.006c0.037,0.025 0.08,0.043 0.129,0.043 0.133,0 0.24-0.107 0.24-0.24 0-0.064-0.035-0.114-0.075-0.157v-3.241zm-5.41,2.466c-0.348,0.166-0.553,0.176-0.983,0.176-0.575,0-1.105-0.186-1.539-0.498l-1.696-1.179-.214,.003c0-0.002 0.002-0.005 0.002-0.008 0-0.003-0.002-0.005-0.002-0.008l.214,.003 1.696-1.179c0.433-0.312 0.966-0.439 1.539-0.498 0.338-0.034 0.663,0.033 0.963,0.16l1.922,1.522-1.902,1.506zm-2.75-1.986c-0.132,0-0.24,0.107-0.24,0.24 0,0.132 0.108,0.24 0.24,0.24 0.133,0 0.24-0.107 0.24-0.24-4.44089e-16-0.132-0.108-0.24-0.24-0.24z"/>
    </g>
  </g>
</svg>
