<?xml version='1.0' encoding='iso-8859-1'?>
<svg version="1.1" xmlns="http://www.w3.org/2000/svg" viewBox="0 0 10.56 10.56" xmlns:xlink="http://www.w3.org/1999/xlink" enable-background="new 0 0 10.56 10.56">
  <g>
    <g>
      <path fill="#020400" fill-rule="evenodd" d="m6.36,4.32c-0.928,0-1.68,0.752-1.68,1.68 0,0.928 0.752,1.68 1.68,1.68 0.928,0 1.68-0.752 1.68-1.68 0-0.928-0.752-1.68-1.68-1.68zm0,2.88c-0.663,0-1.2-0.537-1.2-1.2 0-0.663 0.537-1.2 1.2-1.2 0.663,0 1.2,0.537 1.2,1.2-8.88178e-16,0.663-0.538,1.2-1.2,1.2zm3.36-1.08c0-0.389-0.051-0.765-0.146-1.124l-.334-2.836c0-1.193-0.967-2.16-2.16-2.16-1.034,0-1.896,0.726-2.109,1.695-2.307,0.159-4.131,2.077-4.131,4.425 1.11022e-16,2.452 1.988,4.44 4.44,4.44 2.413,0 4.371-1.925 4.434-4.322l.006,.002-.004-.036c0-0.028 0.004-0.056 0.004-0.084zm-.48,0c0,2.187-1.773,3.96-3.96,3.96-2.187,0-3.96-1.773-3.96-3.96 0-2.187 1.773-3.96 3.96-3.96 0.041,0 0.08,0.005 0.121,0.006 0-0.002 0-0.004 0-0.006 0-0.928 0.752-1.68 1.68-1.68 0.928,0 1.68,0.752 1.68,1.68l.391,3.129c0.043,0.204 0.067,0.415 0.078,0.63l.01,.081h-0.006c0.001,0.04 0.006,0.079 0.006,0.12z"/>
    </g>
  </g>
  <g>
    <circle fill="none" cx="6.36" cy="6" r="1.2"/>
  </g>
</svg>
