<?xml version='1.0' encoding='iso-8859-1'?>
<svg version="1.1" xmlns="http://www.w3.org/2000/svg" viewBox="0 0 10.56 10.56" xmlns:xlink="http://www.w3.org/1999/xlink" enable-background="new 0 0 10.56 10.56">
  <g>
    <g>
      <path fill="#020400" d="M8.16,3c0-0.741-0.517-1.359-1.208-1.519C6.91,0.657,6.235,0,5.4,0    C4.578,0,3.911,0.638,3.852,1.445C3.041,1.501,2.4,2.175,2.4,3c0,0.249,0.095,0.638,0.311,0.907    C2.634,3.982,2.611,4.1,2.667,4.198l2.378,6.169h0.004c0.023,0.109,0.114,0.193,0.231,0.193s0.208-0.084,0.23-0.193h0.005    l2.378-6.169c0.058-0.1,0.032-0.22-0.049-0.294C8.067,3.622,8.16,3.252,8.16,3z M5.4,0.48c0.556,0,1.007,0.421,1.067,0.961    c-0.001,0.001-0.001,0.001,0,0.001c0,0.002,0.001,0.004,0.001,0.007c0,0-0.001,0.001-0.001,0.001    C5.966,1.491,5.534,1.768,5.28,2.171C5.067,1.832,4.727,1.582,4.327,1.485C4.366,0.924,4.829,0.48,5.4,0.48z M5.288,3.84H5.272    C5.274,3.836,5.278,3.832,5.28,3.829C5.282,3.832,5.286,3.836,5.288,3.84z M2.88,3c0-0.597,0.483-1.08,1.08-1.08    c0.596,0,1.08,0.483,1.08,1.08c0,0.341-0.161,0.642-0.409,0.84H3.289C3.042,3.642,2.88,3.341,2.88,3z M5.28,9.656L3.223,4.32    h4.113L5.28,9.656z M7.271,3.84H5.928C5.681,3.642,5.52,3.341,5.52,3c0-0.597,0.483-1.08,1.08-1.08c0.596,0,1.08,0.483,1.08,1.08    C7.68,3.341,7.518,3.642,7.271,3.84z"/>
    </g>
  </g>
</svg>
