<?xml version='1.0' encoding='iso-8859-1'?>
<svg version="1.1" xmlns="http://www.w3.org/2000/svg" viewBox="0 0 10.56 10.56" xmlns:xlink="http://www.w3.org/1999/xlink" enable-background="new 0 0 10.56 10.56">
  <g>
    <g>
      <path fill="#020400" fill-rule="evenodd" d="m3.36,5.76h3.84c0.133,0 0.24-0.107 0.24-0.24 0-0.133-0.107-0.24-0.24-0.24h-3.84c-0.133,0-0.24,0.108-0.24,0.24 0,0.132 0.107,0.24 0.24,0.24zm0,1.2h1.92c0.133,0 0.24-0.107 0.24-0.24 0-0.132-0.107-0.24-0.24-0.24h-1.92c-0.133,0-0.24,0.108-0.24,0.24 0,0.132 0.107,0.24 0.24,0.24zm0-2.88h3.84c0.133,0 0.24-0.107 0.24-0.24v-2.4c0-0.133-0.107-0.24-0.24-0.24h-3.84c-0.133,0-0.24,0.107-0.24,0.24v2.4c0,0.133 0.107,0.24 0.24,0.24zm.24-2.4h3.36v1.92h-3.36v-1.92zm-.24,6.48h1.44c0.132,0 0.24-0.107 0.24-0.24 0-0.133-0.108-0.24-0.24-0.24h-1.44c-0.133,0-0.24,0.108-0.24,0.24 0,0.133 0.107,0.24 0.24,0.24zm5.52-8.16h-7.2c-0.132,0-0.24,0.107-0.24,0.24v10.08c0,0.133 0.107,0.24 0.24,0.24h7.2c0.132,0 0.24-0.107 0.24-0.24v-10.08c-1.77636e-15-0.133-0.108-0.24-0.24-0.24zm-.24,10.08h-6.72v-9.6h6.72v9.6z"/>
    </g>
  </g>
</svg>
