<?xml version='1.0' encoding='iso-8859-1'?>
<svg version="1.1" xmlns="http://www.w3.org/2000/svg" viewBox="0 0 10.447 10.447" xmlns:xlink="http://www.w3.org/1999/xlink" enable-background="new 0 0 10.447 10.447">
  <g>
    <g>
      <path fill="#020400" d="m7.49,.045c-0.012-0.007-0.017-0.008-0.026-0.012-0.034-0.019-0.072-0.033-0.114-0.033-0.133,0-0.24,0.108-0.24,0.24 0,0.022 0.008,0.044 0.014,0.065 0.001,0.008 0,0.013 0.002,0.023 0.126,0.459 0.202,0.979 0.202,1.479 0,3.049-2.472,5.519-5.52,5.519-0.49,0-1.016-0.073-1.467-0.194v0.001c-0.031-0.014-0.065-0.023-0.102-0.023-0.132,0-0.239,0.108-0.239,0.24 0,0.053 0.021,0.1 0.05,0.14l-.006,.008c0.931,1.732 2.778,2.949 4.883,2.949 3.049,0 5.521-2.472 5.521-5.519-0.001-2.071-1.27-3.94-2.958-4.883zm.31,.811c0.671,0.39 1.3,1.232 1.706,2.152h-1.757c0.02-0.08 0.041-0.158 0.059-0.24 0.061-0.29 0.076-1.405-0.008-1.912zm-4.793,8.667c-0.874-0.384-1.686-0.991-2.152-1.723 0.454,0.066 1.717,0.059 1.913,0.008 0.082-0.022 0.16-0.045 0.239-0.068v1.783zm1.92,.445c-0.451,0-0.947-0.093-1.439-0.259v-2.115c0.601-0.197 1.133-0.439 1.606-0.724l1.346,2.834c-0.485,0.17-0.994,0.264-1.513,0.264zm1.965-.452l-1.386-2.918c0.439-0.317 0.82-0.684 1.141-1.112l3.009,1.071c-0.489,1.286-1.517,2.378-2.764,2.959zm.037-4.449c0.283-0.463 0.514-0.985 0.691-1.58h2.076c0.172,0.496 0.271,0.994 0.271,1.441 0,0.395-0.06,0.785-0.161,1.164l-2.877-1.025z"/>
    </g>
  </g>
  <g>
    <g>
      <path fill="#020400" fill-rule="evenodd" d="m2.223,1.722c-0.036-0.09-0.13-0.154-0.241-0.154-0.144,0-0.26,0.105-0.26,0.234 0,0.047 0.018,0.087 0.045,0.124 0.717,1.394-0.731,2.375 0.044,3.83l.011-.002c0.042,0.078 0.13,0.134 0.233,0.134 0.143,0 0.259-0.105 0.259-0.234 0-0.019-0.007-0.035-0.012-0.053 0.003-0.006 0.004-0.012 0-0.02-0.003-0.006-0.005-0.012-0.008-0.019 0,0 0-0.001-0.001-0.001-0.725-1.574 0.869-2.427-0.07-3.839zm1.528,3.139c-0.003-0.005-0.005-0.012-0.008-0.018-0.001-0.001-0.001-0.001-0.001-0.001-0.725-1.575 0.869-2.428-0.07-3.84-0.036-0.09-0.13-0.154-0.241-0.154-0.144,0-0.261,0.104-0.261,0.234 0,0.046 0.02,0.087 0.045,0.124 0.718,1.394-0.731,2.375 0.045,3.83l.011-.003c0.042,0.079 0.129,0.134 0.232,0.134 0.144,0 0.26-0.105 0.26-0.234 0-0.018-0.007-0.035-0.012-0.052 0.003-0.006 0.003-0.012 0-0.02z"/>
    </g>
  </g>
</svg>
