<?xml version='1.0' encoding='iso-8859-1'?>
<svg version="1.1" xmlns="http://www.w3.org/2000/svg" viewBox="0 0 10.504 10.504" xmlns:xlink="http://www.w3.org/1999/xlink" enable-background="new 0 0 10.504 10.504">
  <g>
    <g>
      <path fill="#020400" fill-rule="evenodd" d="m4.172,2.967c-0.596,0-1.08,0.483-1.08,1.08 0,0.596 0.484,1.079 1.08,1.079 0.597,0 1.08-0.483 1.08-1.079 0-0.596-0.484-1.08-1.08-1.08zm0,1.68c-0.331,0-0.6-0.269-0.6-0.6 0-0.332 0.269-0.601 0.6-0.601 0.332,0 0.6,0.268 0.6,0.601 8.88178e-16,0.332-0.269,0.6-0.6,0.6zm-4.172-2.108l5.252,7.148 5.252-7.148c-3.118-2.296-7.386-2.296-10.504,4.44089e-16zm.69,.189c2.708-1.927 6.415-1.927 9.124,0l-4.562,5.999-4.562-5.999zm.715,.171l.262,.441c2.241-1.139 4.935-1.14 7.175,0.001l.262-.44c-2.427-1.17-5.271-1.171-7.699-0.002zm3.624,3.636c0.03,0.317 0.197,0.587 0.435,0.764l.306-.37c-0.144-0.097-0.246-0.254-0.263-0.439-0.031-0.33 0.211-0.623 0.541-0.654 0.186-0.018 0.358,0.055 0.48,0.177l.306-.369c-0.217-0.202-0.513-0.316-0.831-0.286-0.594,0.056-1.03,0.583-0.974,1.177z"/>
    </g>
  </g>
</svg>
