<?xml version='1.0' encoding='iso-8859-1'?>
<svg version="1.1" xmlns="http://www.w3.org/2000/svg" viewBox="0 0 10.29 10.29" xmlns:xlink="http://www.w3.org/1999/xlink" enable-background="new 0 0 10.29 10.29">
  <g>
    <g>
      <path fill="#020400" d="m9.924,3.136c-0.001-0.002-0.001-0.003-0.003-0.004-1.108-0.839-1.293-2.259-2.498-3.081-0.001-0.001-0.002-1.59595e-16-0.004-0.001-0.04-0.029-0.087-0.05-0.14-0.05-0.078,0-0.144,0.039-0.187,0.097-0.015,0.003-0.013,0.013-0.02,0.041-0.207,0.768-0.81,2.942-0.81,2.942-0.75-0.29-1.746-0.04-2.48,0.694-0.686,0.685-0.949,1.6-0.747,2.328 0,0-1.64,0.408-2.552,0.633h-0.001c-0.113,0.02-0.201,0.113-0.201,0.231 0,0.08 0.041,0.147 0.101,0.19l-.002,.01c1.104,0.848 1.278,2.287 2.513,3.099 0.004,0.002 0.006,0 0.009,0.001 0.031,0.015 0.065,0.024 0.102,0.024 0.081,0 0.148-0.043 0.192-0.104 0.014-0.005 0.027-0.017 0.036-0.048 0.223-0.785 0.841-2.961 0.841-2.961 0.737,0.231 1.678-0.031 2.38-0.732 0.662-0.662 0.93-1.536 0.766-2.251 0,0 1.745-0.399 2.633-0.653 0.003-0.001 0.004-0.004 0.007-0.005 0.005-0.002 0.008-0.005 0.013-0.007 0.005-0.004 0.013-0.007 0.016-0.011 0.071-0.042 0.121-0.115 0.121-0.204 0-0.072-0.034-0.134-0.085-0.178zm-7.073,6.304c-1.016-0.586-0.815-1.691-1.782-2.307l2.648-.617-.866,2.924zm3.191-3.408c-0.703,0.703-1.69,0.855-2.206,0.34-0.515-0.516-0.363-1.504 0.34-2.206 0.703-0.703 1.691-0.856 2.206-0.34 0.515,0.516 0.363,1.503-0.34,2.206zm.559-2.219l.725-3.013c1.068,0.57 0.641,1.157 1.941,2.42l-2.666,.593z"/>
    </g>
  </g>
</svg>
