<?xml version='1.0' encoding='iso-8859-1'?>
<svg version="1.1" xmlns="http://www.w3.org/2000/svg" viewBox="0 0 10.56 10.56" xmlns:xlink="http://www.w3.org/1999/xlink" enable-background="new 0 0 10.56 10.56">
  <g>
    <g>
      <path fill="#020400" fill-rule="evenodd" d="m10.503,1.771h-0.004c-1.475-1.094-3.242-1.771-5.219-1.771-1.932,0-3.674,0.65-5.13,1.698-0.032,0.013-0.068,0.048-0.091,0.073h-0.003c-0.033,0.041-0.056,0.091-0.056,0.149 0,0.133 0.107,0.24 0.24,0.24h4.8v8.159c0,0.133 0.108,0.24 0.24,0.24 0.133,0 0.24-0.107 0.24-0.24v-8.159h4.8c0.133,0 0.24-0.107 0.24-0.24 0-0.058-0.023-0.108-0.057-0.149zm-9.454-.091c1.244-0.748 2.669-1.2 4.231-1.2 1.561,0 2.992,0.452 4.237,1.2h-8.468zm8.311,3.84c-0.133,0-0.24,0.107-0.24,0.24v2.16h-1.68c-0.133,0-0.24,0.107-0.24,0.24v2.159c0,0.133 0.107,0.24 0.24,0.24 0.133,0 0.24-0.107 0.24-0.24v-1.919h1.44v1.92c0,0.133 0.107,0.24 0.24,0.24s0.24-0.107 0.24-0.24v-4.56c0-0.133-0.107-0.24-0.24-0.24zm-6.24,2.4h-1.68v-2.16c0-0.133-0.108-0.24-0.24-0.24-0.132,0-0.24,0.107-0.24,0.24v4.56c0,0.133 0.107,0.24 0.24,0.24 0.133,0 0.24-0.107 0.24-0.24v-1.92h1.44v1.92c0,0.133 0.107,0.24 0.24,0.24 0.133,0 0.24-0.107 0.24-0.24v-2.16c-4.44089e-16-0.132-0.107-0.24-0.24-0.24z"/>
    </g>
  </g>
</svg>
