<?xml version='1.0' encoding='iso-8859-1'?>
<svg version="1.1" xmlns="http://www.w3.org/2000/svg" viewBox="0 0 10.559 10.559" xmlns:xlink="http://www.w3.org/1999/xlink" enable-background="new 0 0 10.559 10.559">
  <g>
    <g>
      <path fill="#020400" fill-rule="evenodd" d="m7.919,0h-5.279c-0.133,0-0.24,0.107-0.24,0.239v0.721h0.008c0.084,2.026 1.212,3.638 2.631,3.807v4.888l-1.498,.409c-0.132,0.036-0.21,0.174-0.175,0.309 0.035,0.134 0.171,0.214 0.302,0.178l1.611-.44 1.61,.44c0.132,0.036 0.267-0.044 0.303-0.178 0.035-0.135-0.043-0.272-0.175-0.309l-1.497-.409v-4.888c1.42-0.169 2.548-1.781 2.631-3.807h0.009v-0.721c0-0.132-0.108-0.239-0.241-0.239zm-.239,.72c0,1.988-1.075,3.6-2.4,3.6-1.326,0-2.4-1.611-2.4-3.6v-0.24h4.8v0.24z"/>
    </g>
  </g>
  <g>
    <g>
      <path fill="#020400" d="M3.366,2.885c0.44,0.87,1.136,1.435,1.922,1.435c0.785,0,1.482-0.564,1.921-1.435H3.366z"/>
    </g>
  </g>
</svg>
