<?xml version="1.0" encoding="iso-8859-1"?>
<!-- Generator: Adobe Illustrator 19.0.0, SVG Export Plug-In . SVG Version: 6.00 Build 0)  -->
<svg version="1.1" id="Capa_1" xmlns="http://www.w3.org/2000/svg" xmlns:xlink="http://www.w3.org/1999/xlink" x="0px" y="0px"
	 viewBox="0 0 512 512" style="enable-background:new 0 0 512 512;" xml:space="preserve">
<g>
	<g>
		<g>
			<path d="M405.333,0H106.667C83.146,0,64,19.135,64,42.667v192c0,23.531,19.146,42.667,42.667,42.667H192v21.333
				c0,11.76,9.563,21.333,21.333,21.333h32v170.667H160c-5.896,0-10.667,4.771-10.667,10.667c0,5.896,4.771,10.667,10.667,10.667
				h192c5.896,0,10.667-4.771,10.667-10.667c0-5.896-4.771-10.667-10.667-10.667h-85.333V320h32
				c11.771,0,21.333-9.573,21.333-21.333v-21.333h85.333c23.521,0,42.667-19.135,42.667-42.667v-192C448,19.135,428.854,0,405.333,0
				z M298.667,309.333v-10.667h-85.333v-64h85.333v64h0.021L298.667,309.333z M426.667,234.667c0,11.76-9.563,21.333-21.333,21.333
				H320v-21.333c0-11.76-9.563-21.333-21.333-21.333h-85.333c-11.771,0-21.333,9.573-21.333,21.333V256h-85.333
				c-11.771,0-21.333-9.573-21.333-21.333v-192c0-11.76,9.563-21.333,21.333-21.333h298.667c11.771,0,21.333,9.573,21.333,21.333
				V234.667z"/>
			<path d="M373.333,85.333H138.667C132.771,85.333,128,90.104,128,96s4.771,10.667,10.667,10.667h234.667
				c5.896,0,10.667-4.771,10.667-10.667S379.229,85.333,373.333,85.333z"/>
			<path d="M352,170.667H160c-5.896,0-10.667,4.771-10.667,10.667c0,5.896,4.771,10.667,10.667,10.667h192
				c5.896,0,10.667-4.771,10.667-10.667C362.667,175.438,357.896,170.667,352,170.667z"/>
		</g>
	</g>
</g>
<g>
</g>
<g>
</g>
<g>
</g>
<g>
</g>
<g>
</g>
<g>
</g>
<g>
</g>
<g>
</g>
<g>
</g>
<g>
</g>
<g>
</g>
<g>
</g>
<g>
</g>
<g>
</g>
<g>
</g>
</svg>
