<?xml version="1.0" encoding="iso-8859-1"?>
<!-- Generator: Adobe Illustrator 19.0.0, SVG Export Plug-In . SVG Version: 6.00 Build 0)  -->
<svg version="1.1" id="Capa_1" xmlns="http://www.w3.org/2000/svg" xmlns:xlink="http://www.w3.org/1999/xlink" x="0px" y="0px"
	 viewBox="0 0 480.031 480.031" style="enable-background:new 0 0 480.031 480.031;" xml:space="preserve">
<g>
	<g>
		<path d="M472.031,328.016h-9.472c0.948-2.562,1.446-5.268,1.472-8c0-13.255-10.745-24-24-24h-8.8
			c-3.827-18.611-20.199-31.976-39.2-32h-8.208c5.293-6.884,8.177-15.317,8.208-24v-16c0-4.418-3.582-8-8-8
			c-12.64,0.034-24.514,6.063-32,16.248c-7.486-10.185-19.36-16.214-32-16.248c-4.418,0-8,3.582-8,8v16
			c0.031,8.683,2.915,17.116,8.208,24h-135L200.031,96.72c0.389-4.401-2.864-8.284-7.265-8.673c-0.244-0.022-0.49-0.032-0.735-0.031
			h-184C3.613,87.998,0.017,91.566,0,95.984c-0.001,0.245,0.009,0.491,0.031,0.735l24,272c0.366,4.141,3.843,7.312,8,7.296h72.992
			c10.422,10.211,24.417,15.952,39.008,16h280c30.913-0.035,55.965-25.087,56-56C480.031,331.597,476.449,328.016,472.031,328.016z
			 M360.031,256.016c0.012-10.168,6.418-19.229,16-22.632v6.632c-0.012,10.168-6.418,19.229-16,22.632V256.016z M328.031,233.384
			c9.582,3.403,15.988,12.464,16,22.632v6.632c-9.582-3.403-15.988-12.464-16-22.632V233.384z M392.031,280.016
			c13.255,0,24,10.745,24,24c0,4.418,3.582,8,8,8h16c4.418,0,8,3.582,8,8s-3.582,8-8,8h-312c-4.418,0-8-3.582-8-8s3.582-8,8-8h16
			c4.418,0,8-3.582,8-8c0.069-13.325,10.928-24.071,24.253-24.002c0.073,0,0.146,0.001,0.219,0.002H392.031z M16.767,104.016
			h166.528l-2.824,32H19.591L16.767,104.016z M88.351,341.776c0.064,0.608,0.168,1.2,0.248,1.808c0.176,1.304,0.392,2.6,0.656,3.88
			c0.144,0.68,0.304,1.344,0.472,2.016c0.304,1.227,0.651,2.437,1.04,3.632c0.208,0.632,0.4,1.264,0.632,1.896
			c0.488,1.336,1.032,2.64,1.6,3.936c0.16,0.352,0.272,0.728,0.44,1.072h-54.08l-18.36-208h158.064l-9.936,112.592h-0.104
			c-0.256,0.048-0.496,0.144-0.752,0.192c-1.882,0.367-3.735,0.869-5.544,1.504c-0.704,0.248-1.352,0.584-2.04,0.864
			c-1.303,0.527-2.576,1.122-3.816,1.784c-0.744,0.408-1.432,0.872-2.144,1.32c-1.088,0.696-2.152,1.408-3.2,2.2
			c-0.688,0.536-1.344,1.104-2,1.68c-0.944,0.8-1.832,1.712-2.696,2.64c-0.6,0.64-1.184,1.28-1.736,1.96
			c-0.8,1-1.552,2.048-2.272,3.12c-0.464,0.696-0.952,1.376-1.376,2.104c-0.7,1.237-1.333,2.511-1.896,3.816
			c-0.296,0.656-0.64,1.28-0.896,1.952c-0.78,2.037-1.39,4.135-1.824,6.272h-8.8c-13.179-0.076-23.925,10.547-24.001,23.727
			c-0.009,1.606,0.144,3.21,0.457,4.785c0.088,0.464,0.24,0.896,0.352,1.352c0.184,0.72,0.312,1.456,0.56,2.144h-9.368
			c-4.418,0-8,3.582-8,8C88.038,337.945,88.145,339.865,88.351,341.776z M424.031,376.016h-280c-18.984-0.07-35.331-13.414-39.2-32
			h358.4C459.404,362.627,443.032,375.992,424.031,376.016z"/>
	</g>
</g>
<g>
	<g>
		<rect x="192.031" y="296.016" width="16" height="16"/>
	</g>
</g>
<g>
	<g>
		<rect x="248.031" y="288.016" width="16" height="16"/>
	</g>
</g>
<g>
	<g>
		<rect x="304.031" y="304.016" width="16" height="16"/>
	</g>
</g>
<g>
	<g>
		<rect x="360.031" y="288.016" width="16" height="16"/>
	</g>
</g>
<g>
</g>
<g>
</g>
<g>
</g>
<g>
</g>
<g>
</g>
<g>
</g>
<g>
</g>
<g>
</g>
<g>
</g>
<g>
</g>
<g>
</g>
<g>
</g>
<g>
</g>
<g>
</g>
<g>
</g>
</svg>
