<?xml version="1.0" encoding="iso-8859-1"?>
<!-- Generator: Adobe Illustrator 19.0.0, SVG Export Plug-In . SVG Version: 6.00 Build 0)  -->
<svg version="1.1" id="Capa_1" xmlns="http://www.w3.org/2000/svg" xmlns:xlink="http://www.w3.org/1999/xlink" x="0px" y="0px"
	 viewBox="0 0 480 480" style="enable-background:new 0 0 480 480;" xml:space="preserve">
<g>
	<g>
		<path d="M447.469,246.82c-3.492-22.766-22.207-40.126-45.17-41.9l-20.064-1.6c6.333-8.544,9.747-18.901,9.736-29.536
			c0.027-25.597-19.228-47.107-44.672-49.904l-24.696-2.744c3.521-6.367,5.368-13.524,5.368-20.8
			c0.073-20.348-13.988-38.02-33.832-42.52l-26.456-6.112c-13.029-3.001-21.158-15.995-18.157-29.024
			c0.816-3.543,2.42-6.857,4.693-9.696c2.753-3.456,2.182-8.489-1.274-11.242c-1.414-1.126-3.167-1.74-4.974-1.742h-24
			c-39.764,0-72,32.235-72,72c0,10.709,2.389,21.283,6.992,30.953l-3.368-0.376c-33.406-3.734-63.514,20.32-67.248,53.726
			c-0.911,8.151-0.165,16.402,2.192,24.258c-34.039,1.727-60.233,30.721-58.506,64.759c1.264,24.917,17.407,46.621,40.906,55.001
			h0.008l55.4,174.08c1.047,3.33,4.133,5.597,7.624,5.6h208c3.491-0.003,6.577-2.27,7.624-5.6l54.4-171.08
			C433.049,299.171,451.618,273.875,447.469,246.82z M141.819,464L90.907,304h62.08l21.816,160H141.819z M231.971,464h-41.016
			l-21.816-160h62.832V464z M247.971,464V304h62.4l-29.072,160H247.971z M338.123,464h-40.552l29.088-160h62.4L338.123,464z
			 M431.698,257.234c-1.467,17.338-15.928,30.687-33.327,30.766H93.739c-25.266-0.026-45.742-20.502-45.768-45.768
			c-0.062-12.784,5.285-24.998,14.72-33.624c8.393-7.822,19.447-12.161,30.92-12.136c1.248,0,2.512,0.048,3.776,0.152l4.8,0.376
			c2.954,0.261,5.804-1.158,7.376-3.672c1.592-2.49,1.681-5.656,0.232-8.232c-12.162-21.593-4.516-48.956,17.077-61.118
			c8.199-4.618,17.643-6.542,26.995-5.498l19.904,2.208c3.247,0.403,6.404-1.252,7.92-4.152c1.548-2.866,1.203-6.385-0.872-8.896
			c-19.683-23.856-16.301-59.151,7.555-78.835C198.394,20.537,210.979,16.01,223.971,16h10.784
			c-6.678,21.211,5.104,43.819,26.315,50.497c0.996,0.314,2.004,0.588,3.021,0.823l26.448,6.104
			c14.709,3.22,24.023,17.754,20.803,32.464c-1.122,5.124-3.698,9.816-7.419,13.512L200.539,112l-1.136,16l111.88,8l34.248,3.8
			c17.328,1.909,30.443,16.552,30.44,33.984c-0.011,11.198-5.573,21.662-14.848,27.936L128.579,184l-1.216,16l244.688,18.6l29,2.32
			C419.541,222.485,433.262,238.743,431.698,257.234z"/>
	</g>
</g>
<g>
	<g>
		<rect x="183.971" y="56" width="16" height="16"/>
	</g>
</g>
<g>
	<g>
		<rect x="231.971" y="80" width="16" height="16"/>
	</g>
</g>
<g>
	<g>
		<rect x="255.971" y="144" width="16" height="16"/>
	</g>
</g>
<g>
	<g>
		<rect x="135.971" y="152" width="16" height="16"/>
	</g>
</g>
<g>
	<g>
		<rect x="327.971" y="168" width="16" height="16"/>
	</g>
</g>
<g>
	<g>
		<rect x="79.971" y="224" width="16" height="16"/>
	</g>
</g>
<g>
	<g>
		<rect x="191.971" y="224" width="16" height="16"/>
	</g>
</g>
<g>
	<g>
		<rect x="119.971" y="256" width="16" height="16"/>
	</g>
</g>
<g>
	<g>
		<rect x="271.971" y="248" width="16" height="16"/>
	</g>
</g>
<g>
	<g>
		<rect x="375.971" y="232" width="16" height="16"/>
	</g>
</g>
<g>
</g>
<g>
</g>
<g>
</g>
<g>
</g>
<g>
</g>
<g>
</g>
<g>
</g>
<g>
</g>
<g>
</g>
<g>
</g>
<g>
</g>
<g>
</g>
<g>
</g>
<g>
</g>
<g>
</g>
</svg>
